SplineFontDB: 3.2
FontName: Joosper-Black
FullName: Joosper Black
FamilyName: Joosper
Weight: Black
Copyright: Copyright (c) 2024, Zamero Type Foundry
UComments: "2024-1-11: Created with FontForge (http://fontforge.org)+AAoACgAK-Clowns or snacks? PICK ONE."
Version: 001.000
ItalicAngle: 0
UnderlinePosition: -100
UnderlineWidth: 50
Ascent: 800
Descent: 200
InvalidEm: 0
LayerCount: 2
Layer: 0 0 "Back" 1
Layer: 1 0 "Fore" 0
XUID: [1021 474 1118879153 27206]
StyleMap: 0x0000
FSType: 0
OS2Version: 0
OS2_WeightWidthSlopeOnly: 0
OS2_UseTypoMetrics: 1
CreationTime: 1705026833
ModificationTime: 1727353050
PfmFamily: 17
TTFWeight: 900
TTFWidth: 5
LineGap: 90
VLineGap: 90
OS2TypoAscent: 0
OS2TypoAOffset: 1
OS2TypoDescent: 0
OS2TypoDOffset: 1
OS2TypoLinegap: 90
OS2WinAscent: 0
OS2WinAOffset: 1
OS2WinDescent: 0
OS2WinDOffset: 1
HheadAscent: 0
HheadAOffset: 1
HheadDescent: 0
HheadDOffset: 1
OS2Vendor: 'ZAM '
Lookup: 1 0 0 "'dnom' Denominators lookup 0" { "'dnom' Denominators lookup 0 subtable"  } ['dnom' ('DFLT' <'dflt' > 'latn' <'dflt' > ) ]
Lookup: 1 0 0 "'numr' Numerators lookup 0" { "'numr' Numerators lookup 0 subtable"  } ['numr' ('DFLT' <'dflt' > 'latn' <'dflt' > ) ]
Lookup: 1 0 0 "'sinf' Scientific Inferiors lookup 0" { "'sinf' Scientific Inferiors lookup 0 subtable"  } ['sinf' ('DFLT' <'dflt' > 'latn' <'dflt' > ) ]
Lookup: 1 0 0 "'sups' Superscript lookup 0" { "'sups' Superscript lookup 0 subtable" ("superior") } ['sups' ('DFLT' <'dflt' > 'latn' <'dflt' > ) ]
Lookup: 258 0 0 "'kern' Horizontal Kerning in Latin lookup 0" { "'kern' Horizontal Kerning in Latin lookup 0-1" [70,15,2] } ['kern' ('DFLT' <'dflt' > 'latn' <'dflt' > ) ]
MarkAttachClasses: 1
DEI: 91125

StartChar: I
Encoding: 73 73 0
Width: 280
Flags: W
HStem: -10 21G<108.202 169.056> -10 21G<108.202 169.056> 719 20G<108.202 169.056>
VStem: 45 190<10.9332 718.47>
LayerCount: 2
Fore
SplineSet
45 66 m 6xb0
 45 658 l 6
 45 720.547406791 78.4033203125 739 138 739 c 4
 200.112304688 739 235 721.088586788 235 658 c 6
 235 66 l 6
 235 10.5825602214 200.112304688 -10 138 -10 c 4
 78.4033203125 -10 45 10.9149983724 45 66 c 6xb0
EndSplineSet
Validated: 1
EndChar

StartChar: O
Encoding: 79 79 1
Width: 570
Flags: W
HStem: -10 94.9004<253.218 314.154> 644.1 94.9004<253.218 314.154>
VStem: 30 189<192.433 564.034> 351 189<191.709 564.826>
LayerCount: 2
Fore
SplineSet
219 393.299804688 m 4
 219 170.436764965 242.131067943 84.900390625 283.400390625 84.900390625 c 4
 326.686647504 84.900390625 351 168.991473946 351 393.299804688 c 4
 351 560.591022736 326.686647504 644.099609375 283.400390625 644.099609375 c 4
 242.131067943 644.099609375 219 559.03810237 219 393.299804688 c 4
30 398 m 4
 30 627.83627294 120.871501441 739 283 739 c 4
 447.565566589 739 540 629.990215439 540 398 c 4
 540 106.189714884 447.565566589 -10 283 -10 c 4
 120.871501441 -10 30 108.068943299 30 398 c 4
EndSplineSet
Validated: 1
EndChar

StartChar: V
Encoding: 86 86 2
Width: 513
Flags: W
HStem: -10 21G<232.113 288.534> -10 21G<232.113 288.534> 719 20G<78.6293 140.547 428.221 462.712>
LayerCount: 2
Back
SplineSet
199.657226562 86 m 6
 31.009765625 603.181640625 l 6
 -3.330078125 708.495117188 43.060546875 739 102.657226562 739 c 4
 164.76953125 739 186.470703125 709.10546875 209.657226562 638 c 6
 381.211914062 111.897460938 l 6
 410.290039062 22.7265625 364.76953125 -10 302.657226562 -10 c 4
 243.060546875 -10 220.166015625 23.1064453125 199.657226562 86 c 6
EndSplineSet
Fore
SplineSet
262.872070312 -10 m 0xa0
 201.353320312 -10 183.75218526 20.5989621428 166.872070312 86 c 2
 28.224609375 623.181640625 l 2
 22.7575131906 644.363591437 20 662.399414062 20 677.818359375 c 0
 20 724.926677108 57.3865756756 739 99.8720703125 739 c 0
 181.221545975 739 186.689759239 711.625 205.380859375 644.068359375 c 2
 296.1875 286.049804688 l 1
 388.813476562 681.001953125 l 2
 397.62087683 718.556230953 409.662109375 739 446.779296875 739 c 0
 478.644919829 739 493.64453125 723.049804688 493.64453125 688.5390625 c 0
 493.64453125 677.446289062 491.996171841 665.37969277 488.079101562 649.421875 c 2
 349.779296875 86 l 2
 333.343800017 19.0431559385 314.194991047 -10 262.872070312 -10 c 0xa0
EndSplineSet
Validated: 1
EndChar

StartChar: U
Encoding: 85 85 3
Width: 530
Flags: W
HStem: -10 134.9<254.319 362.564> 719 20G<108.202 169.056 417.338 450.329>
VStem: 45 190<143.205 718.579> 382 103<142.828 732.355>
LayerCount: 2
Fore
SplineSet
485 206 m 2
 485 59.1682316707 407.311820652 -10 269 -10 c 0
 125.454935622 -10 45 60.2959359976 45 206 c 2
 45 658 l 2
 45 720.554455446 78.4033203125 739 138 739 c 0
 200.112304688 739 235 721.356435644 235 658 c 2
 235 207 l 2
 235 151.651783442 261.36328125 124.900390625 308.400390625 124.900390625 c 0
 355.528320312 124.900390625 382 150.927668386 382 207 c 2
 382 678 l 2
 382 725 400.676757812 739 434 739 c 0
 466.657226562 739 485 726 485 678 c 2
 485 206 l 2
EndSplineSet
Validated: 1
EndChar

StartChar: L
Encoding: 76 76 4
Width: 463
Flags: W
HStem: 0 98<235 450.72>
VStem: 45 190<98 718.47>
LayerCount: 2
Fore
SplineSet
45 96 m 2
 45 658 l 6
 45 720.547406791 78.4033203125 739 138 739 c 0
 200.112304688 739 235 721.088586788 235 658 c 6
 235 98 l 1
 396 98 l 2
 443.103515625 98 457 81.119140625 457 51 c 0
 457 18.3427734375 443.510742188 -0 396 0 c 2
 138 0 l 2
 78.4033203125 0 45 26.4189453125 45 96 c 2
EndSplineSet
Validated: 1
EndChar

StartChar: C
Encoding: 67 67 6
Width: 423
Flags: W
HStem: -10 81.2773<296.526 376.385> 663.771 75.2295<315.675 399.864>
VStem: 30 189<245.876 528.776>
LayerCount: 2
Fore
SplineSet
219 397.700195312 m 4
 219 198.202236952 264.333763643 87.7064169686 336 71.27734375 c 4
 366.782019018 63.7883831176 383 51.2852114539 383 29 c 4
 383 5.33554077148 367.912109375 -10 333 -10 c 4
 176.288085938 -10 30 148.570116206 30 398 c 4
 30 621.641225152 185.944065207 739 353 739 c 4
 387.912109375 739 403 724.450897217 403 702 c 4
 403 676.082067981 387.327745872 669.785040362 365.666015625 663.770507812 c 4
 277.038021384 639.162318619 219 576.228958857 219 397.700195312 c 4
EndSplineSet
Validated: 1
EndChar

StartChar: F
Encoding: 70 70 7
Width: 477
Flags: W
HStem: -10 21G<118.202 179.056> 304 90<113.659 419.803> 633 98<245 460.72>
VStem: 55 190<15.599 304 394 633>
LayerCount: 2
Fore
SplineSet
147 394 m 2
 365 394 l 2
 412.103515625 394 424 381.119140625 424 351 c 0
 424 318.342773438 412.510742188 304 365 304 c 2
 147 304 l 2
 113.458007812 304 103 319.78125 103 355 c 0
 103 382.555664062 113.659179688 394 147 394 c 2
55 635 m 6
 55 704.581054688 88.4033203125 731 148 731 c 6
 406 731 l 6
 453.510742188 731 467 712.657226562 467 680 c 4
 467 649.880859375 453.103515625 633 406 633 c 6
 245 633 l 5
 245 91 l 2
 245 12.333984375 210.112304688 -10 148 -10 c 0
 88.4033203125 -10 55 13.0087890625 55 91 c 2
 55 635 l 6
EndSplineSet
Validated: 5
EndChar

StartChar: D
Encoding: 68 68 8
Width: 501
Flags: W
HStem: -10 21G<94.6099 224.77> -10 21G<94.6099 224.77> 719 20G<94.6099 224.77>
VStem: 45 190<117.051 626.543> 351 120<245.094 530.95>
LayerCount: 2
Fore
SplineSet
45 46 m 6xb8
 45 678 l 6
 45 725.103602645 71.2198105679 739 118 739 c 4
 331.540868952 739 471 621.641036184 471 398 c 4
 471 148.569909794 331.540868952 -10 118 -10 c 4
 71.2198105679 -10 45 5.41105143229 45 46 c 6xb8
235 117.05078125 m 5
 235 117.05078125 351 149.443359375 351 397.700195312 c 4
 351 618.630859375 235 626.54296875 235 626.54296875 c 5
 235 117.05078125 l 5
EndSplineSet
Validated: 1
EndChar

StartChar: G
Encoding: 71 71 9
Width: 523
Flags: W
HStem: -10 369<352.453 465.51> 663 76<346.73 489.919>
VStem: 30 189<254.262 522.899> 338 150<81.4863 347.024>
LayerCount: 2
Fore
SplineSet
383 -10 m 4
 161.529962487 -10 30 188.570116206 30 398 c 4
 30 621.641225152 197.416892746 739 443 739 c 4
 477.912109375 739 493 724.451171875 493 702 c 4
 493 675.559570312 478.170720744 664.612186484 451.592773438 663 c 4
 289.175816687 653.147981732 219 575.711960903 219 397.700195312 c 4
 219 266.52156868 245.366858674 132.961504245 338 81.486328125 c 5
 338 298 l 6
 338 345.103602645 364.219840337 359 411 359 c 4
 460.305636682 359 488 345.511157952 488 298 c 6
 488 66 l 6
 488 10.5825602214 450.234959112 -10 383 -10 c 4
EndSplineSet
EndChar

StartChar: J
Encoding: 74 74 10
Width: 280
Flags: W
HStem: 719 20G<108.202 169.056>
VStem: 45 190<-37.9843 718.579>
LayerCount: 2
Fore
SplineSet
235 60 m 6
 235 -94 119.055664062 -151.299804688 2 -151.299804688 c 4
 -32.912109375 -151.299804688 -48 -136.750976562 -48 -114.299804688 c 4
 -48 -66.5185546875 45 -81 45 31 c 6
 45 658 l 6
 45 720.554455446 78.4033203125 739 138 739 c 4
 200.112304688 739 235 721.356435644 235 658 c 6
 235 60 l 6
EndSplineSet
Validated: 1
EndChar

StartChar: N
Encoding: 78 78 11
Width: 510
Flags: W
HStem: -10 21G<79.6714 112.662 403.5 439.662> -10 21G<79.6714 112.662 403.5 439.662> 719 20G<83.3384 120 397.338 430.329>
VStem: 45 103<-3.35547 310.795> 362 103<402.205 732.355>
LayerCount: 2
Back
SplineSet
148 51 m 6
 148 4 129.323242188 -10 96 -10 c 4
 63.3427734375 -10 45 3 45 51 c 6
 45 678 l 6
 45 725 63.6767578125 739 97 739 c 4
 129.657226562 739 148 726 148 678 c 6
 148 51 l 6
EndSplineSet
Fore
SplineSet
423 -10 m 0xb8
 384 -10 372.880859375 11.7138671875 336.57421875 60 c 2
 148 310.794921875 l 1
 148 51 l 2
 148 4 129.323242188 -10 96 -10 c 0
 63.3427734375 -10 45 3 45 51 c 2
 45 678 l 2
 45 725 66.6767578125 739 100 739 c 0
 140 739 153.078125 717.188476562 206.928710938 636 c 2
 362 402.205078125 l 1
 362 678 l 2
 362 725 380.676757812 739 414 739 c 0
 446.657226562 739 465 726 465 678 c 2
 465 55 l 2
 465 8 456.323242188 -10 423 -10 c 0xb8
EndSplineSet
Validated: 1
EndChar

StartChar: H
Encoding: 72 72 12
Width: 580
Flags: W
HStem: -10 21G<108.202 169.056 408.202 469.056> 304 90<113.659 472.104> 719 20G<108.202 169.056 408.202 469.056>
VStem: 45 190<10.9332 304 394 718.47> 103 132<318.234 381.088> 345 190<10.9332 304 394 718.47>
LayerCount: 2
Fore
SplineSet
147 394 m 6xec
 425 394 l 6
 472.103515625 394 484 381.119140625 484 351 c 4
 484 318.342773438 472.510742188 304 425 304 c 6
 147 304 l 6
 113.458007812 304 103 318.234068627 103 350 c 4
 103 381.088441506 113.659179688 394 147 394 c 6xec
345 66 m 6
 345 658 l 6
 345 720.547406791 378.403320312 739 438 739 c 4
 500.112304688 739 535 721.088586788 535 658 c 6
 535 66 l 6
 535 10.5825602214 500.112304688 -10 438 -10 c 4
 378.403320312 -10 345 10.9149983724 345 66 c 6
45 66 m 6xf4
 45 658 l 6
 45 720.547406791 78.4033203125 739 138 739 c 4
 200.112304688 739 235 721.088586788 235 658 c 6
 235 66 l 6
 235 10.5825602214 200.112304688 -10 138 -10 c 4
 78.4033203125 -10 45 10.9149983724 45 66 c 6xf4
EndSplineSet
Validated: 5
EndChar

StartChar: E
Encoding: 69 69 13
Width: 477
Flags: W
HStem: 0 98<235 430.72> 304 90<103.659 409.803> 633 98<235 450.72>
VStem: 45 190<98 304 394 633>
LayerCount: 2
Fore
SplineSet
137 394 m 6
 355 394 l 6
 402.103515625 394 414 381.119140625 414 351 c 4
 414 318.342773438 402.510742188 304 355 304 c 6
 137 304 l 6
 103.458007812 304 93 319.78125 93 355 c 4
 93 382.555664062 103.659179688 394 137 394 c 6
235 98 m 5
 376 98 l 6
 423.103602645 98 437 81.1187521001 437 51 c 4
 437 18.3430150612 423.511157952 -4.67334504428e-15 376 0 c 6
 138 0 l 6
 78.4033582373 0 45 26.4189453125 45 96 c 6
 45 635 l 6
 45 704.581054688 78.4033203125 731 138 731 c 6
 396 731 l 6
 443.510742188 731 457 712.657226562 457 680 c 4
 457 649.880859375 443.103515625 633 396 633 c 6
 235 633 l 5
 235 98 l 5
EndSplineSet
Validated: 5
EndChar

StartChar: K
Encoding: 75 75 14
Width: 512
Flags: W
HStem: -10 21G<83.2017 144.056> 719 20G<83.2017 144.056>
VStem: 20 190<10.9332 718.47>
LayerCount: 2
Fore
SplineSet
376.53515625 386.1640625 m 1
 468.015625 649.342773438 l 2
 475.108432583 669.747959178 479.83984375 681.2421875 479.83984375 696 c 0
 479.83984375 724 461.41552831 736 435.913085938 736 c 0
 402.58984375 736 383.521593541 726.318658484 367.267578125 683.03515625 c 2
 225.681640625 306 l 1
 302.337890625 67.79296875 l 2
 323.540810563 1.90552171018 345.818359375 -10 411.961914062 -10 c 0
 456.102539062 -10 492.58984375 8.4404296875 492.58984375 54 c 0
 492.58984375 70.4267578125 488.750119435 86.5361775427 479.251953125 111.897460938 c 2
 376.53515625 386.1640625 l 1
20 66 m 2
 20 658 l 2
 20 720.547851562 53.4033203125 739 113 739 c 0
 175.112304688 739 210 721.088867188 210 658 c 2
 210 66 l 2
 210 10.5830078125 175.112304688 -10 113 -10 c 0
 53.4033203125 -10 20 10.9150390625 20 66 c 2
EndSplineSet
Validated: 9
EndChar

StartChar: S
Encoding: 83 83 15
Width: 375
Flags: W
HStem: -10.2998 21G<89.5439 165.528> -10.2998 21G<89.5439 165.528> 719 20G<224.472 305.456>
VStem: 35 189<452.826 622.668> 151 189<101.794 251.37>
LayerCount: 2
Fore
SplineSet
340 200.700195312 m 0xa8
 340 46.8681640625 224.055664062 -10.2998046875 107 -10.2998046875 c 0
 72.087890625 -10.2998046875 57 4.2490234375 57 26.7001953125 c 0
 57 74.4814453125 151 60 151 172 c 0xa8
 151 291 35 321 35 518 c 0
 35 691.83203125 160.944335938 739 288 739 c 0
 322.912109375 739 338 724.451171875 338 702 c 0
 338 646.778320312 224 679.751953125 224 546 c 0xb0
 224 414 340 362 340 200.700195312 c 0xa8
EndSplineSet
Validated: 1
EndChar

StartChar: P
Encoding: 80 80 16
Width: 491
Flags: W
HStem: -10 21G<108.202 169.056> -10 21G<108.202 169.056> 272.249 71.8018<195.203 287.871> 719 20G<94.61 221.746>
VStem: 45 190<16.442 272.249 344.051 641> 180.583 54.417<280.839 335.628> 348 113<411.242 589.919>
LayerCount: 2
Fore
SplineSet
235 641 m 13xba
 235 86 l 6
 235 16 200.112304688 -10 138 -10 c 4
 78.4033203125 -10 45 16.4189453125 45 86 c 6
 45 678 l 6xba
 45 725.103378422 71.2199177775 739 118 739 c 4
 325.491736779 739 461 660.531503653 461 511 c 4
 461 377.486411708 367 272.249023438 225 272.249023438 c 4
 195.202681084 272.249023438 180.583007812 280.839042104 180.583007812 312 c 4xb6
 180.583007812 335.627960985 194.282369509 344.05078125 221 344.05078125 c 4
 253.5 344.05078125 348 363.28515625 348 510.700195312 c 4
 348 640.19921875 235 641 235 641 c 13xba
EndSplineSet
Validated: 5
EndChar

StartChar: R
Encoding: 82 82 17
Width: 503
Flags: W
HStem: -10 21G<108.202 169.056 108.202 169.056 373.642 428.218> -10 21G<373.642 428.218> 272.249 71.8018<195.203 287.871> 719 20G<94.61 221.746>
VStem: 45 190<16.442 272.249 344.051 641> 180.583 54.417<280.839 335.628> 348 113<411.242 589.919>
LayerCount: 2
Fore
SplineSet
289.951171875 86 m 6xb2
 211.303710938 313.181640625 l 29
 374.951171875 348 l 5
 471.505859375 111.897460938 l 6
 482.180242213 85.7956842518 486 66.8249392345 486 49 c 4
 486 7.1696748406 448.288235518 -10 408.147460938 -10 c 4
 339.136316204 -10 318.103119627 4.68007433719 289.951171875 86 c 6xb2
EndSplineSet
Refer: 16 80 S 1 0 0 1 0 0 2
Validated: 5
EndChar

StartChar: Q
Encoding: 81 81 18
Width: 570
Flags: W
HStem: -130 199<241.167 328.833> -10 94.9004<253.218 314.154> 644.1 94.9004<253.218 314.154>
VStem: 30 189<192.433 564.034> 233.5 103<-123.355 62.3555> 351 189<191.709 564.826>
CounterMasks: 1 1c
LayerCount: 2
Fore
SplineSet
336.5 -69 m 2xbc
 336.5 -116 317.823242188 -130 284.5 -130 c 0
 251.842773438 -130 233.5 -117 233.5 -69 c 2
 233.5 8 l 2
 233.5 55 252.176757812 69 285.5 69 c 0
 318.157226562 69 336.5 56 336.5 8 c 2
 336.5 -69 l 2xbc
EndSplineSet
Refer: 1 79 S 1 0 0 1 0 0 2
Validated: 5
EndChar

StartChar: A
Encoding: 65 65 19
Width: 513
Flags: W
HStem: -10 20G<50.933 85.424 373.098 435.016> 164 90<72.4897 425.803> 718 21G<225.111 281.532 225.111 281.532>
LayerCount: 2
Fore
SplineSet
113 254 m 6
 371 254 l 6
 418.103515625 254 430 241.119140625 430 211 c 4
 430 178.342773438 418.510742188 164 371 164 c 6
 113 164 l 6
 79.4580078125 164 69 178.234068627 69 210 c 4
 69 241.088441506 79.6591796875 254 113 254 c 6
EndSplineSet
Refer: 2 86 N -1 0 0 -1 513.645 729 2
Validated: 5
EndChar

StartChar: T
Encoding: 84 84 20
Width: 475
Flags: W
HStem: -10 21G<205.702 266.556> -10 21G<205.702 266.556> 633.008 98<16.2731 142.5 332.5 458.72> 633.008 75.9922<175.903 297.612>
VStem: 142.5 190<10.9332 692.826>
LayerCount: 2
Fore
SplineSet
56 731.0078125 m 6x28
 404 731.0078125 l 6
 451.103515625 731.0078125 465 714.126953125 465 684.0078125 c 4
 465 651.350585938 451.510742188 633.0078125 404 633.0078125 c 6
 56 633.0078125 l 6
 22.4580078125 633.0078125 10 652.7890625 10 688.0078125 c 4
 10 715.563476562 22.6591796875 731.0078125 56 731.0078125 c 6x28
142.5 66 m 6
 142.5 638 l 6
 142.5 692.825504718 175.903320312 709 235.5 709 c 4
 297.612304688 709 332.5 693.29987237 332.5 638 c 6
 332.5 66 l 6
 332.5 10.5825602214 297.612304688 -10 235.5 -10 c 4x98
 175.903320312 -10 142.5 10.9149983724 142.5 66 c 6
EndSplineSet
Validated: 5
EndChar

StartChar: B
Encoding: 66 66 21
Width: 474
Flags: W
HStem: -10 21G<94.6099 218.116> -10 21G<94.6099 218.116> 323.249 71.7764<211.912 298.757> 719 20G<94.6099 219.629>
VStem: 45 190<92 323.249 395.025 637> 200.583 34.417<330.975 384.845> 341 108<137.136 286.636 437.905 594.889>
LayerCount: 2
Fore
SplineSet
235 323.249023438 m 0x3a
 211.911526038 323.249023438 200.583007812 330.974659048 200.583007812 359 c 0x36
 200.583007812 384.844905964 209.968663514 394.88788394 228.29296875 395.025390625 c 0
 289.898828492 395.649498719 344 433.567382812 344 522 c 4
 344 635.328125 235 637 235 637 c 1
 235 92 l 1
 235 92 341 92.7333984375 341 211.299804688 c 4
 341 294.1796875 294.52 323.249023438 235 323.249023438 c 0x3a
118 739 m 0
 321.257031071 739 454 666.381990132 454 528 c 0
 454 414.747683147 370.90625 368.642578125 370.90625 368.642578125 c 1
 370.90625 368.642578125 449 328.764953813 449 221 c 0
 449 69.5012335526 318.23237287 -10 118 -10 c 0
 71.2198105679 -10 45 4.11570247934 45 51 c 2
 45 678 l 2xba
 45 724.884297521 71.2198105679 739 118 739 c 0
EndSplineSet
Validated: 5
EndChar

StartChar: W
Encoding: 87 87 22
Width: 763
Flags: W
HStem: -10 21G<222.113 278.534 482.113 538.534 482.113 538.534> -10 21G<222.113 278.534> 719 20G<68.6294 132.047 328.629 390.547 678.221 712.712>
LayerCount: 2
Fore
SplineSet
447.292542528 524 m 5xa0
 339.779296875 86 l 2
 323.34375 19.04296875 304.1953125 -10 252.872070312 -10 c 0
 191.353515625 -10 173.751953125 20.5986328125 156.872070312 86 c 2
 18.224609375 623.181640625 l 2
 12.7578125 644.36328125 10 662.399414062 10 677.818359375 c 0
 10 724.926757812 47.38671875 739 89.8720703125 739 c 0
 174.221679688 739 176.689453125 711.625 195.380859375 644.068359375 c 2
 286.1875 286.049804688 l 1
 349.028400117 554 l 1
 447.292542528 524 l 5xa0
EndSplineSet
Refer: 2 86 N 1 0 0 1 250 0 2
Validated: 5
EndChar

StartChar: M
Encoding: 77 77 23
Width: 591
Flags: W
HStem: -10 21G<79.6714 112.662 419.202 480.056> -10 21G<79.6714 112.662 419.202 480.056> 317 422<120 251>
VStem: 45 103<-3.35547 416.795> 356 190<10.9678 416.795>
LayerCount: 2
Back
SplineSet
416 66 m 6xb0
 416 658 l 2
 416 720.547406791 449.403320312 739 509 739 c 0
 571.112304688 739 606 721.088586788 606 658 c 2
 606 66 l 6
 606 10.5825602214 571.112304688 -10 509 -10 c 4
 449.403320312 -10 416 10.9149983724 416 66 c 6xb0
EndSplineSet
Fore
SplineSet
546 66 m 2xb8
 546 11 511.112304688 -10 449 -10 c 0
 389.403320312 -10 356 11 356 66 c 2
 356 416.794921875 l 1
 329.42578125 382 l 2
 291.909048845 332.877510819 280.389648438 317 251 317 c 0
 223.00390625 317 210.936215751 334.389462254 174.57421875 382 c 2
 148 416.794921875 l 1
 148 51 l 6
 148 4 129.323242188 -10 96 -10 c 4
 63.3427734375 -10 45 3 45 51 c 6
 45 678 l 2
 45 725 74.5592151989 739 120 739 c 0
 177.755859375 739 188.017205096 721.292938313 230.928710938 656 c 2
 286 572.205078125 l 1
 346.041015625 661.2890625 l 2
 391.565245595 728.834218909 411.452120767 739 470 739 c 0
 527 739 546 713.524590164 546 628 c 2
 546 66 l 2xb8
EndSplineSet
Validated: 1
EndChar

StartChar: X
Encoding: 88 88 24
Width: 493
Flags: W
HStem: -9.97852 20.9785G<52.3711 86.6221 347.98 412.669> -9.97852 20.9785G<52.3711 86.6221 347.98 412.669> 719 20G<80.3408 145.029 390.44 424.4>
VStem: 332.98 119.451<643.021 693.267>
LayerCount: 2
Fore
SplineSet
286.303710938 54.0224609375 m 6x30
 44.3330078125 603.181640625 l 2
 29.3662109375 637.1484375 20 661.57421875 20 683.385742188 c 0
 20 724.705078125 48.65234375 739 112.029296875 739 c 0
 178.029296875 739 189.064453125 715.015625 206.706054688 674.977539062 c 2
 448.676757812 125.818359375 l 6
 463.651367188 91.8330078125 473.009765625 67.42578125 473.009765625 45.6142578125 c 4
 473.009765625 4.294921875 444.357421875 -10 380.98046875 -10 c 4
 314.98046875 -10 304.029296875 14 286.303710938 54.0224609375 c 6x30
332.98046875 643.021484375 m 2
 362.369140625 710.896484375 369.899414062 739.021484375 410.98046875 739.021484375 c 0
 437.8203125 739.021484375 452.431640625 723.673828125 452.431640625 699.705078125 c 0
 452.431640625 676.794921875 442.444335938 657.264648438 424.53515625 617.124023438 c 2
 300 338 l 1
 242.3984375 433.8125 l 1
 332.98046875 643.021484375 l 2
246.067382812 280.149414062 m 1
 149.98046875 91.021484375 l 2
 116.725585938 25.5654296875 105.622070312 -9.978515625 67.6220703125 -9.978515625 c 0xb0
 37.1201171875 -9.978515625 23.029296875 9.083984375 23.029296875 36.11328125 c 0
 23.029296875 57.388671875 37.724609375 79.01953125 61.3330078125 125.83984375 c 2
 191 383 l 1
 246.067382812 280.149414062 l 1
EndSplineSet
Validated: 5
EndChar

StartChar: Y
Encoding: 89 89 25
Width: 479
Flags: W
HStem: -10 21G<209.28 270.134> -10 21G<209.28 270.134> 248 181<179.481 301.19> 719.021 19.9785G<81.6519 144.85 397.489 431.449>
VStem: 146.078 190<10.9332 405.991> 345.029 114.451<643.021 702.48>
LayerCount: 2
Fore
SplineSet
202.452148438 675.805664062 m 2x3c
 279.383789062 444.502929688 l 1
 345.029296875 643.021484375 l 2
 368.328125 713.478515625 376.948242188 739.021484375 418.029296875 739.021484375 c 0
 444.869140625 739.021484375 459.48046875 723.673828125 459.48046875 699.705078125 c 0
 459.48046875 676.794921875 450.875976562 658.176757812 436.583984375 617.124023438 c 2
 308.078125 248 l 1
 176.767578125 250.87890625 l 1
 39.3330078125 603.181640625 l 2
 25.6904296875 638.15234375 20 661.57421875 20 683.385742188 c 0
 20 724.705078125 49.2744140625 739 114.029296875 739 c 0
 175.669921875 739 188.780273438 716.913085938 202.452148438 675.805664062 c 2x3c
146.078125 66 m 6
 146.078125 328 l 2
 146.078125 405.991210938 179.481445312 429 239.078125 429 c 0
 301.190429688 429 336.078125 406.666015625 336.078125 328 c 2
 336.078125 66 l 6
 336.078125 10.5830078125 301.190429688 -10 239.078125 -10 c 0xbc
 179.481445312 -10 146.078125 10.9150390625 146.078125 66 c 6
EndSplineSet
Validated: 5
EndChar

StartChar: Z
Encoding: 90 90 26
Width: 455
Flags: W
HStem: 0.0078125 98<237.929 415.72> 633.008 98<36.2731 225.006>
LayerCount: 2
Fore
SplineSet
76 731.0078125 m 6
 370 731.0078125 l 6
 417.103515625 731.0078125 430 718.126953125 430 688.0078125 c 4
 430 670.607421875 425.086334716 657.322392727 414.83203125 626.677734375 c 6
 237.928710938 98.0078125 l 5
 361 98.0078125 l 2
 408.103515625 98.0078125 422 81.126953125 422 51.0078125 c 0
 422 18.3505859375 408.510742188 0.0078125 361 0.0078125 c 2
 72 0.0078125 l 6
 38.4580078125 0.0078125 22 15.7890625 22 40 c 4
 22 65.658203125 30.5404929751 79.0149108226 42.4560546875 112.959960938 c 6
 225.005859375 633.0078125 l 5
 76 633.0078125 l 6
 42.4580078125 633.0078125 30 652.7890625 30 688.0078125 c 4
 30 715.563476562 42.6591796875 731.0078125 76 731.0078125 c 6
EndSplineSet
Validated: 1
EndChar

StartChar: zero
Encoding: 48 48 27
Width: 516
Flags: W
HStem: -10 94.9004<235.911 284.452> 644.1 94.9004<231.438 285.738>
VStem: 30 174<193.045 581.779> 316 170<193.463 585.553>
LayerCount: 2
Fore
SplineSet
204 413.299804688 m 0
 204 175.983881492 223.539308992 84.900390625 258.400390625 84.900390625 c 0
 295.283318065 84.900390625 316 174.444861954 316 413.299804688 c 0
 316 567.250404847 295.283318065 644.099609375 258.400390625 644.099609375 c 0
 223.539308992 644.099609375 204 565.821321927 204 413.299804688 c 0
30 418 m 0
 30 634.35613963 111.892104066 739 258 739 c 0
 403.995911215 739 486 637.982135128 486 423 c 4
 486 113.309182708 403.995911215 -10 258 -10 c 0
 111.892104066 -10 30 113.856636598 30 418 c 0
EndSplineSet
Validated: 1
Substitution2: "'dnom' Denominators lookup 0 subtable" zero.dnom
Substitution2: "'numr' Numerators lookup 0 subtable" zero.numr
Substitution2: "'sinf' Scientific Inferiors lookup 0 subtable" zero.inferior
Substitution2: "'sups' Superscript lookup 0 subtable" zero.superior
EndChar

StartChar: one
Encoding: 49 49 28
Width: 386
Flags: W
HStem: -10 21G<214.202 275.056> 711 20G<249.389 300.5>
VStem: 151 190<10.9332 593>
LayerCount: 2
Fore
SplineSet
151 593 m 1
 111 577 l 2
 95.4600282866 570.784011315 72.9638671875 561 58 561 c 0
 32 561 20 584.719726562 20 608 c 0
 20 637 37.59375 654.87890625 76 671 c 2
 132.793945312 694.838867188 l 2
 197.621161075 722.049644292 221.778320312 731 277 731 c 0
 324 731 341 711 341 670 c 6
 341 66 l 2
 341 10.5825602214 306.112304688 -10 244 -10 c 0
 184.403320312 -10 151 10.9149983724 151 66 c 2
 151 593 l 1
EndSplineSet
Validated: 1
Substitution2: "'dnom' Denominators lookup 0 subtable" one.dnom
Substitution2: "'numr' Numerators lookup 0 subtable" one.numr
Substitution2: "'sinf' Scientific Inferiors lookup 0 subtable" one.inferior
Substitution2: "'sups' Superscript lookup 0 subtable" one.superior
EndChar

StartChar: two
Encoding: 50 50 29
Width: 446
Flags: W
HStem: 0 158<191.576 396.851> 663 76<35.2824 136.227>
VStem: 30 386<19.0239 120.323> 226 179<376.892 584.592>
LayerCount: 2
Fore
SplineSet
226 481 m 4xd0
 226 613.716013214 162.355382808 642.451931424 73.4072265625 663 c 4
 47.463442878 668.993318679 32 675.559570312 32 702 c 4
 32 724.451171875 47.087890625 739 82 739 c 4
 249.055664062 739 405 668.729626886 405 487 c 4xd0
 405 273.951345192 191.576171875 158 191.576171875 158 c 1
 325 158 l 2
 395.26871142 158 416 130.343837453 416 81 c 0
 416 29.1327712368 395.876519097 -8.67958356233e-15 325 0 c 2
 96 0 l 2
 47.875 0 30 23.3779296875 30 65 c 4xe0
 30 156.390768349 226 232 226 481 c 4xd0
EndSplineSet
Validated: 1
Substitution2: "'dnom' Denominators lookup 0 subtable" two.dnom
Substitution2: "'numr' Numerators lookup 0 subtable" two.numr
Substitution2: "'sinf' Scientific Inferiors lookup 0 subtable" two.inferior
Substitution2: "'sups' Superscript lookup 0 subtable" two.superior
EndChar

StartChar: three
Encoding: 51 51 30
Width: 456
Flags: W
HStem: -10 81.2773<79.1075 174.263> 583.008 148<35.152 275.006>
VStem: 227 186<124.75 253.819>
LayerCount: 2
Back
SplineSet
388 522 m 4
 388 670 240.26326069 739 82 739 c 4
 47.087890625 739 32 724.451171875 32 702 c 4
 32 675.559570312 47.4463007086 668.91862395 73.4072265625 663 c 4
 154.780942734 644.448256962 209 601.8397473 209 511 c 4
 209 386 90 389.271538131 90 355 c 4
 90 300.451543061 207 289.35694165 207 195.700195312 c 4
 207 119.657509516 158.382311206 81.7484350057 100 71.27734375 c 4
 68.817378123 65.6846210139 53 51.28515625 53 29 c 4
 53 5.3359375 68.087890625 -10 103 -10 c 4
 262.888259334 -10 393 70.8395618557 393 192 c 4
 393 310 284 351 284 351 c 4
 284 351 388 385 388 522 c 4
EndSplineSet
Fore
SplineSet
251.928710938 423.0078125 m 4
 251.928710938 423.0078125 413 368.998582472 413 219 c 4
 413 70.8395618557 282.888259334 -10 123 -10 c 4
 88.087890625 -10 73 5.3359375 73 29 c 4
 73 51.28515625 88.817378123 65.6846210139 120 71.27734375 c 4
 178.382311206 81.7484350057 227 119.657509516 227 195.700195312 c 4
 227 289.35694165 110 300.451543061 110 355 c 4
 110 375.383076303 115.490063269 385.804199745 137.456054688 412.959960938 c 6
 275.005859375 583.0078125 l 5
 96 583.0078125 l 6
 40.5827955163 583.0078125 20 609.982244318 20 658.0078125 c 4
 20 704.788358467 40.9151664402 731.0078125 96 731.0078125 c 6
 371 731.0078125 l 6
 418.103515625 731.0078125 431 718.126953125 431 688.0078125 c 4
 431 670.607421875 423.4820934 653.02427252 403.83203125 626.677734375 c 6
 251.928710938 423.0078125 l 4
EndSplineSet
Validated: 1
Substitution2: "'dnom' Denominators lookup 0 subtable" three.dnom
Substitution2: "'numr' Numerators lookup 0 subtable" three.numr
Substitution2: "'sinf' Scientific Inferiors lookup 0 subtable" three.inferior
Substitution2: "'sups' Superscript lookup 0 subtable" three.superior
EndChar

StartChar: four
Encoding: 52 52 31
Width: 544
Flags: W
HStem: -10 21G<318.202 379.056> -10 21G<318.202 379.056> 154 128<124.538 516.023> 719 20G<321.679 391.504>
VStem: 255 190<10.9332 544.657>
LayerCount: 2
Fore
SplineSet
124.538085938 282 m 1xb8
 465 282 l 2
 512.103515625 282 524 263.127929688 524 219 c 0
 524 173.8359375 512.510742188 154 465 154 c 2
 73 154 l 2
 24.2119140625 154 9 172.717773438 9 205 c 0
 9 240.896484375 19.1676432918 264.216826858 63.087890625 345.389648438 c 2
 233.469726562 660.287109375 l 6
 269.24911145 726.414096404 285.357340495 739 358 739 c 0
 425.007675606 739 445 716.666015625 445 660 c 2
 445 66 l 2
 445 10.5825602214 410.112304688 -10 348 -10 c 0
 288.403320312 -10 255 10.9149983724 255 66 c 2
 255 544.657226562 l 1
 124.538085938 282 l 1xb8
EndSplineSet
Validated: 5
Substitution2: "'dnom' Denominators lookup 0 subtable" four.dnom
Substitution2: "'numr' Numerators lookup 0 subtable" four.numr
Substitution2: "'sinf' Scientific Inferiors lookup 0 subtable" four.inferior
Substitution2: "'sups' Superscript lookup 0 subtable" four.superior
EndChar

StartChar: five
Encoding: 53 53 32
Width: 449
Flags: W
HStem: -10 81.2773<61.088 158.738>
VStem: 55 354<602.498 712.051> 219 190<131.146 265.494>
LayerCount: 2
Fore
SplineSet
133.994140625 583.0078125 m 5xa0
 329 583.0078125 l 2
 384.417204484 583.0078125 405 609.982244318 405 658.0078125 c 0
 405 704.788358467 384.272727273 731.0078125 329 731.0078125 c 2
 118 731.0078125 l 6
 68.393248315 731.0078125 56.8565112121 717.47172969 53.4873046875 670.805664062 c 6
 40.2890625 488 l 6
 37.7400707119 452.694530538 36 426.999999408 36 404 c 4
 36 373.188058117 44.9119742478 358.344532803 78 343 c 4
 131.374789389 318.247504557 219 292.191317547 219 195.700195312 c 4xa0
 219 119.657509516 165.745144029 81.7484350057 102 71.27734375 c 4
 70.7387628445 66.1422189965 55 51.28515625 55 29 c 4xc0
 55 5.3359375 70.087890625 -10 105 -10 c 4
 272.607002888 -10 409 70.8395618557 409 232 c 4
 409 464.33348295 127 494 127 494 c 4
 133.994140625 583.0078125 l 5xa0
EndSplineSet
Validated: 9
Substitution2: "'dnom' Denominators lookup 0 subtable" five.dnom
Substitution2: "'numr' Numerators lookup 0 subtable" five.numr
Substitution2: "'sinf' Scientific Inferiors lookup 0 subtable" five.inferior
Substitution2: "'sups' Superscript lookup 0 subtable" five.superior
EndChar

StartChar: six
Encoding: 54 54 33
Width: 496
Flags: W
HStem: -10 86<228.092 310.24> 353.949 82.8018<163.494 291.273> 719 20G<241.368 314.387>
VStem: 30 177<141.293 344.876> 145.583 61.417<171.683 502.796> 336 130<103.92 306.062>
LayerCount: 2
Fore
SplineSet
269 76 m 4xf4
 312.17188528 76 336 124.231856588 336 204.299804688 c 4
 336 336.676159501 276.191623264 353.94921875 196 353.94921875 c 4
 162.671875 353.94921875 145.583007812 362.634835114 145.583007812 387 c 4xec
 145.583007812 426 163.494140625 436.750976562 200 436.750976562 c 4
 400.05078125 436.750976562 466 337.684551263 466 212 c 4
 466 87.8917664367 398.69140625 -10 262 -10 c 4
 118.0859375 -10 30 90.548828125 30 284 c 4
 30 552.612304688 189.735849057 739 293 739 c 4
 335.774712643 739 362 707.088400554 362 679 c 4
 362 582.159014263 207 579.591647332 207 228 c 4
 207 115.365279797 223.05719489 76 269 76 c 4xf4
EndSplineSet
Validated: 5
Substitution2: "'dnom' Denominators lookup 0 subtable" six.dnom
Substitution2: "'numr' Numerators lookup 0 subtable" six.numr
Substitution2: "'sinf' Scientific Inferiors lookup 0 subtable" six.inferior
Substitution2: "'sups' Superscript lookup 0 subtable" six.superior
EndChar

StartChar: seven
Encoding: 55 55 34
Width: 415
Flags: W
VStem: 20 370<600.572 715.384>
LayerCount: 2
Fore
SplineSet
222.828125 86.96875 m 6
 356.530273438 544.260742188 l 6
 377.827148438 617.1015625 390 655.395507812 390 681 c 4
 390 716.02734375 372.373046875 731.0078125 308 731.0078125 c 6
 96 731.0078125 l 2
 40.9170482472 731.0078125 20 704.788358467 20 658.0078125 c 0
 20 609.982244318 40.5827955163 583.0078125 96 583.0078125 c 2
 294.005859375 583.0078125 l 5
 136.456054688 109.959960938 l 6
 125.338867188 76.580078125 118 63.955078125 118 39 c 4
 118 14.4130859375 138.442382812 0 161 0 c 4
 193.770507812 0 204.51171875 24.32421875 222.828125 86.96875 c 6
EndSplineSet
Validated: 9
Substitution2: "'dnom' Denominators lookup 0 subtable" seven.dnom
Substitution2: "'numr' Numerators lookup 0 subtable" seven.numr
Substitution2: "'sinf' Scientific Inferiors lookup 0 subtable" seven.inferior
Substitution2: "'sups' Superscript lookup 0 subtable" seven.superior
EndChar

StartChar: eight
Encoding: 56 56 35
Width: 459
Flags: W
HStem: -10.0078 83.3359<151.951 253.773> 649.253 89.7393<221.588 325.476>
VStem: 30 175.459<517.638 632.793> 42.6172 88.7686<93.1452 223.58> 272.278 157.05<91.6922 202.114> 343.866 81.5391<500.392 631.514>
LayerCount: 2
Fore
SplineSet
274.489257812 649.252929688 m 0xe4
 233.681984638 649.252929688 205.458984375 624.104516046 205.458984375 581.458007812 c 0xe4
 205.458984375 544.513759039 227.601304729 507.109012063 298.130859375 427.33984375 c 0
 406.906085915 304.314711974 429.328125 253.003289503 429.328125 172 c 0
 429.328125 59.7045455642 350.650740333 -10.0078125 223.9140625 -10.0078125 c 0
 104.261971618 -10.0078125 42.6171875 45.4183023244 42.6171875 153 c 0
 42.6171875 260.933917488 143.002929688 346.984375 143.002929688 346.984375 c 1
 221.579101562 312.599609375 l 1
 221.579101562 312.599609375 131.385742188 230.275160732 131.385742188 148.2109375 c 0
 131.385742188 102.333082657 160.996910647 73.328125 201.879882812 73.328125 c 0
 243.139259698 73.328125 272.278320312 100.40182257 272.278320312 145.430664062 c 0xd8
 272.278320312 188.264596233 246.660139592 209.931920599 166.103515625 300.798828125 c 0
 53.8448022195 427.425477353 30 472.207194515 30 552.604492188 c 0
 30 672.058762489 107.984431183 738.9921875 247.161132812 738.9921875 c 0
 355.25426062 738.9921875 425.405273438 672.482438176 425.405273438 570 c 0
 425.405273438 464.458515284 309.637695312 349 309.637695312 349 c 1
 244.630859375 390.700195312 l 1
 244.630859375 390.700195312 343.866210938 492.057383854 343.866210938 577.193359375 c 0
 343.866210938 619.059072394 317.160489867 649.252929688 274.489257812 649.252929688 c 0xe4
EndSplineSet
Validated: 5
Substitution2: "'dnom' Denominators lookup 0 subtable" eight.dnom
Substitution2: "'numr' Numerators lookup 0 subtable" eight.numr
Substitution2: "'sinf' Scientific Inferiors lookup 0 subtable" eight.inferior
Substitution2: "'sups' Superscript lookup 0 subtable" eight.superior
EndChar

StartChar: slash
Encoding: 47 47 37
Width: 461
Flags: W
LayerCount: 2
Fore
SplineSet
383.362304688 788.682617188 m 4
 415.2890625 788.682617188 441.389648438 768.046875 441.389648438 742.805664062 c 4
 441.389648438 733.42578125 439.015625 722.279296875 434.1953125 709.036132812 c 6
 123.983398438 -143.264648438 l 6
 112.8984375 -173.717773438 98.451171875 -187.682617188 78.0283203125 -187.682617188 c 4
 46.1015625 -187.682617188 20 -167.046875 20 -141.805664062 c 4
 20 -132.42578125 22.375 -121.279296875 27.1953125 -108.036132812 c 6
 337.407226562 744.264648438 l 6
 348.491210938 774.717773438 362.938476562 788.682617188 383.362304688 788.682617188 c 4
EndSplineSet
Validated: 1
EndChar

StartChar: period
Encoding: 46 46 38
Width: 240
Flags: W
HStem: -10 179<57.861 182.432>
VStem: 33 174<15.0177 144.453>
LayerCount: 2
Fore
SplineSet
33 78 m 4
 33 138.457730035 63.5298477564 169 118 169 c 4
 174.989856509 169 207 138.462370078 207 76 c 4
 207 22.4393465908 174.989856509 -10 118 -10 c 4
 63.5298477564 -10 33 23.5295608108 33 78 c 4
EndSplineSet
Validated: 1
EndChar

StartChar: i
Encoding: 105 105 39
Width: 258
Flags: W
HStem: -10 21G<99.5717 157.66> -10 21G<99.5717 157.66> 488.934 20G<99.5717 157.66> 568.002 187<61.6159 193.196>
VStem: 35 186<595.708 726.501> 45 168<6.22752 493.032>
LayerCount: 2
Fore
SplineSet
35 660.001953125 m 0x38
 35 723.117165799 67.6848958334 755.001953125 126 755.001953125 c 0
 186.831869307 755.001953125 221 723.150876755 221 658.001953125 c 0
 221 601.950106534 186.831869307 568.001953125 126 568.001953125 c 0
 67.6848958334 568.001953125 35 603.055584882 35 660.001953125 c 0x38
45 66 m 6xb4
 45 427.93359375 l 6
 45 490.481445312 71.1433975395 508.93359375 128 508.93359375 c 4
 187.320740432 508.93359375 213 491.022460938 213 427.93359375 c 6
 213 66 l 6
 213 10.5830078125 187.320740432 -10 128 -10 c 4
 71.1433975395 -10 45 10.9149983724 45 66 c 6xb4
EndSplineSet
Validated: 1
EndChar

StartChar: o
Encoding: 111 111 40
Width: 478
Flags: W
HStem: -10 89.9004<211.694 263.851> 419.033 89.9004<211.694 264.343>
VStem: 30 161<115.02 396.346> 287 161<115.838 396.81>
LayerCount: 2
Fore
SplineSet
191 263.233398438 m 0
 191 130.748868508 207.665901832 79.900390625 237.400390625 79.900390625 c 0
 269.160654513 79.900390625 287 129.889691942 287 263.233398438 c 4
 287 367.156681513 269.160654513 419.033203125 237.400390625 419.033203125 c 0
 207.665901832 419.033203125 191 366.191989017 191 263.233398438 c 0
30 267.93359375 m 0
 30 430.369200139 104.34941027 508.93359375 237 508.93359375 c 0
 372.110251168 508.93359375 448 431.891487946 448 267.93359375 c 0
 448 69.149571114 372.110251168 -10 237 -10 c 0
 104.34941027 -10 30 70.4297199053 30 267.93359375 c 0
EndSplineSet
Validated: 1
EndChar

StartChar: p
Encoding: 112 112 41
Width: 449
Flags: W
HStem: -194 21G<99.5717 157.66> -10 71.8018<173.203 249.596> 488.934 20G<94.61 209.042>
VStem: 45 168<-177.742 -10 61.8018 410.934> 158.583 54.417<-1.40998 53.3789> 306 113<132.082 357.476>
LayerCount: 2
Fore
SplineSet
45 -118 m 2xf4
 45 447.93359375 l 6xf4
 45 495 71.2199177775 508.93359375 118 508.93359375 c 4
 300.084585337 508.93359375 419 420.13674631 419 250.93 c 0
 419 105.011436522 332.966101695 -10 203 -10 c 0
 173.202681084 -10 158.583007812 -1.40998133389 158.583007812 29.7509765625 c 0xec
 158.583007812 53.3789375475 172.282369509 61.8017578125 199 61.8017578125 c 0
 226.381889764 61.8017578125 306 83.596410506 306 250.633789062 c 0
 306 409.94844202 213 410.93359375 213 410.93359375 c 5
 213 -118 l 2
 213 -173 187.320740432 -194 128 -194 c 0
 71.1433975395 -194 45 -173 45 -118 c 2xf4
EndSplineSet
Validated: 5
EndChar

StartChar: q
Encoding: 113 113 42
Width: 449
Flags: W
HStem: -194 21G<291.34 349.428> -10 71.8018<199.404 275.797> 488.934 20G<239.958 354.39>
VStem: 30 113<132.084 357.478> 236 168<-177.742 -10 61.8018 410.934> 236 54.417<-1.41016 53.3789>
LayerCount: 2
Fore
SplineSet
404 -118 m 2xf8
 404 -173 377.856445312 -194 321 -194 c 0
 261.6796875 -194 236 -173 236 -118 c 2
 236 410.93359375 l 5xf8
 236 410.93359375 143 409.948689446 143 250.633789062 c 0
 143 83.5965734156 222.618164062 61.8017578125 250 61.8017578125 c 0
 276.717773438 61.8017578125 290.416992188 53.37890625 290.416992188 29.7509765625 c 0xf4
 290.416992188 -1.41015625 275.796875 -10 246 -10 c 0
 116.034179688 -10 30 105.015258236 30 250.93359375 c 0
 30 420.140714116 148.915039062 508.93359375 331 508.93359375 c 4
 377.780273438 508.93359375 404 495 404 447.93359375 c 6
 404 -118 l 2xf8
EndSplineSet
Validated: 5
EndChar

StartChar: b
Encoding: 98 98 43
Width: 449
Flags: W
HStem: -9.99805 21G<94.6099 209.042> 437.132 71.8018<173.203 255.106> 735.002 20G<99.5718 157.66>
VStem: 45 168<88.002 437.132 508.934 737.307> 158.583 54.417<445.555 500.344> 306 113<151.699 377.521>
LayerCount: 2
Fore
SplineSet
45 679.001953125 m 2xf4
 45 730.387774521 71.1435546875 755.001953125 128 755.001953125 c 0
 187.3203125 755.001953125 213 730.043979276 213 679.001953125 c 2
 213 88.001953125 l 1xf4
 213 88.001953125 306 89.1404609078 306 273.301757812 c 0
 306 418.22272227 226.381835938 437.131835938 199 437.131835938 c 4
 172.282226562 437.131835938 158.583007812 445.5546875 158.583007812 469.182617188 c 4xec
 158.583007812 500.34375 173.203125 508.93359375 203 508.93359375 c 4
 332.965820312 508.93359375 419 404.938787322 419 273.001953125 c 0
 419 87.3987939639 300.084960938 -9.998046875 118 -9.998046875 c 0
 71.2197265625 -9.998046875 45 7.0283904827 45 51.001953125 c 2
 45 679.001953125 l 2xf4
EndSplineSet
Validated: 5
EndChar

StartChar: d
Encoding: 100 100 44
Width: 449
Flags: W
HStem: -9.99805 21G<239.958 354.39> 437.132 71.8018<193.894 275.797> 735 20G<291.34 349.428>
VStem: 30 113<151.699 377.521> 236 168<88.002 437.132 508.934 737.306> 236 54.417<445.555 500.344>
LayerCount: 2
Fore
SplineSet
404 679.001953125 m 2xf8
 404 51.001953125 l 2xf8
 404 7.0283203125 377.780273438 -9.998046875 331 -9.998046875 c 0
 148.915039062 -9.998046875 30 87.3984375 30 273.001953125 c 0
 30 404.938539028 116.034179687 508.93359375 246 508.93359375 c 0
 275.796875 508.93359375 290.416992188 500.34375 290.416992188 469.182617188 c 0xf4
 290.416992188 445.5546875 276.717773438 437.131835938 250 437.131835938 c 0
 222.618164062 437.131835938 143 418.222941502 143 273.301757812 c 0
 143 89.140625 236 88.001953125 236 88.001953125 c 1
 236 679.001953125 l 2
 236 730.043945312 261.6796875 755 321 755 c 4
 377.856445312 755 404 730.387695312 404 679.001953125 c 2xf8
EndSplineSet
Validated: 5
EndChar

StartChar: j
Encoding: 106 106 45
Width: 258
Flags: W
HStem: -193.994 21G<-15.4561 55.0016> 488.934 20G<99.5717 157.66> 568.002 187<61.6159 193.196>
VStem: 35 186<595.708 726.501> 45 168<-64.9051 492.857>
LayerCount: 2
Fore
SplineSet
35 660.001953125 m 0xf0
 35 723.117165799 67.6848958334 755.001953125 126 755.001953125 c 0
 186.831869307 755.001953125 221 723.150876755 221 658.001953125 c 0
 221 601.950106534 186.831869307 568.001953125 126 568.001953125 c 0
 67.6848958334 568.001953125 35 603.055584882 35 660.001953125 c 0xf0
213 36 m 6xe8
 213 -131.230128306 108.003197927 -193.994140625 2 -193.994140625 c 4
 -32.912109375 -193.994140625 -48 -179.445312499 -48 -156.994140625 c 4
 -48 -98.4614911828 45 -116.201449051 45 21 c 6
 45 427.93359375 l 2
 45 490 71.1433975395 508.93359375 128 508.93359375 c 0
 187.320740432 508.93359375 213 491 213 427.93359375 c 2
 213 36 l 6xe8
EndSplineSet
Validated: 1
EndChar

StartChar: c
Encoding: 99 99 46
Width: 339
Flags: W
HStem: -10 75.2773<240.23 312.934> 439.704 69.2295<240.307 316.784>
VStem: 30 166<150.204 373.102>
LayerCount: 2
Fore
SplineSet
196 263.233398438 m 4
 196 132.249746202 225.447448258 82.5230589056 272 65.27734375 c 4
 301.498817497 54.3493025375 319 46.7038530139 319 26 c 4
 319 4.15588378906 303.912109375 -10 269 -10 c 4
 145.388952275 -10 30 98.0195153394 30 267.93359375 c 4
 30 425.990881907 145.388952274 508.93359375 269 508.93359375 c 0
 303.912109375 508.93359375 319 495.564147949 319 474.93359375 c 0
 319 451.049531176 303.389251518 445.154648855 281.666015625 439.704101562 c 0
 228.994444599 426.488349993 196 381.642311235 196 263.233398438 c 4
EndSplineSet
Validated: 1
EndChar

StartChar: m
Encoding: 109 109 47
Width: 660
Flags: W
HStem: -10 21G<99.5717 157.66 340.662 382.739 548.162 587.239> 412.67 96.2637<217.135 289.789>
VStem: 45 168<6.25971 404.934> 292 141<4.94231 412.67 418 439.936> 512 113<-1.87695 352.93>
LayerCount: 2
Fore
SplineSet
433 439.935546875 m 25
 433 64 l 2
 433 8 404.477539062 -10 361 -10 c 0
 320.32421875 -10 292 8 292 64 c 2
 292 456.9453125 l 17
 433 439.935546875 l 25
213 404.93359375 m 5
 213 66 l 2
 213 11 187.320740432 -10 128 -10 c 0
 71.1433975395 -10 45 11.0036903313 45 66 c 2
 45 393 l 2
 45 467.997070312 71.2199177775 508.93359375 279 508.93359375 c 0
 511 508.93359375 625 464 625 235.001953125 c 2
 625 54.001953125 l 2
 625 8.001953125 607.477539062 -9.998046875 567 -9.998046875 c 0
 529.32421875 -9.998046875 512 8.001953125 512 54.001953125 c 2
 512 231.001953125 l 2
 512 390 461 418 338 418 c 0
 320 418 317 412.669921875 295 412.669921875 c 4
 237 412.669921875 213 404.93359375 213 404.93359375 c 5
EndSplineSet
Validated: 5
EndChar

StartChar: l
Encoding: 108 108 48
Width: 258
Flags: W
HStem: -10 21G<99.5717 157.66> 735.002 20G<99.5717 157.66>
VStem: 45 168<6.22752 739.1>
LayerCount: 2
Fore
SplineSet
45 66 m 6
 45 674.001953125 l 6
 45 736.549804688 71.1433975395 755.001953125 128 755.001953125 c 4
 187.320740432 755.001953125 213 737.090820312 213 674.001953125 c 6
 213 66 l 6
 213 10.5830078125 187.320740432 -10 128 -10 c 4
 71.1433975395 -10 45 10.9149983724 45 66 c 6
EndSplineSet
Validated: 1
EndChar

StartChar: n
Encoding: 110 110 49
Width: 454
Flags: W
HStem: -10 21G<99.5717 157.66 342.162 381.239> 488.934 20G<94.61 209.042>
VStem: 45 168<6.25996 410.934> 306 113<-1.87891 351.102>
LayerCount: 2
Fore
SplineSet
419 54 m 6
 419 8 401.477681706 -10 361 -10 c 4
 323.323938129 -10 306 8 306 54 c 6
 306 231 l 6
 306 409.945179686 213 410.93359375 213 410.93359375 c 5
 213 66 l 6
 213 11.0043726739 187.320740432 -10 128 -10 c 4
 71.1433975395 -10 45 11.0036903313 45 66 c 6
 45 447.93359375 l 6
 45 494.996841989 71.2199177775 508.93359375 118 508.93359375 c 4
 300.084585337 508.93359375 419 441 419 235 c 6
 419 54 l 6
EndSplineSet
Validated: 1
EndChar

StartChar: e
Encoding: 101 101 50
Width: 428
Flags: W
HStem: -10 75.2773<262.16 353.784> 222 71.3018<151 308> 428.396 80.5371<221.185 285.779>
VStem: 308 100<293.302 406.234>
LayerCount: 2
Fore
SplineSet
151 293.301757812 m 1
 308 293.301757812 l 1
 308 393.260087112 283.373875989 428.396484375 252.118164062 428.396484375 c 0
 219.05206789 428.396484375 196 374.055087782 196 263.233398438 c 0
 196 132.249746202 238.946105236 82.5230589056 312 65.27734375 c 0
 342.616410603 58.0497770603 359 46.7038530139 359 26 c 0
 359 4.15588378906 343.912109375 -10 309 -10 c 0
 164.700910814 -10 30 98.0195153394 30 267.93359375 c 0
 30 425.990881907 118.301646333 508.93359375 232 508.93359375 c 4
 342.183320635 508.93359375 408 429.978518607 408 286 c 0
 408 235.520754821 378 222 320 222 c 2
 144 222 l 1
 151 293.301757812 l 1
EndSplineSet
Validated: 5
EndChar

StartChar: a
Encoding: 97 97 51
Width: 419
Flags: W
HStem: -9.99805 21G<209.032 320.798> 243.132 65.8018<149.884 255.797> 432.934 76<74.2824 165.154>
VStem: 20 100<107.685 215.876> 216 168<80.002 243.132 273.183 380.535> 216 54.417<251.029 301.208>
LayerCount: 2
Fore
SplineSet
216 297 m 6xf8
 216 390 175.428710938 422.3359375 112.407226562 432.93359375 c 4
 86.1484375 437.349609375 71 445.493164062 71 471.93359375 c 4
 71 494.384765625 86.087890625 508.93359375 121 508.93359375 c 4
 257.0234375 508.93359375 384 459 384 256.001953125 c 6
 384 71.001953125 l 6xf8
 384 12.5732421875 350.596679688 -9.998046875 291 -9.998046875 c 4
 127.063476562 -9.998046875 20 48.5087890625 20 160.001953125 c 4
 20 243.287109375 86.2685546875 308.93359375 226 308.93359375 c 4
 255.796875 308.93359375 270.416992188 301.208007812 270.416992188 273.182617188 c 4xf4
 270.416992188 251.029296875 256.717773438 243.131835938 230 243.131835938 c 4
 168.859375 243.131835938 120 222 120 160.301757812 c 4
 120 80.4951171875 216 80.001953125 216 80.001953125 c 5
 216 297 l 6xf8
EndSplineSet
Validated: 5
EndChar

StartChar: s
Encoding: 115 115 52
Width: 329
Flags: W
HStem: -10.2998 21G<89.5439 153.973> 488.934 20G<190.023 259.456>
VStem: 35 169<289.261 414.896> 125 169<77.5592 190.537>
LayerCount: 2
Fore
SplineSet
294 140.700195312 m 4xd0
 294 40.6118696313 200.945962144 -10.2998046875 107 -10.2998046875 c 4
 72.087890625 -10.2998046875 57 2.28296558277 57 21.7001953125 c 4
 57 68.4466723072 125 57.4535357851 125 132 c 4xd0
 125 206.266178197 35 224.988744129 35 347.93359375 c 4
 35 474.571408371 138.045365767 508.93359375 242 508.93359375 c 4
 276.912109375 508.93359375 292 496.35082348 292 476.93359375 c 4
 292 428.670358996 204 449.246061371 204 355.93359375 c 4xe0
 204 273.654924003 294 241.242114708 294 140.700195312 c 4xd0
EndSplineSet
Validated: 1
EndChar

StartChar: k
Encoding: 107 107 53
Width: 477
Flags: W
HStem: -10 21G<99.5718 157.66> 735.002 20G<99.5718 157.66>
VStem: 45 168<6.22754 739.1>
LayerCount: 2
Fore
SplineSet
364.412109375 316.1640625 m 1
 413.352539062 419.276367188 l 2
 424.764648438 443.321289062 431.245117188 452.461914062 431.245117188 470 c 0
 431.245117188 495.659179688 417.342773438 508.93359375 389.76171875 508.93359375 c 0
 357.85546875 508.93359375 340.038085938 496.424804688 322.192382812 455.96875 c 2
 225.16015625 236 l 1
 282.17578125 67.79296875 l 2
 303.07421875 6.13671875 316.298828125 -10 382.442382812 -10 c 0
 426.583007812 -10 457.100585938 8.4404296875 457.100585938 54 c 0
 457.100585938 70.4423828125 453.087890625 85.2607421875 442.858398438 111.897460938 c 2
 364.412109375 316.1640625 l 1
45 66 m 6
 45 674.001953125 l 6
 45 736.549804688 71.1435546875 755.001953125 128 755.001953125 c 4
 187.3203125 755.001953125 213 737.090820312 213 674.001953125 c 6
 213 66 l 6
 213 10.5830078125 187.3203125 -10 128 -10 c 4
 71.1435546875 -10 45 10.9150390625 45 66 c 6
EndSplineSet
Validated: 9
EndChar

StartChar: u
Encoding: 117 117 54
Width: 454
Flags: W
HStem: -10 21G<244.958 359.39> 488.934 20G<72.7612 111.838 296.34 354.428>
VStem: 35 113<148.544 500.812> 241 168<88 492.674>
LayerCount: 2
Fore
SplineSet
35 444.93359375 m 6
 35 490.93359375 52.5224609375 508.93359375 93 508.93359375 c 4
 130.67578125 508.93359375 148 490.93359375 148 444.93359375 c 6
 148 272.93359375 l 2
 148 89.015625 241 88 241 88 c 1
 241 432.93359375 l 6
 241 487.9296875 266.6796875 508.93359375 326 508.93359375 c 4
 382.856445312 508.93359375 409 487.9296875 409 432.93359375 c 6
 409 51 l 2
 409 3.9365234375 382.780273438 -10 336 -10 c 0
 153.915039062 -10 35 57.93359375 35 263.93359375 c 2
 35 444.93359375 l 6
EndSplineSet
Validated: 1
EndChar

StartChar: r
Encoding: 114 114 55
Width: 334
Flags: W
HStem: -10 21G<99.5717 157.66> 488.934 20G<99.5717 157 253.366 301.456>
VStem: 45 168<6.22752 399.207>
LayerCount: 2
Fore
SplineSet
45 66 m 2
 45 427.93359375 l 2
 45 490.481445312 71.1433975395 508.93359375 128 508.93359375 c 0
 186 508.93359375 194 474 194 474 c 1
 194 474 220.731445312 509 286 509 c 0
 316.912109375 509 334 496.416992188 334 474 c 0
 334 412 213 468 213 316 c 2
 213 66 l 2
 213 10.5830078125 187.320740432 -10 128 -10 c 0
 71.1433975395 -10 45 10.9149983724 45 66 c 2
EndSplineSet
Validated: 1
EndChar

StartChar: t
Encoding: 116 116 56
Width: 326
Flags: W
HStem: -10 75.2773<226.938 286.525> 419.474 79.5371<129.535 303.975>
VStem: 45 168<82.5225 419.474 499.011 649.263> 120.115 92.8848<433.42 488.897>
LayerCount: 2
Fore
SplineSet
159 499.010742188 m 2xd0
 254.4453125 499.010742188 l 2
 296.073242188 499.010742188 306.586914062 487.627929688 306.586914062 461.009765625 c 0
 306.586914062 432.149414062 296.432617188 419.473632812 254.4453125 419.473632812 c 2
 159 419.473632812 l 2
 129.357421875 419.473632812 120.115234375 433.419921875 120.115234375 464.544921875 c 0
 120.115234375 488.897460938 129.53515625 499.010742188 159 499.010742188 c 2xd0
213 164 m 2xe0
 213 109 218 80 247 65.27734375 c 0
 275.050371717 51.036792699 294 46.7041015625 294 26 c 0
 294 4.15625 278.912109375 -10 244 -10 c 0
 120.388671875 -10 45 47 45 197 c 2
 45 584.001953125 l 2
 45 647 71.1435546875 665.001953125 128 665.001953125 c 0
 187.3203125 665.001953125 213 647 213 584.001953125 c 2
 213 164 l 2xe0
EndSplineSet
Validated: 5
EndChar

StartChar: hyphen
Encoding: 45 45 57
Width: 301
Flags: W
HStem: 229.011 90<14.2175 286.782>
VStem: 10 281<234.256 313.818>
LayerCount: 2
Fore
SplineSet
69 229.010742188 m 6
 21 229.010742188 10 243.353515625 10 276.010742188 c 4
 10 306.129882812 22 319.010742188 69 319.010742188 c 6
 232 319.010742188 l 6
 279 319.010742188 291 306.129882812 291 276.010742188 c 4
 291 243.353515625 280 229.010742188 232 229.010742188 c 6
 69 229.010742188 l 6
EndSplineSet
Validated: 1
EndChar

StartChar: f
Encoding: 102 102 58
Width: 316
Flags: W
HStem: -10 21G<99.5718 157.66> 419.474 79.5371<119.535 293.975> 679.725 75.2773<231.282 297.934>
VStem: 45 168<5.73852 419.474 499.011 657.948> 110.115 102.885<429.587 485.064>
LayerCount: 2
Fore
SplineSet
149 419.473632812 m 6xe8
 119.53515625 419.473632812 110.115234375 429.586914062 110.115234375 453.939453125 c 4
 110.115234375 485.064453125 119.357421875 499.010742188 149 499.010742188 c 6
 244.4453125 499.010742188 l 6
 286.432617188 499.010742188 296.586914062 486.334960938 296.586914062 457.474609375 c 4
 296.586914062 430.856445312 286.073242188 419.473632812 244.4453125 419.473632812 c 6
 149 419.473632812 l 6xe8
213 581.001953125 m 6xf0
 213 71 l 6
 213 8.001953125 187.3203125 -10 128 -10 c 4
 71.1435546875 -10 45 8.001953125 45 71 c 6
 45 548.001953125 l 6
 45 698.001953125 130.388671875 755.001953125 254 755.001953125 c 4
 288.912109375 755.001953125 304 740.845703125 304 719.001953125 c 4
 304 698.297851562 286.431113354 690.834972579 257 679.724609375 c 4
 218 665.001953125 213 636.001953125 213 581.001953125 c 6xf0
EndSplineSet
Validated: 5
EndChar

StartChar: h
Encoding: 104 104 59
Width: 454
Flags: W
HStem: -10 21G<99.5717 157.66 342.162 381.239> 420.934 88<173.282 260.543> 735.002 20G<99.5717 157.66>
VStem: 45 168<6.22752 420.934 508.934 739.1> 158.583 54.417<433 500.344> 306 113<-1.87891 364.708>
LayerCount: 2
Fore
SplineSet
45 66 m 2xf4
 45 674.001953125 l 2
 45 736.549804688 71.1433975395 755.001953125 128 755.001953125 c 0
 187.320740432 755.001953125 213 737.090820312 213 674.001953125 c 2
 213 66 l 2
 213 10.5830078125 187.320740432 -10 128 -10 c 0
 71.1433975395 -10 45 10.9149983724 45 66 c 2xf4
200 420.93359375 m 0
 173.282226562 420.93359375 158.583007812 433 158.583007812 469.182617188 c 0xec
 158.583007812 500.34375 173.203125 508.93359375 203 508.93359375 c 0
 332.965820312 508.93359375 419 441 419 235 c 2
 419 54 l 2
 419 8 401.477681706 -10 361 -10 c 0
 323.323938129 -10 306 8 306 54 c 2
 306 231 l 2
 306 368 271 420.93359375 200 420.93359375 c 0
EndSplineSet
Validated: 5
EndChar

StartChar: g
Encoding: 103 103 60
Width: 439
Flags: W
HStem: 30 71.8018<188.457 275.797>
VStem: 30 113<153.518 357.478> 236 168<-73.4184 44> 236 54.417<38.5898 93.3789>
LayerCount: 2
Fore
SplineSet
236 0 m 2xe0
 236 -152.533333333 117 -97.0666666667 117 -160 c 4
 117 -181.411132812 132.087890625 -193.994140625 167 -193.994140625 c 4
 260.946289062 -193.994140625 404 -160.596712155 404 44 c 2
 404 447.93359375 l 2xe0
 404 495 377.780273438 508.93359375 331 508.93359375 c 0
 148.915039062 508.93359375 30 420.140714116 30 250.93359375 c 0
 30 105.015258236 116.034179688 30 246 30 c 0
 275.796875 30 290.416992188 38.58984375 290.416992188 69.7509765625 c 0
 290.416992188 93.37890625 276.717773438 101.801757812 250 101.801757812 c 0
 222.618164062 101.801757812 143 113.596573416 143 250.633789062 c 0
 143 409.948689446 236 410.93359375 236 410.93359375 c 1xd0
 236 0 l 2xe0
EndSplineSet
Validated: 5
EndChar

StartChar: comma
Encoding: 44 44 62
Width: 240
Flags: W
HStem: -110 279<115.464 140.541>
VStem: 33 174<15.4573 144.453>
LayerCount: 2
Fore
SplineSet
33 78 m 0
 33 138.457730035 63.5298477564 169 118 169 c 0
 174.989856509 169 207 138.462370078 207 76 c 0
 207 -8.14285714286 148 -110 102 -110 c 0
 81 -110 73 -98.1636828645 73 -84 c 0
 73 -60.9350412175 97.6 -45.1499230976 114 -9.998046875 c 1
 60 -9.998046875 33 26.7438707427 33 78 c 0
EndSplineSet
Validated: 1
EndChar

StartChar: v
Encoding: 118 118 63
Width: 426
Flags: W
HStem: -10 21G<186.113 242.534> 488.934 20G<84.1934 141.111 345.221 379.712>
LayerCount: 2
Fore
SplineSet
216.872070312 -10 m 0
 155.353515625 -10 140.752541788 20.0986186256 120.872070312 86 c 2
 28.224609375 393.115234375 l 2
 21.6275039276 415.970616405 20 432.333007812 20 447.751953125 c 0
 20 494.860351562 57.38671875 508.93359375 111 508.93359375 c 0
 171.221679688 508.93359375 180.768717172 485.419332129 199.380859375 414.001953125 c 2
 250.1875 219.049804688 l 1
 308.813476562 450.935546875 l 2
 318.947125034 491.017584474 326.662109375 508.93359375 363.779296875 508.93359375 c 0
 395.64453125 508.93359375 406.64453125 493.983398438 406.64453125 465.47265625 c 0
 406.64453125 454.379882812 402.992991683 436.019511467 398.079101562 419.35546875 c 2
 303.779296875 86 l 2
 286.270362646 24.1048667425 268.1953125 -10 216.872070312 -10 c 0
EndSplineSet
Validated: 1
EndChar

StartChar: w
Encoding: 119 119 64
Width: 655
Flags: W
HStem: -10 21G<186.113 242.534 415.113 471.534> 488.934 20G<84.1934 141.111 313.193 370.111 574.221 608.712>
LayerCount: 2
Fore
SplineSet
445.872070312 -10 m 4
 384.353515625 -10 369.752929688 20.0986328125 349.872070312 86 c 6
 257.224609375 393.115234375 l 6
 250.627929688 415.970703125 249 432.333007812 249 447.751953125 c 4
 249 494.860351562 286.38671875 508.93359375 340 508.93359375 c 4
 400.221679688 508.93359375 409.768554688 485.418945312 428.380859375 414.001953125 c 6
 479.1875 219.049804688 l 5
 537.813476562 450.935546875 l 6
 547.947265625 491.017578125 555.662109375 508.93359375 592.779296875 508.93359375 c 4
 624.64453125 508.93359375 635.64453125 493.983398438 635.64453125 465.47265625 c 4
 635.64453125 454.379882812 631.993164062 436.01953125 627.079101562 419.35546875 c 6
 532.779296875 86 l 6
 515.270507812 24.1044921875 497.1953125 -10 445.872070312 -10 c 4
290.12109375 377 m 1
 369.124722179 317 l 1
 303.779296875 86 l 2
 286.270362646 24.1048667425 268.1953125 -10 216.872070312 -10 c 0
 155.353515625 -10 140.752541788 20.0986186256 120.872070312 86 c 2
 28.224609375 393.115234375 l 2
 21.6275039276 415.970616405 20 432.333007812 20 447.751953125 c 0
 20 494.860351562 57.38671875 508.93359375 111 508.93359375 c 0
 171.221679688 508.93359375 180.768717172 485.419332129 199.380859375 414.001953125 c 2
 250.1875 219.049804688 l 1
 290.12109375 377 l 1
EndSplineSet
Validated: 5
EndChar

StartChar: x
Encoding: 120 120 65
Width: 403
Flags: W
HStem: -9.97852 20.9785G<52.3711 86.6221 272.98 332.669> 488.934 20G<80.3408 135.029 302.44 332.4>
VStem: 23.0293 123.951<43.534 91.0215>
LayerCount: 2
Fore
SplineSet
206.303710938 54.0224609375 m 2
 44.3330078125 373.115234375 l 2
 27.1539490376 406.959092577 20 431.5078125 20 453.319335938 c 0
 20 494.638671875 48.65234375 508.93359375 112.029296875 508.93359375 c 0
 158.029296875 508.93359375 171.24368259 495.073654641 196.706054688 444.911132812 c 2
 358.676757812 125.818359375 l 2
 371.427734375 100.697265625 383.009765625 67.42578125 383.009765625 45.6142578125 c 0
 383.009765625 4.294921875 364.357421875 -10 300.98046875 -10 c 0
 244.98046875 -10 225.224758417 16.7467721863 206.303710938 54.0224609375 c 2
235.98046875 412.955078125 m 2
 271.607338215 477.651518816 285.899414062 508.955078125 318.98046875 508.955078125 c 0
 345.8203125 508.955078125 360.431640625 493.607421875 360.431640625 469.638671875 c 0
 360.431640625 446.728515625 346.80859375 426.33203125 324.53515625 387.057617188 c 2
 240 238 l 1
 192.3984375 333.8125 l 1
 235.98046875 412.955078125 l 2
186.067382812 180.149414062 m 5
 146.98046875 91.021484375 l 6
 116.474493765 21.460239678 105.622070312 -9.978515625 67.6220703125 -9.978515625 c 4
 37.1201171875 -9.978515625 23.029296875 9.083984375 23.029296875 36.11328125 c 4
 23.029296875 57.388671875 36.8181414517 77.4790343116 61.3330078125 125.83984375 c 6
 141 283 l 5
 186.067382812 180.149414062 l 5
EndSplineSet
Validated: 5
EndChar

StartChar: y
Encoding: 121 121 66
Width: 426
Flags: W
HStem: -193.994 21G<139.749 174> 488.934 20G<84.1934 141.111 345.221 379.712>
LayerCount: 2
Fore
SplineSet
398.079101562 419.35546875 m 2
 231.358398438 -92.994140625 l 2
 208.700336852 -162.624659119 193 -193.994140625 155 -193.994140625 c 0
 124.498046875 -193.994140625 111 -174 111 -152 c 0
 111 -127 121.651338886 -105.072023018 137.7109375 -55.17578125 c 2
 163.562595118 25.143820105 l 1
 31.224609375 393.115234375 l 2
 22.3660564133 417.143273909 20 432.333007812 20 447.751953125 c 0
 20 494.860351562 57.38671875 508.93359375 111 508.93359375 c 0
 171.221679688 508.93359375 177.140291803 486.209628309 199.380859375 414.001953125 c 2
 250.1875 249.049804688 l 1
 306.813476562 450.935546875 l 2
 318.741093637 493.460479279 326.662109375 508.93359375 363.779296875 508.93359375 c 0
 395.64453125 508.93359375 406.64453125 493.983398438 406.64453125 465.47265625 c 0
 406.64453125 454.379882812 402.934535641 437.288478731 398.079101562 419.35546875 c 2
EndSplineSet
Validated: 1
EndChar

StartChar: z
Encoding: 122 122 67
Width: 379
Flags: W
HStem: 0.0078125 92<211.929 340.829> 407.011 92<34.3286 175.006>
VStem: 30 324<411.314 493.671>
LayerCount: 2
Fore
SplineSet
76 499.010742188 m 6
 294 499.010742188 l 6
 341.103515625 499.010742188 354 486.129882812 354 456.010742188 c 4
 354 438.610351562 351.860351562 425.138671875 338.83203125 394.680664062 c 6
 211.928710938 92.0078125 l 5
 285 92.0078125 l 2
 332.103515625 92.0078125 346 78.126953125 346 48.0078125 c 0
 346 15.3505859375 332.510742188 0.0078125 285 0.0078125 c 2
 72 0.0078125 l 2
 38.4580078125 0.0078125 22 15.7890625 22 40 c 4
 22 65.658203125 27.4133750636 80.2699420582 42.4560546875 112.959960938 c 6
 175.005859375 407.010742188 l 5
 76 407.010742188 l 6
 42.4580078125 407.010742188 30 420.791992188 30 456.010742188 c 4
 30 483.56640625 42.6591796875 499.010742188 76 499.010742188 c 6
EndSplineSet
Validated: 1
EndChar

StartChar: bar
Encoding: 124 124 69
Width: 193
Flags: W
HStem: -194 21G<79.6714 112.662>
VStem: 45 103<-187.355 788.355>
LayerCount: 2
Fore
SplineSet
148 -133 m 6
 148 -180 129.323242188 -194 96 -194 c 4
 63.3427734375 -194 45 -181 45 -133 c 6
 45 734 l 6
 45 781 63.6767578125 795 97 795 c 4
 129.657226562 795 148 782 148 734 c 6
 148 -133 l 6
EndSplineSet
Validated: 1
EndChar

StartChar: backslash
Encoding: 92 92 70
Width: 461
Flags: W
LayerCount: 2
Fore
SplineSet
78.02734375 788.682617188 m 4
 98.451171875 788.682617188 112.8984375 774.717773438 123.982421875 744.264648438 c 6
 434.194335938 -108.036132812 l 6
 439.014648438 -121.279296875 441.389648438 -132.42578125 441.389648438 -141.805664062 c 4
 441.389648438 -167.046875 415.288085938 -187.682617188 383.361328125 -187.682617188 c 4
 362.938476562 -187.682617188 348.491210938 -173.717773438 337.40625 -143.264648438 c 6
 27.1943359375 709.036132812 l 6
 22.3740234375 722.279296875 20 733.42578125 20 742.805664062 c 4
 20 768.046875 46.1005859375 788.682617188 78.02734375 788.682617188 c 4
EndSplineSet
Validated: 1
EndChar

StartChar: exclam
Encoding: 33 33 71
Width: 280
Flags: W
HStem: -10 179<77.861 202.432> 719 20G<108.202 169.056>
VStem: 45 190<402.268 718.47> 53 174<15.0177 144.453>
LayerCount: 2
Fore
SplineSet
85 275 m 0xe0
 72.2548828125 349.833984375 45 556.35078534 45 658 c 0
 45 720.547406791 78.4033203125 739 138 739 c 0
 200.112304688 739 235 721.088586788 235 658 c 0
 235 556.35078534 207.745117188 349.833984375 195 275 c 0
 186.993164062 227.984375 174.499023438 209 138 209 c 4
 104.036132812 209 92.9560546875 228.282226562 85 275 c 0xe0
EndSplineSet
Refer: 38 46 N 1 0 0 1 20 0 2
Validated: 1
EndChar

StartChar: plus
Encoding: 43 43 72
Width: 400
Flags: W
HStem: 304.011 90<14.2175 385.782>
VStem: 155 90<163.228 534.793>
LayerCount: 2
Fore
SplineSet
245 218.010742188 m 2
 245 170.010742188 230.657226562 159.010742188 198 159.010742188 c 0
 167.880859375 159.010742188 155 171.010742188 155 218.010742188 c 2
 155 480.010742188 l 2
 155 527.010742188 167.880859375 539.010742188 198 539.010742188 c 0
 230.657226562 539.010742188 245 528.010742188 245 480.010742188 c 2
 245 218.010742188 l 2
69 304.010742188 m 6
 21 304.010742188 10 318.353515625 10 351.010742188 c 4
 10 381.129882812 22 394.010742188 69 394.010742188 c 6
 331 394.010742188 l 6
 378 394.010742188 390 381.129882812 390 351.010742188 c 4
 390 318.353515625 379 304.010742188 331 304.010742188 c 6
 69 304.010742188 l 6
EndSplineSet
Validated: 5
EndChar

StartChar: quotesingle
Encoding: 39 39 73
Width: 240
Flags: W
HStem: 474.701 280.301<87.8258 151.661>
VStem: 33 174<571.096 730.455>
LayerCount: 2
Fore
SplineSet
33 664.001953125 m 4
 33 724.45968316 63.5298477564 755.001953125 118 755.001953125 c 4
 174.989856509 755.001953125 207 724.464323203 207 662.001953125 c 4
 207 616.20095642 171.358398438 533.707476081 161.547851562 514.299804688 c 4
 147.601812181 486.711113354 137.859375 474.701171875 118.506835938 474.701171875 c 4
 100.192382812 474.701171875 91.1547801767 486.564315209 77.8291015625 514.299804688 c 4
 68.3203125 534.090985807 33 617.675168667 33 664.001953125 c 4
EndSplineSet
Validated: 1
EndChar

StartChar: question
Encoding: 63 63 74
Width: 407
Flags: W
HStem: -10 179<94.861 219.432> 663 76<35.2824 122.949>
VStem: 70 174<15.0177 144.453> 100 103<215.645 305> 187 179<444.163 596.586>
LayerCount: 2
Fore
SplineSet
203 305 m 5xd0
 203 270 l 6
 203 223 184.323242188 209 151 209 c 4
 118.342773438 209 100 222 100 270 c 6
 100 310 l 6xd0
 100 395.240837696 187 380.722222222 187 511 c 4
 187 599 139.366233227 646.838975694 73.4072265625 663 c 4
 47.5451512783 669.336627072 32 675.559570312 32 702 c 4
 32 724.451171875 47.087890625 739 82 739 c 4
 228.884856327 739 366 676 366 533 c 4xc8
 366 382.085650429 203 305 203 305 c 5xd0
EndSplineSet
Refer: 38 46 S 1 0 0 1 37 0 2
Validated: 1
EndChar

StartChar: equal
Encoding: 61 61 75
Width: 400
Flags: W
HStem: 224.011 90<14.2175 385.782> 384.011 90<14.2175 385.782>
LayerCount: 2
Fore
SplineSet
69 224.010742188 m 2
 21 224.010742188 10 238.353515625 10 271.010742188 c 0
 10 301.129882812 22 314.010742188 69 314.010742188 c 2
 331 314.010742188 l 2
 378 314.010742188 390 301.129882812 390 271.010742188 c 0
 390 238.353515625 379 224.010742188 331 224.010742188 c 2
 69 224.010742188 l 2
69 384.010742188 m 6
 21 384.010742188 10 398.353515625 10 431.010742188 c 4
 10 461.129882812 22 474.010742188 69 474.010742188 c 6
 331 474.010742188 l 6
 378 474.010742188 390 461.129882812 390 431.010742188 c 4
 390 398.353515625 379 384.010742188 331 384.010742188 c 6
 69 384.010742188 l 6
EndSplineSet
Validated: 1
EndChar

StartChar: less
Encoding: 60 60 76
Width: 400
Flags: W
HStem: 172.995 93.4971<342.81 379.273>
LayerCount: 2
Fore
SplineSet
387.7578125 225.682617188 m 4
 387.7578125 198.125976562 368.377929688 172.995117188 347.127929688 172.995117188 c 4
 337.754882812 172.995117188 326.256835938 175.918945312 312.028320312 181.919921875 c 6
 64.6787109375 286.250976562 l 6
 29.2587890625 301.19140625 12.2421875 314.458007812 12.2421875 349.010742188 c 4
 12.2421875 379.866210938 30.00390625 397.14453125 64.6787109375 411.770507812 c 6
 312.028320312 516.1015625 l 6
 326.98046875 522.408203125 338.858398438 525.470703125 348.368164062 525.470703125 c 4
 369.163085938 525.470703125 387.163085938 501.114257812 387.163085938 472.975585938 c 4
 387.163085938 455.426757812 374.502929688 443.596679688 342.809570312 431.529296875 c 6
 126.091796875 349.010742188 l 5
 342.809570312 266.4921875 l 6
 374.982421875 254.2421875 387.7578125 242.642578125 387.7578125 225.682617188 c 4
EndSplineSet
Validated: 1
EndChar

StartChar: greater
Encoding: 62 62 77
Width: 400
Flags: W
HStem: 172.995 93.4971<20.7274 57.1895>
LayerCount: 2
Fore
SplineSet
12.2421875 225.682617188 m 4
 12.2421875 242.642578125 25.017578125 254.2421875 57.189453125 266.4921875 c 6
 273.908203125 349.010742188 l 1
 57.189453125 431.529296875 l 6
 25.49609375 443.596679688 12.837890625 455.426757812 12.837890625 472.975585938 c 4
 12.837890625 501.114257812 30.8359375 525.470703125 51.630859375 525.470703125 c 4
 61.142578125 525.470703125 73.01953125 522.408203125 87.970703125 516.1015625 c 6
 335.3203125 411.770507812 l 2
 369.99609375 397.14453125 387.7578125 379.866210938 387.7578125 349.010742188 c 0
 387.7578125 314.458007812 370.7421875 301.19140625 335.3203125 286.250976562 c 2
 87.970703125 181.919921875 l 6
 73.744140625 175.918945312 62.244140625 172.995117188 52.87109375 172.995117188 c 4
 31.62109375 172.995117188 12.2421875 198.125976562 12.2421875 225.682617188 c 4
EndSplineSet
Validated: 1
EndChar

StartChar: parenleft
Encoding: 40 40 78
Width: 403
Flags: W
HStem: -193.994 980.996<196.918 348.947>
VStem: 30 179<105.25 467.72>
LayerCount: 2
Fore
SplineSet
209 277.700195312 m 0
 209 49.81640625 261.4765625 -52.853515625 316 -102.716796875 c 0
 340.851530219 -125.444249464 363 -135.4375 363 -162.994140625 c 0
 363 -180.590820312 348.947265625 -193.994140625 324 -193.994140625 c 0
 186.212890625 -193.994140625 30 -10.5525579597 30 278 c 0
 30 611.823520239 196.91796875 787.001953125 345 787.001953125 c 0
 369.947265625 787.001953125 383 773.384765625 383 757.001953125 c 0
 383 733.0390625 365.212890625 723.092773438 345.666015625 707.772460938 c 0
 276.018554688 653.184570312 209 538.955078125 209 277.700195312 c 0
EndSplineSet
Validated: 1
EndChar

StartChar: parenright
Encoding: 41 41 79
Width: 403
Flags: W
HStem: -193.994 980.996<54.0527 206.082>
VStem: 194 179<105.25 467.72>
LayerCount: 2
Fore
SplineSet
194 277.700195312 m 4
 194 538.955078125 126.981445312 653.184570312 57.333984375 707.772460938 c 4
 37.787109375 723.092773438 20 733.0390625 20 757.001953125 c 4
 20 773.384765625 33.052734375 787.001953125 58 787.001953125 c 4
 206.08203125 787.001953125 373 611.823242188 373 278 c 4
 373 -10.552734375 216.787109375 -193.994140625 79 -193.994140625 c 4
 54.052734375 -193.994140625 40 -180.590820312 40 -162.994140625 c 4
 40 -135.4375 62.1484375 -125.444335938 87 -102.716796875 c 4
 141.5234375 -52.853515625 194 49.81640625 194 277.700195312 c 4
EndSplineSet
Validated: 1
EndChar

StartChar: bracketleft
Encoding: 91 91 81
Width: 377
Flags: W
HStem: -184 98<215 340.72> 687 98<215 350.72>
VStem: 45 170<-86 687>
LayerCount: 2
Fore
SplineSet
215 -86 m 1
 286 -86 l 6
 333.103515625 -86 347 -102.880859375 347 -133 c 4
 347 -165.657226562 333.510742188 -184 286 -184 c 6
 138 -184 l 2
 78.4033203125 -184 45 -157.581054688 45 -88 c 2
 45 689 l 2
 45 758.581054688 78.4033203125 785 138 785 c 2
 296 785 l 2
 343.510742188 785 357 766.657226562 357 734 c 0
 357 703.880859375 343.103515625 687 296 687 c 2
 215 687 l 1
 215 -86 l 1
EndSplineSet
Validated: 1
EndChar

StartChar: bracketright
Encoding: 93 93 82
Width: 377
Flags: W
HStem: -184 98<36.2805 162> 687 98<26.2805 162>
VStem: 162 170<-86 687>
LayerCount: 2
Fore
SplineSet
162 -86 m 5
 162 687 l 5
 81 687 l 6
 33.896484375 687 20 703.880859375 20 734 c 4
 20 766.657226562 33.4892578125 785 81 785 c 6
 239 785 l 6
 298.596679688 785 332 758.581054688 332 689 c 6
 332 -88 l 6
 332 -157.581054688 298.596679688 -184 239 -184 c 6
 91 -184 l 6
 43.4892578125 -184 30 -165.657226562 30 -133 c 4
 30 -102.880859375 43.896484375 -86 91 -86 c 6
 162 -86 l 5
EndSplineSet
Validated: 1
EndChar

StartChar: dollar
Encoding: 36 36 83
Width: 375
Flags: W
HStem: -114 186<141.92 230.333> -10.2998 21G<89.5439 165.528 89.5439 165.528> 662 173<157.667 246.08> 719 20G<224.472 305.456>
VStem: 35 189<452.826 622.668> 135 103<-107.355 72> 150 103<662 828.355> 151 189<101.794 251.37>
LayerCount: 2
Fore
SplineSet
238 -53 m 6x84
 238 -100 219.323242188 -114 186 -114 c 4
 153.342773438 -114 135 -101 135 -53 c 6
 135 72 l 5
 238 72 l 5
 238 -53 l 6x84
150 662 m 5x22
 150 774 l 6
 150 821 168.676757812 835 202 835 c 4
 234.657226562 835 253 822 253 774 c 6
 253 662 l 5
 150 662 l 5x22
EndSplineSet
Refer: 15 83 N 1 0 0 1 0 0 2
Validated: 5
EndChar

StartChar: ampersand
Encoding: 38 38 84
Width: 581
Flags: W
HStem: -10 21G<269.541 429.798> 327 90<283.949 405 493 566.782> 327 72<346 468> 663 76<300.941 417.718>
VStem: 30 186<135.253 286.017> 45 179<469.948 604.112> 325 168<82 378.935>
LayerCount: 2
Fore
SplineSet
325 326.998046875 m 2xda
 325 380.419921875 346 399 412 399 c 0xba
 468 399 493 378.934570312 493 327 c 2
 493 71 l 2
 493 32.6005859375 459.596679688 -10 400 -10 c 0
 139.081255008 -10 30 75 30 212 c 0xda
 30 332.649414062 160 382 160 382 c 1
 160 382 45 431.590820312 45 542 c 0
 45 676.359375 202.392578125 739 371 739 c 0
 405.912109375 739 421 724.451171875 421 702 c 0
 421 675.559570312 405.901816019 667.100964582 379.592773438 663 c 0
 284.069335938 648.110129617 224 613.910452178 224 541 c 0xd6
 224 461.915570175 275.34755924 417 405 417 c 2
 512 417 l 2
 559 417 571 404.119140625 571 374 c 0
 571 341.342773438 560 327 512 327 c 2
 375 327 l 2
 258.684570312 327 216 291 216 218 c 0
 216 88.375 325 82 325 82 c 1
 325 326.998046875 l 2xda
EndSplineSet
Validated: 5
EndChar

StartChar: percent
Encoding: 37 37 85
Width: 869
Flags: W
HStem: -10 79.9004<636.066 689.688> -9.99805 21G<175.416 197.471> 299.033 79.9004<635.711 692.524> 350.059 79.9004<177.066 230.688> 659.092 79.9004<176.711 233.524> 718.992 20G<671.529 693.584>
VStem: 30 133<439.2 650.356> 247 133<442.181 647.666> 489 133<79.1412 290.297> 706 133<82.1224 287.608>
LayerCount: 2
Fore
SplineSet
622 193.233398438 m 0xa3c0
 622 104.107421875 636.510742188 69.900390625 662.400390625 69.900390625 c 0
 690.318359375 69.900390625 706 103.529296875 706 193.233398438 c 0
 706 263.8046875 690.318359375 299.033203125 662.400390625 299.033203125 c 0
 636.510742188 299.033203125 622 263.150390625 622 193.233398438 c 0xa3c0
489 197.93359375 m 0
 489 319.928710938 551.137716658 378.93359375 662 378.93359375 c 0
 775.338861965 378.93359375 839 321.072265625 839 197.93359375 c 0
 839 49.21484375 775.338861965 -10 662 -10 c 0
 551.137716658 -10 489 50.1728515625 489 197.93359375 c 0
163 553.291992188 m 0
 163 464.166015625 177.510742188 429.958984375 203.400390625 429.958984375 c 0
 231.318359375 429.958984375 247 463.587890625 247 553.291992188 c 0
 247 623.86328125 231.318359375 659.091796875 203.400390625 659.091796875 c 0x1bc0
 177.510742188 659.091796875 163 623.208984375 163 553.291992188 c 0
30 557.9921875 m 0
 30 679.987304688 92.1377166581 738.9921875 203 738.9921875 c 0
 316.338861965 738.9921875 380 681.130859375 380 557.9921875 c 0
 380 409.2734375 316.338861965 350.05859375 203 350.05859375 c 0
 92.1377166581 350.05859375 30 410.231445312 30 557.9921875 c 0
EndSplineSet
Refer: 164 8260 S 1 0 0 1 271.5 0 2
EndChar

StartChar: grave
Encoding: 96 96 86
Width: 202
Flags: W
HStem: 537.99 201.002<70.0049 132.694>
VStem: 20 163.037
LayerCount: 2
Fore
SplineSet
183.037109375 578.567382812 m 0
 183.037109375 559.814453125 155.9609375 537.990234375 132.694335938 537.990234375 c 0
 117.811523438 537.990234375 104.940108673 548.326905349 88.05859375 575 c 2
 36.5869140625 656.326171875 l 2
 25.0807156779 674.506170529 20 686.499023438 20 696.955078125 c 0
 20 716.028320312 47.31640625 738.9921875 70.0048828125 738.9921875 c 0
 84.5615234375 738.9921875 97.3527070023 728.463947223 114.528320312 701.326171875 c 2
 166 620 l 2
 177.854688571 601.269380637 183.037109375 589.0546875 183.037109375 578.567382812 c 0
EndSplineSet
Validated: 1
EndChar

StartChar: numbersign
Encoding: 35 35 87
Width: 643
Flags: W
HStem: -9.88086 21G<126.809 152.985 342.809 368.985> 201 98<16.1045 566.895> 444 98<76.1045 626.895> 718.881 20G<266 296.078 482 512.078>
LayerCount: 2
Fore
SplineSet
498 738.880859375 m 0
 526.155273438 738.880859375 555.25390625 725.24609375 555.25390625 697 c 0
 555.25390625 688 551.497070312 673.8046875 548.060546875 659.235351562 c 2
 400.727539062 34.537109375 l 2
 393.116210938 2.265625 379.197265625 -9.880859375 358.772460938 -9.880859375 c 0
 326.844726562 -9.880859375 297.74609375 6.75390625 297.74609375 31.99609375 c 0
 297.74609375 41.3759765625 300.502929688 55.1953125 303.939453125 69.7646484375 c 2
 451.272460938 694.462890625 l 2
 458.883789062 726.734375 466 738.880859375 498 738.880859375 c 0
73 201 m 2
 21.7457627119 201 10 219.342773438 10 252 c 0
 10 282.119140625 22.813559322 299 73 299 c 2
 510 299 l 6
 560.186440678 299 573 282.119140625 573 252 c 0
 573 219.342773438 561.254237288 201 510 201 c 6
 73 201 l 2
133 444 m 2
 81.7457627119 444 70 462.342773438 70 495 c 0
 70 525.119140625 82.813559322 542 133 542 c 2
 570 542 l 6
 620.186440678 542 633 525.119140625 633 495 c 0
 633 462.342773438 621.254237288 444 570 444 c 6
 133 444 l 2
282 738.880859375 m 0
 310.155273438 738.880859375 339.25390625 725.24609375 339.25390625 697 c 0
 339.25390625 688 335.497070312 673.8046875 332.060546875 659.235351562 c 2
 184.727539062 34.537109375 l 2
 177.116210938 2.265625 163.197265625 -9.880859375 142.772460938 -9.880859375 c 0
 110.844726562 -9.880859375 81.74609375 6.75390625 81.74609375 31.99609375 c 0
 81.74609375 41.3759765625 84.5029296875 55.1953125 87.939453125 69.7646484375 c 2
 235.272460938 694.462890625 l 2
 242.883789062 726.734375 250 738.880859375 282 738.880859375 c 0
EndSplineSet
Validated: 5
EndChar

StartChar: underscore
Encoding: 95 95 88
Width: 581
Flags: W
HStem: -90 90<14.2175 566.782>
LayerCount: 2
Fore
SplineSet
69 -90 m 2
 21 -90 10 -75.6572265625 10 -43 c 0
 10 -12.880859375 22 0 69 0 c 2
 512 0 l 6
 559 0 571 -12.880859375 571 -43 c 4
 571 -75.6572265625 560 -90 512 -90 c 6
 69 -90 l 2
EndSplineSet
Validated: 1
EndChar

StartChar: asciicircum
Encoding: 94 94 89
Width: 491
Flags: W
HStem: 415.717 323.275
LayerCount: 2
Fore
SplineSet
471.17578125 461.854492188 m 0
 471.17578125 442.688476562 441.498046875 415.716796875 418.627929688 415.716796875 c 0
 403.697265625 415.716796875 390.50390625 430.645507812 372.471679688 453.288085938 c 2
 245.587890625 612.607421875 l 1
 118.704101562 453.288085938 l 2
 100.671875 430.645507812 87.478515625 415.716796875 72.5478515625 415.716796875 c 0
 49.677734375 415.716796875 20 442.688476562 20 461.854492188 c 0
 20 472.9375 26.0966796875 487.8828125 41.29296875 507.491210938 c 2
 193.663085938 704.098632812 l 2
 209.640625 730.220703125 222.693359375 738.9921875 245.587890625 738.9921875 c 0
 268.581054688 738.9921875 281.46484375 730.333984375 297.512695312 704.098632812 c 2
 449.8828125 507.491210938 l 2
 465.079101562 487.8828125 471.17578125 472.9375 471.17578125 461.854492188 c 0
EndSplineSet
Validated: 1
EndChar

StartChar: sterling
Encoding: 163 163 90
Width: 495
Flags: W
HStem: 0 90<213.824 480.782> 326 90<41.2175 403.782> 719 20G<316.443 398.456>
VStem: 107 192<207.239 608.113>
LayerCount: 2
Fore
SplineSet
96 326 m 6
 48 326 37 340.342773438 37 373 c 4
 37 403.119140625 49 416 96 416 c 6
 349 416 l 6
 396 416 408 403.119140625 408 373 c 4
 408 340.342773438 397 326 349 326 c 6
 96 326 l 6
213.82421875 90 m 5
 426 90 l 6
 473 90 485 77.119140625 485 47 c 4
 485 14.3427734375 474 -5.87377368966e-15 426 0 c 6
 83 0 l 6
 23.6103515625 0 10 15.8681640625 10 52 c 4
 10 122 88.4142938481 136.223462247 98.470703125 279.568359375 c 4
 102.298103878 328.584111963 107 411.042982942 107 489.010742188 c 4
 107 709.833281112 251.88671875 739 381 739 c 4
 415.912109375 739 431 724.451171875 431 702 c 4
 431 630 299 702 299 508.93359375 c 4
 299 418.570481918 297.0625 370.15625 291.772460938 273.7421875 c 4
 284.451171875 140.314453125 213.82421875 90 213.82421875 90 c 5
EndSplineSet
Validated: 5
EndChar

StartChar: at
Encoding: 64 64 91
Width: 964
Flags: W
HStem: -168 87.7998<383.159 723.74> 87.0127 28.9873<497.5 665.5> 289.143 65.8018<431.384 537.297> 478.944 76<355.782 446.654> 667.2 92.7998<363.314 624.347>
VStem: 30 99.7998<158.699 432.953> 301.5 100<152.68 261.886> 497.5 168<87.0127 289.143 319.193 426.545> 497.5 54.417<297.04 347.219> 835.5 98.5<236.22 469.366>
LayerCount: 2
Back
SplineSet
501 -98 m 0
 203.0859375 -98 30 110 30 366 c 0
 30 622 203.0859375 830 501 830 c 0
 798.9140625 830 972 622 972 366 c 0
 972 110 798.9140625 -98 501 -98 c 0
501 737.200195312 m 0
 264.200195312 737.200195312 129.799804688 570.799804688 129.799804688 366 c 0
 129.799804688 161.200195312 264.200195312 -5.2001953125 501 -5.2001953125 c 0
 737.799804688 -5.2001953125 872.200195312 161.200195312 872.200195312 366 c 0
 872.200195312 570.799804688 737.799804688 737.200195312 501 737.200195312 c 0
EndSplineSet
Fore
SplineSet
665.5 87.0126953125 m 25xff40
 497.5 84 l 1xfec0
 497.5 343.010742188 l 2
 497.5 436.010742188 456.928710938 468.346679688 393.907226562 478.944335938 c 0
 367.6484375 483.360351562 352.5 491.50390625 352.5 517.944335938 c 0
 352.5 540.395507812 367.587890625 554.944335938 402.5 554.944335938 c 0
 538.5234375 554.944335938 665.5 505.010742188 665.5 302.012695312 c 2
 665.5 87.0126953125 l 25xff40
579.5 116 m 0
 762.838345865 116 835.5 199 835.5 352 c 0
 835.5 531.14453125 701.467778948 667.200195312 491 667.200195312 c 0
 260.579497039 667.200195312 129.799804688 500.799804688 129.799804688 296 c 0
 129.799804688 91.2001953125 254.200195312 -80.2001953125 531 -80.2001953125 c 0
 744 -80.2001953125 768.15234375 -30 817 -30 c 0
 836.15234375 -30 851 -44 851 -66 c 0
 851 -126.863106864 695.5 -168 531 -168 c 0
 193.0859375 -168 30 40 30 296 c 0
 30 552 199.411076831 760 491 760 c 0
 766.11683611 760 934 560.0859375 934 356 c 0
 934 159 826.960969044 36.0126953125 572.5 36.0126953125 c 0
 408.563476562 36.0126953125 301.5 94.5195312502 301.5 206.012695312 c 0
 301.5 289.297851562 367.768554688 354.944335938 507.5 354.944335938 c 0
 537.296875 354.944335938 551.916992188 347.21875 551.916992188 319.193359375 c 0
 551.916992188 297.040039062 538.217773438 289.142578125 511.5 289.142578125 c 0
 450.359375 289.142578125 401.5 268.010742188 401.5 206.3125 c 0
 401.5 148 449 116 579.5 116 c 0
EndSplineSet
Validated: 5
EndChar

StartChar: cent
Encoding: 162 162 92
Width: 339
Flags: W
HStem: -7.07031 162.201<165.468 248.6> 80 75.2773<240.23 312.934> 529.704 69.2295<240.307 316.784> 544.85 145.221<179.4 262.532>
VStem: 30 166<240.204 463.102> 159.626 94.9248<-1.78527 155.131> 173.449 94.9248<544.85 684.785>
LayerCount: 2
Fore
SplineSet
254.55078125 49.1474609375 m 2x84
 254.55078125 5.83203125 237.337890625 -7.0703125 206.627929688 -7.0703125 c 0
 176.530273438 -7.0703125 159.625976562 4.91015625 159.625976562 49.1474609375 c 2
 159.625976562 155.130859375 l 1
 254.55078125 155.130859375 l 1
 254.55078125 49.1474609375 l 2x84
173.44921875 544.849609375 m 1x12
 173.44921875 633.852539062 l 6
 173.44921875 677.16796875 190.662109375 690.0703125 221.372070312 690.0703125 c 4
 251.469726562 690.0703125 268.374023438 678.08984375 268.374023438 633.852539062 c 6
 268.374023438 544.849609375 l 1
 173.44921875 544.849609375 l 1x12
EndSplineSet
Refer: 46 99 N 1 0 0 1 0 90 2
Validated: 5
EndChar

StartChar: yen
Encoding: 165 165 93
Width: 479
Flags: W
HStem: -10 21G<209.28 270.134 209.28 270.134> 114.011 90<46.2175 437.782> 248 181<179.481 301.19> 254.011 90<46.2175 437.782> 719.021 19.9785G<81.6519 144.85 397.489 431.449>
VStem: 146.078 190<10.9332 405.991> 345.029 114.451<643.021 702.48>
LayerCount: 2
Fore
SplineSet
101 114.010742188 m 6xce
 53 114.010742188 42 128.353515625 42 161.010742188 c 4
 42 191.129882812 54 204.010742188 101 204.010742188 c 6
 383 204.010742188 l 6
 430 204.010742188 442 191.129882812 442 161.010742188 c 4
 442 128.353515625 431 114.010742188 383 114.010742188 c 6
 101 114.010742188 l 6xce
101 254.010742188 m 6xde
 53 254.010742188 42 268.353515625 42 301.010742188 c 4
 42 331.129882812 54 344.010742188 101 344.010742188 c 6
 383 344.010742188 l 6
 430 344.010742188 442 331.129882812 442 301.010742188 c 4
 442 268.353515625 431 254.010742188 383 254.010742188 c 6
 101 254.010742188 l 6xde
EndSplineSet
Refer: 25 89 N 1 0 0 1 0 0 2
Validated: 5
EndChar

StartChar: brokenbar
Encoding: 166 166 94
Width: 193
Flags: W
HStem: -194 21G<79.6714 112.662>
VStem: 45 103<-187.355 258.355 342.645 788.355>
LayerCount: 2
Fore
SplineSet
148 -133 m 2
 148 -180 129.323242188 -194 96 -194 c 0
 63.3427734375 -194 45 -181 45 -133 c 2
 45 204 l 6
 45 251 63.6767578125 265 97 265 c 4
 129.657226562 265 148 252 148 204 c 6
 148 -133 l 2
148 397 m 2
 148 350 129.323242188 336 96 336 c 0
 63.3427734375 336 45 349 45 397 c 2
 45 734 l 2
 45 781 63.6767578125 795 97 795 c 0
 129.657226562 795 148 782 148 734 c 2
 148 397 l 2
EndSplineSet
Validated: 1
EndChar

StartChar: section
Encoding: 167 167 95
Width: 384
Flags: W
VStem: 35 186.8<534.778 658.268> 162.601 186.8<74.5518 198.042>
LayerCount: 2
Fore
SplineSet
349.400390625 373.118164062 m 0x40
 349.400390625 347.565429688 331.400390625 339.381835938 314.600585938 339.381835938 c 0
 291.330078125 339.381835938 232.033203125 381.508789062 175.400390625 419.91796875 c 0
 106.212890625 466.841796875 35 528.774414062 35 609.517578125 c 0
 35 736.203125 158.654296875 777.438476562 283.400390625 777.438476562 c 0
 325.294921875 777.438476562 343.400390625 762.338867188 343.400390625 739.038085938 c 0
 343.400390625 693.122070312 221.799804688 703.702148438 221.799804688 592.102539062 c 0x80
 221.799804688 530.90234375 242.600585938 492.90234375 297.799804688 445.118164062 c 0
 336.41796875 411.689453125 349.400390625 394.717773438 349.400390625 373.118164062 c 0x40
35 359.702148438 m 0
 35 385.254882812 53 393.438476562 69.7998046875 393.438476562 c 0
 93.0703125 393.438476562 152.3671875 351.311523438 209 312.90234375 c 0
 278.1875 265.978515625 349.400390625 204.045898438 349.400390625 123.302734375 c 0
 349.400390625 -3.3828125 225.74609375 -44.6181640625 101 -44.6181640625 c 0
 59.10546875 -44.6181640625 41 -29.5185546875 41 -6.2177734375 c 0
 41 39.6982421875 162.600585938 29.1181640625 162.600585938 140.717773438 c 0x40
 162.600585938 201.91796875 141.799804688 239.91796875 86.6005859375 287.702148438 c 0
 47.982421875 321.130859375 35 338.102539062 35 359.702148438 c 0
EndSplineSet
Validated: 1
EndChar

StartChar: asterisk
Encoding: 42 42 96
Width: 328
Flags: W
HStem: 437.797 301.195
VStem: 9.99997 308.622<597.507 645.634>
LayerCount: 2
Fore
SplineSet
84.6905914101 437.797175999 m 0
 70.0273226208 437.797175999 57.9990333081 449.688555958 57.9990333081 464.537209713 c 0
 57.9990333081 467.030671415 58.3465939038 469.535995648 59.0546829398 471.976585042 c 2
 81.62109375 549.756835938 l 1
 20.5703125 597.262695312 l 2
 13.9259841919 602.433896059 9.99996651068 610.452001733 9.99996651068 618.881101368 c 0
 9.99996651068 633.896342255 22.1491366729 646.092567493 37.12109375 646.235351562 c 2
 113.204101562 646.9609375 l 1
 138.67578125 720.720703125 l 2
 142.345703125 731.349609375 152.446289062 738.9921875 164.31640625 738.9921875 c 0
 176.188476562 738.9921875 186.270507812 731.349609375 189.942382812 720.720703125 c 2
 215.413085938 646.9609375 l 1
 291.497070312 646.235351562 l 2
 306.454200112 646.092128529 318.62237732 633.888751215 318.62237732 618.872605392 c 0
 318.62237732 610.446003671 314.693254103 602.434750512 308.044922297 597.262692595 c 0
 308.044922297 597.241536495 246.997070312 549.756835938 246.997070312 549.756835938 c 1
 269.563476562 471.9765625 l 2
 270.270627666 469.539607579 270.617449608 467.037622839 270.617449608 464.54714919 c 0
 270.617449608 449.713634156 258.603961215 437.792574583 243.931348836 437.792574583 c 0
 238.29915821 437.792574583 232.72598652 439.569271108 228.093745278 442.961912823 c 2
 164.307617188 489.678710938 l 1
 100.524414062 442.961914062 l 2
 95.8951866472 439.570671445 90.3222517529 437.797175999 84.6905914101 437.797175999 c 0
EndSplineSet
Validated: 1
EndChar

StartChar: braceleft
Encoding: 123 123 97
Width: 417
Flags: W
HStem: -184 98<296.097 380.251> 259.011 90<15.0264 98.8358> 687 98<297.785 390.063>
VStem: 105 170<-67.7977 252.56 353.38 664.065>
LayerCount: 2
Fore
SplineSet
275 34 m 6
 275 -51.2939453125 284.852716619 -82 340 -86 c 0
 366.197265625 -88.24609375 387 -102.880859375 387 -133 c 0
 387 -165.657226562 375.721679688 -184 336 -184 c 0
 187.969691212 -184 105 -124.557617188 105 32 c 6
 105 200 l 6
 105 247.975585938 86.3599964489 259.010742188 60 259.010742188 c 0
 31.111328125 259.010742188 10 269.010742188 10 306.010742188 c 0
 10 339.010742188 30 349.010742188 60 349.010742188 c 0
 86.3599964489 349.010742188 105 357.135742188 105 406 c 6
 105 579 l 6
 105 728.309570312 191.561489617 785 346 785 c 0
 385.721679688 785 397 766.657226562 397 734 c 0
 397 703.880859375 375.736328125 689.37109375 348 687 c 0
 293.789760045 683 275 652.293945312 275 567 c 6
 275 439 l 6
 275 330.724609375 215 311 215 311 c 5
 215 311 275 287.666992188 275 181 c 6
 275 34 l 6
EndSplineSet
Validated: 1
EndChar

StartChar: braceright
Encoding: 125 125 98
Width: 417
Flags: W
HStem: -184 98<36.7485 120.903> 259.011 90<318.164 401.974> 687 98<26.937 119.215>
VStem: 142 170<-67.7977 252.56 353.38 664.065>
LayerCount: 2
Fore
SplineSet
142 34 m 6
 142 181 l 6
 142 287.666992188 202 311 202 311 c 5
 202 311 142 330.724609375 142 439 c 6
 142 567 l 6
 142 652.293945312 123.210239955 683 69 687 c 0
 41.263671875 689.37109375 20 703.880859375 20 734 c 0
 20 766.657226562 31.2783203125 785 71 785 c 0
 225.438510383 785 312 728.309570312 312 579 c 6
 312 406 l 6
 312 357.135742188 330.640003551 349.010742188 357 349.010742188 c 0
 387 349.010742188 407 339.010742188 407 306.010742188 c 0
 407 269.010742188 385.888671875 259.010742188 357 259.010742188 c 0
 330.640003551 259.010742188 312 247.975585938 312 200 c 6
 312 32 l 6
 312 -124.557617188 229.030308788 -184 81 -184 c 0
 41.2783203125 -184 30 -165.657226562 30 -133 c 0
 30 -102.880859375 50.802734375 -88.24609375 77 -86 c 0
 132.147283381 -82 142 -51.2939453125 142 34 c 6
EndSplineSet
Validated: 1
EndChar

StartChar: asciitilde
Encoding: 126 126 99
Width: 499
Flags: W
HStem: 311.85 89<281.242 415.406> 367.85 89<98.9874 237.769>
LayerCount: 2
Fore
SplineSet
348.30078125 311.849609375 m 0x80
 261.740997998 311.849609375 233.835933346 367.849609375 163 367.849609375 c 0
 89.1316547653 367.849609375 88.0630008013 313.849609375 47 313.849609375 c 0
 30.6167124155 313.849609375 20 322.90234375 20 343.849609375 c 0
 20 400.597355175 67.6091188723 456.849609375 161 456.849609375 c 0x40
 266.901734104 456.849609375 283.028901734 400.849609375 347 400.849609375 c 0
 402.955883699 400.849609375 417.673280208 434.849609375 452.30078125 434.849609375 c 0
 468.684068834 434.849609375 479.30078125 425.796875 479.30078125 404.849609375 c 0
 479.30078125 358.127820715 417.781381675 311.849609375 348.30078125 311.849609375 c 0x80
EndSplineSet
Validated: 1
EndChar

StartChar: currency
Encoding: 164 164 100
Width: 495
Flags: W
HStem: 140 83.9004<185.289 311.852> 455.033 83.9004<181.26 311.852>
VStem: 60.5303 91<259.092 424.429> 347.53 91<261.389 424.778>
LayerCount: 2
Fore
SplineSet
91.0751953125 222.145507812 m 2
 108.695345869 239.838833956 122.196289062 247.836914062 134.442382812 247.836914062 c 0
 153.7109375 247.836914062 180.97265625 221.209960938 180.97265625 202.389648438 c 0
 180.97265625 190.293945312 172.846138772 176.712452741 154.71484375 158.505859375 c 2
 109.331054688 112.93359375 l 2
 91.212017077 94.7393087 77.59765625 86.6298828125 65.49609375 86.6298828125 c 0
 46.69140625 86.6298828125 20 113.92578125 20 133.15625 c 0
 20 145.372070312 28.0211428833 158.829595118 45.69140625 176.573242188 c 2
 91.0751953125 222.145507812 l 2
404.786132812 222.145507812 m 2
 450.169921875 176.573242188 l 2
 467.840185242 158.829595118 475.861328125 145.373046875 475.861328125 133.15625 c 0
 475.861328125 113.92578125 449.169921875 86.6298828125 430.365234375 86.6298828125 c 0
 418.264648438 86.6298828125 404.649309029 94.7393107278 386.530273438 112.93359375 c 2
 341.146484375 158.505859375 l 2
 323.014701076 176.712943046 314.888671875 190.293945312 314.888671875 202.390625 c 0
 314.888671875 221.2109375 342.150390625 247.836914062 361.418945312 247.836914062 c 0
 373.666015625 247.836914062 387.165982256 239.838833956 404.786132812 222.145507812 c 2
91.0751953125 466.788085938 m 2
 45.69140625 512.360351562 l 2
 28.0211428833 530.103998632 20 543.561523438 20 555.77734375 c 0
 20 575.0078125 46.69140625 602.303710938 65.49609375 602.303710938 c 0
 77.59765625 602.303710938 91.212017077 594.19428505 109.331054688 576 c 2
 154.71484375 530.427734375 l 2
 172.846138772 512.221141009 180.97265625 498.639648438 180.97265625 486.543945312 c 0
 180.97265625 467.723632812 153.7109375 441.096679688 134.442382812 441.096679688 c 0
 122.196289062 441.096679688 108.695345869 449.094759794 91.0751953125 466.788085938 c 2
404.786132812 466.788085938 m 2
 387.165982256 449.094759794 373.666015625 441.096679688 361.418945312 441.096679688 c 0
 342.150390625 441.096679688 314.888671875 467.723632812 314.888671875 486.543945312 c 0
 314.888671875 498.639648438 323.015189353 512.221141009 341.146484375 530.427734375 c 2
 386.530273438 576 l 2
 404.649797306 594.194773327 418.264648438 602.303710938 430.365234375 602.303710938 c 0
 449.169921875 602.303710938 475.861328125 575.0078125 475.861328125 555.77734375 c 0
 475.861328125 543.561523438 467.840185242 530.103998632 450.169921875 512.360351562 c 2
 404.786132812 466.788085938 l 2
151.530273438 353.233398438 m 4
 151.530273438 259.771745145 186.155110778 223.900390625 247.930664062 223.900390625 c 4
 311.707258319 223.900390625 347.530273438 259.165223012 347.530273438 353.233398438 c 4
 347.530273438 421.137314894 311.707258319 455.033203125 247.930664062 455.033203125 c 4
 186.155110778 455.033203125 151.530273438 420.506684927 151.530273438 353.233398438 c 4
60.5302734375 357.93359375 m 4
 60.5302734375 479.928755511 127.696345675 538.93359375 247.530273438 538.93359375 c 4
 369.833956605 538.93359375 438.530273438 481.07218053 438.530273438 357.93359375 c 4
 438.530273438 202.06272519 369.833956605 140 247.530273438 140 c 4
 127.696345675 140 60.5302734375 203.066614599 60.5302734375 357.93359375 c 4
EndSplineSet
Validated: 5
EndChar

StartChar: dieresis
Encoding: 168 168 101
Width: 390
Flags: W
HStem: 599.992 139<46.9118 152.221 236.912 342.221>
VStem: 33 134<614.519 724.126> 223 134<614.519 724.126>
LayerCount: 2
Fore
SplineSet
223 667.9921875 m 4
 223 715.16250434 246.346354167 738.9921875 288 738.9921875 c 4
 332.183147181 738.9921875 357 715.021789819 357 665.9921875 c 4
 357 624.8875 332.183147181 599.9921875 288 599.9921875 c 4
 246.346354167 599.9921875 223 625.901393581 223 667.9921875 c 4
33 667.9921875 m 0
 33 715.16250434 56.3463541667 738.9921875 98 738.9921875 c 0
 142.183147181 738.9921875 167 715.021789819 167 665.9921875 c 0
 167 624.8875 142.183147181 599.9921875 98 599.9921875 c 0
 56.3463541667 599.9921875 33 625.901393581 33 667.9921875 c 0
EndSplineSet
Validated: 1
EndChar

StartChar: copyright
Encoding: 169 169 102
Width: 758
Flags: W
HStem: -9.99805 83.9004<269.581 486.055> 139.8 72.7666<417.727 485.566> 520.062 69.1387<422.835 499.442> 655.092 83.9004<262.265 493.455>
VStem: 30 91<239.804 508.888> 241.6 137.4<271.805 477.762> 637 91<239.102 509.641>
LayerCount: 2
Fore
SplineSet
379 384.419921875 m 0
 379 279.389206837 406.662689073 223.260443512 449.200195312 212.56640625 c 0
 475.528773539 205.947398104 489.400390625 194.896652992 489.400390625 175.200195312 c 0
 489.400390625 153.719910681 476.7265625 139.799804688 447.400390625 139.799804688 c 0
 340.960013248 139.799804688 241.599609375 234.941798502 241.599609375 384.599609375 c 0
 241.599609375 518.784728747 346.75360081 589.200195312 459.400390625 589.200195312 c 0
 488.7265625 589.200195312 501.400390625 575.752028912 501.400390625 555 c 0
 501.400390625 531.313233356 487.149536813 524.815131229 467 520.061523438 c 0
 413.822967407 507.516365121 379 475.433185191 379 384.419921875 c 0
121 393.233398438 m 0
 121 182.470703125 213.093646798 73.90234375 377.400390625 73.90234375 c 0
 543.629155106 73.90234375 637 180.973632812 637 393.233398438 c 0
 637 547.901367188 543.629155106 655.091796875 377.400390625 655.091796875 c 0
 213.093646798 655.091796875 121 546.279296875 121 393.233398438 c 0
30 397.93359375 m 4
 30 607.809570312 154.634264288 738.9921875 377 738.9921875 c 4
 601.757081356 738.9921875 728 609.963867188 728 397.93359375 c 4
 728 126.171875 601.757081356 -9.998046875 377 -9.998046875 c 4
 154.634264288 -9.998046875 30 128.05078125 30 397.93359375 c 4
EndSplineSet
Validated: 1
EndChar

StartChar: registered
Encoding: 174 174 103
Width: 758
Flags: W
HStem: -9.99805 83.9004<269.581 486.055> 309.15 55.0801<343.821 378.8> 655.092 83.9004<262.265 493.455>
VStem: 30 91<239.804 508.888> 241.7 126<151.815 309.15 364.23 518.4> 435.5 79.7998<388.437 501.911> 637 91<239.102 509.641>
LayerCount: 2
Fore
SplineSet
367.700195312 518.400390625 m 13
 367.700195312 209.400390625 l 6
 367.700195312 158.649963379 344.609506106 139.799804688 303.5 139.799804688 c 4
 263.897170272 139.799804688 241.700195312 158.953701288 241.700195312 209.400390625 c 6
 241.700195312 552.599609375 l 6
 241.700195312 580.862171204 257.431961099 589.200195312 285.5 589.200195312 c 4
 424.513598139 589.200195312 515.299804688 542.119012531 515.299804688 452.400390625 c 4
 515.299804688 372.292515166 454.120299258 309.150390625 361.700195312 309.150390625 c 4
 343.821284167 309.150390625 335.048828125 314.304085848 335.048828125 333 c 4
 335.048828125 356.023192913 343.268624177 364.23046875 359.299804688 364.23046875 c 4
 378.799854669 364.23046875 435.5 374.386030294 435.5 452.219726562 c 4
 435.5 517.993665266 367.700195312 518.400390625 367.700195312 518.400390625 c 13
400.670898438 197.400390625 m 6
 353.482421875 333.708984375 l 29
 463.670898438 354.599609375 l 5
 515.603515625 224.939453125 l 6
 521.89439051 209.232557288 524.299804688 197.895380257 524.299804688 187.200195312 c 4
 524.299804688 153.593860524 498.766630245 139.799804688 471.588867188 139.799804688 c 4
 430.18206631 139.799804688 417.562113608 148.60793889 400.670898438 197.400390625 c 6
121 393.233398438 m 4
 121 182.470703125 213.093646798 73.90234375 377.400390625 73.90234375 c 4
 543.629155106 73.90234375 637 180.973632812 637 393.233398438 c 4
 637 547.901367188 543.629155106 655.091796875 377.400390625 655.091796875 c 4
 213.093646798 655.091796875 121 546.279296875 121 393.233398438 c 4
30 397.93359375 m 4
 30 607.809570312 154.634264288 738.9921875 377 738.9921875 c 4
 601.757081356 738.9921875 728 609.963867188 728 397.93359375 c 4
 728 126.171875 601.757081356 -9.998046875 377 -9.998046875 c 4
 154.634264288 -9.998046875 30 128.05078125 30 397.93359375 c 4
EndSplineSet
Validated: 5
EndChar

StartChar: guilsinglleft
Encoding: 8249 8249 105
Width: 289
Flags: W
VStem: 13 263.489
LayerCount: 2
Fore
SplineSet
226.577148438 478.451171875 m 4
 247.53125 478.451171875 276.489257812 449.791015625 276.489257812 429.051757812 c 4
 276.489257812 417.467773438 269.349609375 406.776367188 244.65625 381.380859375 c 6
 139.384765625 273.116210938 l 5
 244.65625 164.8515625 l 6
 269.349609375 139.456054688 276.489257812 128.764648438 276.489257812 117.180664062 c 4
 276.489257812 96.4414062503 247.53125 67.78125 226.577148438 67.78125 c 4
 215.377929688 67.78125 200.262695312 76.765625 181.423828125 94.623046875 c 6
 47.8935546875 221.19140625 l 6
 26.0498046875 242 13 250.221679688 13 273.116210938 c 4
 13 296.109375 26.0498046875 304 47.8935546875 325.041015625 c 6
 181.423828125 451.609375 l 6
 200.262695312 469.466796875 215.377929688 478.451171875 226.577148438 478.451171875 c 4
EndSplineSet
EndChar

StartChar: guilsinglright
Encoding: 8250 8250 106
Width: 289
Flags: W
VStem: 13 263.489
LayerCount: 2
Fore
SplineSet
62.912109375 478.451171875 m 4
 74.1113281249 478.451171875 89.2265624997 469.466796875 108.065429688 451.609375 c 6
 241.595703125 325.041015625 l 6
 263.439453125 304 276.489257812 296.109375 276.489257812 273.116210938 c 4
 276.489257812 250.221679688 263.439453125 242 241.595703125 221.19140625 c 6
 108.065429688 94.623046875 l 6
 89.2265624997 76.765625 74.1113281249 67.78125 62.912109375 67.78125 c 4
 41.9580078125 67.78125 13 96.4414062503 13 117.180664062 c 4
 13 128.764648438 20.1396484375 139.456054688 44.8330078125 164.8515625 c 6
 150.104492188 273.116210938 l 5
 44.8330078125 381.380859375 l 6
 20.1396484375 406.776367188 13 417.467773438 13 429.051757812 c 4
 13 449.791015625 41.9580078125 478.451171875 62.912109375 478.451171875 c 4
EndSplineSet
EndChar

StartChar: logicalnot
Encoding: 172 172 112
Width: 400
Flags: W
HStem: 304.011 90<14.2175 300>
VStem: 300 90<194.228 304.011>
LayerCount: 2
Fore
SplineSet
69 304.010742188 m 2
 21 304.010742188 10 318.353515625 10 351.010742188 c 0
 10 381.129882812 22 394.010742188 69 394.010742188 c 2
 331 394.010742188 l 2
 378 394.010742188 390 381.129882812 390 351.010742188 c 2
 390 249.010742188 l 2
 390 201.010742188 375.657226562 190.010742188 343 190.010742188 c 0
 312.880859375 190.010742188 300 202.010742188 300 249.010742188 c 2
 300 304.010742188 l 1
 69 304.010742188 l 2
EndSplineSet
Validated: 1
EndChar

StartChar: minus
Encoding: 8722 8722 113
Width: 400
Flags: W
HStem: 304.011 90<14.2175 385.782>
LayerCount: 2
Fore
SplineSet
69 304.010742188 m 6
 21 304.010742188 10 318.353515625 10 351.010742188 c 4
 10 381.129882812 22 394.010742188 69 394.010742188 c 6
 331 394.010742188 l 6
 378 394.010742188 390 381.129882812 390 351.010742188 c 4
 390 318.353515625 379 304.010742188 331 304.010742188 c 6
 69 304.010742188 l 6
EndSplineSet
Validated: 1
EndChar

StartChar: macron
Encoding: 175 175 115
Width: 361
Flags: W
HStem: 641.008 90<14.2175 346.782>
LayerCount: 2
Fore
SplineSet
69 641.0078125 m 2
 21 641.0078125 10 655.350585938 10 688.0078125 c 0
 10 718.126953125 22 731.0078125 69 731.0078125 c 2
 292 731.0078125 l 6
 339 731.0078125 351 718.126953125 351 688.0078125 c 4
 351 655.350585938 340 641.0078125 292 641.0078125 c 6
 69 641.0078125 l 2
EndSplineSet
Validated: 1
EndChar

StartChar: degree
Encoding: 176 176 116
Width: 390
Flags: W
HStem: 390.059 79.9004<164.83 223.397> 659.092 79.9004<164.167 223.749>
VStem: 30 123<478.24 652.446> 237 123<478.87 650.038>
LayerCount: 2
Fore
SplineSet
153 573.291992188 m 0
 153 498.618914835 167.510742188 469.958984375 193.400390625 469.958984375 c 4
 221.318359375 469.958984375 237 498.134540083 237 573.291992188 c 4
 237 630.522748293 221.318359375 659.091796875 193.400390625 659.091796875 c 4
 167.510742188 659.091796875 153 629.992137256 153 573.291992188 c 0
30 577.9921875 m 0
 30 686.507181242 88.5459411287 738.9921875 193 738.9921875 c 4
 299.93553643 738.9921875 360 687.524376295 360 577.9921875 c 4
 360 443.577884157 299.93553643 390.05859375 193 390.05859375 c 4
 88.5459411287 390.05859375 30 444.443746415 30 577.9921875 c 0
EndSplineSet
Validated: 1
EndChar

StartChar: plusminus
Encoding: 177 177 117
Width: 400
Flags: W
HStem: 159.011 90<14.2175 155 245 385.782> 169.011 80<167.881 230.657> 324.011 90<14.2175 385.782>
VStem: 155 90<181.011 534.793>
LayerCount: 2
Fore
SplineSet
69 159.010742188 m 2xb0
 21 159.010742188 10 173.353515625 10 206.010742188 c 0
 10 236.129882812 22 249.010742188 69 249.010742188 c 2
 331 249.010742188 l 2
 378 249.010742188 390 236.129882812 390 206.010742188 c 0
 390 173.353515625 379 159.010742188 331 159.010742188 c 2
 69 159.010742188 l 2xb0
245 228.010742188 m 2
 245 180.010742188 230.657226562 169.010742188 198 169.010742188 c 0x70
 167.880859375 169.010742188 155 181.010742188 155 228.010742188 c 2
 155 480.010742188 l 2
 155 527.010742188 167.880859375 539.010742188 198 539.010742188 c 0
 230.657226562 539.010742188 245 528.010742188 245 480.010742188 c 2
 245 228.010742188 l 2
69 324.010742188 m 6
 21 324.010742188 10 338.353515625 10 371.010742188 c 4
 10 401.129882812 22 414.010742188 69 414.010742188 c 6
 331 414.010742188 l 6
 378 414.010742188 390 401.129882812 390 371.010742188 c 4
 390 338.353515625 379 324.010742188 331 324.010742188 c 6
 69 324.010742188 l 6
EndSplineSet
Validated: 5
EndChar

StartChar: acute
Encoding: 180 180 118
Width: 202
Flags: W
HStem: 537.99 201.002<70.3428 133.032>
VStem: 20 163.037
LayerCount: 2
Fore
SplineSet
20 578.567382812 m 0
 20 589.0546875 25.1826171875 601.26953125 37.037109375 620 c 2
 88.5087890625 701.326171875 l 2
 105.684570312 728.463867188 118.475585938 738.9921875 133.032226562 738.9921875 c 0
 155.720703125 738.9921875 183.037109375 716.028320312 183.037109375 696.955078125 c 0
 183.037109375 686.499023438 177.956054688 674.505859375 166.450195312 656.326171875 c 2
 114.978515625 575 l 2
 98.0966796875 548.327148438 85.2255859375 537.990234375 70.3427734375 537.990234375 c 0
 47.076171875 537.990234375 20 559.814453125 20 578.567382812 c 0
EndSplineSet
Validated: 1
EndChar

StartChar: mu
Encoding: 181 181 119
Width: 454
Flags: W
HStem: -194.066 21G<73.7504 109.943> -10 21G<254.032 359.39> 488.934 20G<74.4159 111.838 296.34 354.428>
VStem: 35 113<-186.525 -133.066 263.934 494.245> 65 83<57.9336 490.934> 241 168<88 492.674>
LayerCount: 2
Fore
SplineSet
148 -133.06640625 m 6xf4
 148 -180.06640625 127.88656851 -194.06640625 92 -194.06640625 c 4
 55.5007467831 -194.06640625 35 -181.06640625 35 -133.06640625 c 6
 35 444.93359375 l 6
 35 494.24506916 55.8317683293 508.93359375 93 508.93359375 c 4
 128.218577665 508.93359375 148 495.294249488 148 444.93359375 c 6
 148 -133.06640625 l 6xf4
65 444.93359375 m 2xec
 65 490.93359375 73.4591190733 508.93359375 93 508.93359375 c 0
 130.67578125 508.93359375 148 490.93359375 148 444.93359375 c 2
 148 272.93359375 l 2xf4
 148 89.015625 241 88 241 88 c 1
 241 432.93359375 l 2
 241 487.9296875 266.6796875 508.93359375 326 508.93359375 c 0
 382.856445312 508.93359375 409 487.9296875 409 432.93359375 c 2
 409 51 l 2
 409 3.9365234375 382.780273438 -10 336 -10 c 0
 172.063041813 -10 65 57.93359375 65 263.93359375 c 2
 65 444.93359375 l 2xec
EndSplineSet
Validated: 5
EndChar

StartChar: cedilla
Encoding: 184 184 121
Width: 243
Flags: W
HStem: -245.707 73.1494<34.6273 112.897> -90.0068 164.007<42.289 104.945>
VStem: 34.3994 74.6006<-24.0805 70.2545> 122.6 91<-160.817 -101.394>
LayerCount: 2
Fore
SplineSet
109 37 m 0
 109 12.9583694397 105.799804688 -24.107421875 105.799804688 -24.107421875 c 1
 105.799804688 -24.107421875 213.599609375 -39.7173098169 213.599609375 -125.107421875 c 0
 213.599609375 -205.420898438 151.415039062 -245.70703125 75 -245.70703125 c 0
 43.5791015625 -245.70703125 30 -231.905273438 30 -210.607421875 c 0
 30 -190.55078125 44.4365986982 -181.27465463 72.2998046875 -172.557617188 c 0
 99.0634765625 -164.184570312 122.599609375 -156.623046875 122.599609375 -128 c 0
 122.599609375 -104.345703125 91.9882186618 -95.0207423479 73.2001953125 -90.0068359375 c 0
 41.052734375 -81.427734375 34.3994140625 -66.3017578125 34.3994140625 -42.107421875 c 0
 34.3994140625 -20.8432600273 35.7221107817 5.8030365448 38.9873046875 35.5517578125 c 0
 42 63 49.8050768514 74 77 74 c 0
 103 74 109 60 109 37 c 0
EndSplineSet
Validated: 1
EndChar

StartChar: Thorn
Encoding: 222 222 124
Width: 491
Flags: W
HStem: -10 21G<108.202 169.056> 142.249 71.8018<195.203 287.871> 520 79<168.522 300.142> 719 20G<108.202 169.056>
VStem: 45 190<10.9332 142.249 214.051 520 599 718.47> 152 83<535.481 590.115> 180.583 54.417<150.839 205.628> 348 113<281.242 470.72>
LayerCount: 2
Fore
SplineSet
45 66 m 2xf9
 45 658 l 2
 45 720.547406791 78.4033203125 739 138 739 c 0
 200.112304688 739 235 721.088586788 235 658 c 2
 235 66 l 2
 235 10.5825602214 200.112304688 -10 138 -10 c 0
 78.4033203125 -10 45 10.9149983724 45 66 c 2xf9
205 520 m 4
 166 520 152 535.480996407 152 560 c 0xf5
 152 590.115274729 168.522139969 599 198 599 c 0
 357.097162603 599 461 523.97310437 461 381 c 0
 461 247.486411708 367 142.249023438 225 142.249023438 c 0
 195.202681084 142.249023438 180.583007812 150.839042104 180.583007812 182 c 0xf3
 180.583007812 205.627960985 194.282369509 214.05078125 221 214.05078125 c 0
 253.5 214.05078125 348 233.28515625 348 380.700195312 c 0
 348 519.143907606 255 520 205 520 c 4
EndSplineSet
Validated: 5
EndChar

StartChar: thorn
Encoding: 254 254 125
Width: 449
Flags: W
HStem: -194 21G<99.5717 157.66> -10 71.8018<173.203 249.596> 440 68.9336<158 249.789> 734.934 20G<99.5717 157.66>
VStem: 45 168<-177.772 -10 61.8018 440 508.934 739.032> 135 78<442 499.568> 158.583 54.417<-1.40998 53.3789> 306 113<132.082 374.046>
LayerCount: 2
Fore
SplineSet
45 -118 m 2xf9
 45 673.93359375 l 2
 45 736.481445312 71.1433975395 754.93359375 128 754.93359375 c 0
 187.320740432 754.93359375 213 737.022460938 213 673.93359375 c 2
 213 -118 l 2
 213 -173.416992188 187.320740432 -194 128 -194 c 0
 71.1433975395 -194 45 -173.085001628 45 -118 c 2xf9
176 440 m 4
 158 440 135 442 135 467.93359375 c 4xf5
 135 499.568391393 154.03637866 508.93359375 188 508.93359375 c 4
 327.739332933 508.93359375 419 420.13674631 419 250.93 c 0
 419 105.011436522 332.966101695 -10 203 -10 c 0
 173.202681084 -10 158.583007812 -1.40998133389 158.583007812 29.7509765625 c 0xf3
 158.583007812 53.3789375475 172.282369509 61.8017578125 199 61.8017578125 c 0
 226.381889764 61.8017578125 306 83.596410506 306 250.633789062 c 0
 306 438.836215361 220.777777778 440 176 440 c 4
EndSplineSet
Validated: 5
EndChar

StartChar: germandbls
Encoding: 223 223 126
Width: 488
Flags: W
HStem: -10 81.2773<249.547 316.396> 653.725 101.277<229.219 322.571>
VStem: 45 168<5.73852 638.608> 343 107<469.683 633.02> 346 112<100.476 262.779>
LayerCount: 2
Fore
SplineSet
252 755.001953125 m 0xf0
 354.40563927 755.001953125 450 690.452944988 450 561 c 0xf0
 450 454.189042782 366 383 366 383 c 0
 366 383 458 308.399807409 458 172 c 0
 458 62.8356448403 383.073583823 -10 291 -10 c 0
 256.087890625 -10 241 5.3359375 241 29 c 0
 241 51.28515625 259.355445215 57.745014465 288 71.27734375 c 0
 319.164179104 86 346 111.880776358 346 175.700195312 c 0xe8
 346 292.874044266 254 321.372940911 254 375 c 0
 254 411.733944954 343 440.911314985 343 557 c 0
 343 613.953378381 325.8125 653.724609375 273 653.724609375 c 0
 223.270915179 653.724609375 213 610.001953125 213 555.001953125 c 2
 213 71 l 2
 213 8.001953125 187.3203125 -10 128 -10 c 0
 71.1435546875 -10 45 8.001953125 45 71 c 2
 45 548.001953125 l 2
 45 698.001953125 129.571555398 755.001953125 252 755.001953125 c 0xf0
EndSplineSet
Validated: 1
EndChar

StartChar: AE
Encoding: 198 198 127
Width: 743
Flags: W
HStem: -10 21G<55.4278 88.7045> 0 98<501 696.72> 164 90<129.659 425.803> 304 90<369.659 675.803> 633 98<501 716.72> 711 20G<365.5 394.957>
VStem: 311 190<98 304 394 633>
LayerCount: 2
Fore
SplineSet
352 616 m 1xb6
 130.831054688 47.998046875 l 2
 116.134156526 10.3866496136 108.543737305 -10 68.865234375 -10 c 0
 41.9903636088 -10 20 4.88684895833 20 32 c 0
 20 49.6677356483 23.4919362262 57.007266689 32.5654296875 79.578125 c 2
 259.865234375 645 l 2
 285.365199361 708.432689854 327 731 404 731 c 0
 352 616 l 1xb6
163 254 m 2
 371 254 l 2
 418.103515625 254 430 241.119140625 430 211 c 0
 430 178.342773438 418.510742188 164 371 164 c 2
 163 164 l 2
 129.458007812 164 119 178.234068627 119 210 c 0
 119 241.088441506 129.659179688 254 163 254 c 2
EndSplineSet
Refer: 13 69 N 1 0 0 1 266 0 2
Validated: 5
EndChar

StartChar: ae
Encoding: 230 230 128
Width: 623
Flags: W
HStem: -10 75.2773<457.16 548.784> -9.99805 79.8252<127.618 203.561> 222 71.3018<346 503> 243.132 65.8018<146.732 250.797> 428.396 80.5371<416.185 480.779> 432.934 76<69.2824 160.154>
VStem: 20 95<81.418 213.736> 211 168<110.282 243 256.002 380.534> 211 54.417<251.029 301.208> 503 100<293.302 406.234>
LayerCount: 2
Fore
SplineSet
211 297 m 2x5740
 211 390 170.428572428 422.335113851 107.407226562 432.93359375 c 0
 81.1484375 437.349609375 66 445.493164062 66 471.93359375 c 0
 66 494.384765625 81.087890625 508.93359375 116 508.93359375 c 0
 252.0234375 508.93359375 379 459 379 256.001953125 c 2
 379 243 l 2x5740
 379 88 313.630061324 -9.998046875 197 -9.998046875 c 0
 89.9270677179 -9.998046875 20 41.6256318934 20 140.001953125 c 0
 20 234.47145622 84.6600946223 308.93359375 221 308.93359375 c 0
 250.796875 308.93359375 265.416992188 301.208007812 265.416992188 273.182617188 c 0x56c0
 265.416992188 251.029296875 251.717773438 243.131835938 225 243.131835938 c 0
 163.859375 243.131835938 115 222 115 146 c 0
 115 99.1104090283 131.728449458 69.8271484375 166.978515625 69.8271484375 c 0
 199.581590038 69.8271484375 211 90.212288512 211 128 c 2
 211 297 l 2x5740
EndSplineSet
Refer: 50 101 N 1 0 0 1 195 0 2
Validated: 5
EndChar

StartChar: Eth
Encoding: 208 208 129
Width: 521
Flags: W
HStem: -10 21G<114.61 244.77 114.61 244.77> 309.011 90<14.2175 316.782> 719 20G<114.61 244.77>
VStem: 65 190<117.051 626.543> 371 120<245.094 530.95>
LayerCount: 2
Fore
SplineSet
69 309.010742188 m 6
 21 309.010742188 10 323.353515625 10 356.010742188 c 4
 10 386.129882812 22 399.010742188 69 399.010742188 c 6
 262 399.010742188 l 6
 309 399.010742188 321 386.129882812 321 356.010742188 c 4
 321 323.353515625 310 309.010742188 262 309.010742188 c 6
 69 309.010742188 l 6
EndSplineSet
Refer: 8 68 N 1 0 0 1 20 0 2
Validated: 5
EndChar

StartChar: eth
Encoding: 240 240 130
Width: 444
Flags: W
HStem: -9.99805 102.615<155.693 285.381> 427.132 81.8018<193.894 282.505> 616.719 92.7686<367.571 404.345> 735 20G<214.829 298.883>
VStem: 30 103<116.477 354.079> 246 168<112.978 424.443>
LayerCount: 2
Back
SplineSet
404 679.001953125 m 6xf8
 404 196 l 6xf8
 404 58 338.271096427 -9.998046875 221 -9.998046875 c 4
 105.457715817 -9.998046875 30 77.0737218419 30 243.001953125 c 4
 30 391.714998373 116.034179687 508.93359375 246 508.93359375 c 4
 275.796875 508.93359375 290.416992188 500.34375 290.416992188 469.182617188 c 4xf4
 290.416992188 445.5546875 276.717773438 437.131835938 250 437.131835938 c 4
 220.059113974 437.131835938 133 418.222941502 133 240 c 4
 133 152.09272042 152.170966631 92.6171875 190.798828125 92.6171875 c 4
 226 92.6171875 236 135.602211267 236 220 c 6
 236 679.001953125 l 6
 236 730.043945312 261.6796875 755 321 755 c 4
 377.856445312 755 404 730.387695312 404 679.001953125 c 6xf8
EndSplineSet
Fore
SplineSet
186.2109375 550.708984375 m 6
 171.57377163 545.381492009 160.081480395 542.805664062 150.852539062 542.805664062 c 4
 129.268750951 542.805664062 110.495117188 566.874402001 110.495117188 594.545898438 c 4
 110.495117188 611.425273021 122.757629848 623.389949686 155.428710938 635.28125 c 6
 336.7890625 701.291015625 l 6
 351.941386498 706.806010204 363.741083016 709.487304688 373.12109375 709.487304688 c 4
 394.463091341 709.487304688 411.91015625 686.360719404 411.91015625 658.071289062 c 4
 411.91015625 640.738845814 399.9848754 628.516329894 367.571289062 616.71875 c 6
 186.2109375 550.708984375 l 6
414 291 m 0
 414 60.3367183253 344.679353062 -9.998046875 221 -9.998046875 c 0
 105.457715817 -9.998046875 30 73.6321499558 30 233.001953125 c 0
 30 387.307151488 116.034179687 508.93359375 246 508.93359375 c 0
 282.505315516 508.93359375 300.416992188 499.263293054 300.416992188 464.182617188 c 0
 300.416992188 436.868672874 283.328303314 427.131835938 250 427.131835938 c 0
 220.059113974 427.131835938 133 408.222941502 133 230 c 0
 133 148.057274773 152.170966631 92.6171875 190.798828125 92.6171875 c 0
 233.787667977 92.6171875 246 137.79104965 246 299 c 0
 246 569.769196869 166 637.998034118 166 699.001953125 c 0
 166 736.640357562 188.658547794 755 241 755 c 0
 356.766917293 755 414 514.725939321 414 291 c 0
EndSplineSet
Validated: 5
EndChar

StartChar: multiply
Encoding: 215 215 131
Width: 400
Flags: W
HStem: 184.114 329.794<62.3996 93.8462 306.687 337.593>
VStem: 35.1028 329.182<211.418 242.323 455.698 486.604>
LayerCount: 2
Fore
SplineSet
338.592773438 274.057617188 m 2
 356.299939365 256.35045126 364.284793436 242.856977908 364.284793436 230.641095841 c 0
 364.284793436 211.410338041 337.592936903 184.113589931 318.788329624 184.113589931 c 0
 306.687428021 184.113589931 293.110096232 192.260997518 274.953125 210.41796875 c 2
 61.4072265625 423.963867188 l 2
 43.2502553305 442.12083842 35.1028477432 455.698170209 35.1028477432 467.799071811 c 0
 35.1028477432 486.603679091 62.3995958537 513.295535623 81.630353654 513.295535623 c 0
 93.8462357205 513.295535623 107.339709072 505.310681553 125.046875 487.603515625 c 2
 338.592773438 274.057617188 l 2
125.046875 210.41796875 m 2
 107.339709072 192.710802822 93.8462357205 184.725948752 81.630353654 184.725948752 c 0
 62.3995958537 184.725948752 35.1028477432 211.417805284 35.1028477432 230.222412564 c 0
 35.1028477432 242.323314166 43.2502553305 255.900645955 61.4072265625 274.057617188 c 2
 274.953125 487.603515625 l 2
 293.110096232 505.760486857 306.687428021 513.907894444 318.788329624 513.907894444 c 0
 337.592936903 513.907894444 364.284793436 486.611146334 364.284793436 467.380388534 c 0
 364.284793436 455.164506467 356.299939365 441.671033115 338.592773438 423.963867188 c 2
 125.046875 210.41796875 l 2
EndSplineSet
Validated: 5
EndChar

StartChar: divide
Encoding: 247 247 132
Width: 400
Flags: W
HStem: 149 119<151.995 245.52> 304.011 90<14.2175 385.782> 430 119<152.995 246.52>
VStem: 142.5 114<158.964 257.694 440.385 538.891>
LayerCount: 2
Fore
SplineSet
142.5 207 m 4
 142.5 247.526367188 162.254882812 268 197.5 268 c 4
 235.280273438 268 256.5 247.3125 256.5 205 c 4
 256.5 170.123046875 235.280273438 149 197.5 149 c 4
 162.254882812 149 142.5 171.098632812 142.5 207 c 4
143.5 488 m 0
 143.5 528.526367188 163.254882812 549 198.5 549 c 0
 236.280273438 549 257.5 528.3125 257.5 486 c 0
 257.5 451.123046875 236.280273438 430 198.5 430 c 0
 163.254882812 430 143.5 452.098632812 143.5 488 c 0
EndSplineSet
Refer: 113 8722 N 1 0 0 1 0 0 2
Validated: 1
EndChar

StartChar: paragraph
Encoding: 182 182 139
Width: 561
Flags: W
HStem: -194 21G<288.338 321.329 448.338 481.329> 650.425 88.5752<364.233 413>
VStem: 30 326<364.811 561.303> 253 103<-187.355 212.484> 413 103<-187.355 650.425>
LayerCount: 2
Fore
SplineSet
253 -133 m 2xd8
 253 205.930664062 l 5xd8
 114.344502513 250.100031405 30 346.746538492 30 461 c 0xe8
 30 643.323500068 193.163010817 739 443 739 c 0
 489.780082223 739 516 725 516 678 c 2
 516 -133 l 2
 516 -181 497.657226562 -194 465 -194 c 0
 431.676757812 -194 413 -180 413 -133 c 2
 413 650.424804688 l 1
 393.416069754 649.631555231 374.401362086 647.464032845 356 644.006835938 c 1
 356 -133 l 2
 356 -181 337.657226562 -194 305 -194 c 0
 271.676757812 -194 253 -180 253 -133 c 2xd8
EndSplineSet
Validated: 1
EndChar

StartChar: Oslash
Encoding: 216 216 140
Width: 570
Flags: W
HStem: -10 94.9004<253.218 314.154> 644.1 94.9004<253.218 314.154>
VStem: 30 189<192.433 564.034> 351 189<191.709 564.826>
LayerCount: 2
Fore
SplineSet
422.400390625 799.864257812 m 4
 451.134765625 799.864257812 474.625 781.291992188 474.625 758.575195312 c 4
 474.625 750.133789062 472.489257812 740.1015625 468.150390625 728.182617188 c 6
 188.958984375 -38.8876953125 l 6
 178.983398438 -66.2958984375 165.98046875 -78.8642578125 147.599609375 -78.8642578125 c 4
 118.866210938 -78.8642578125 95.375 -60.2919921875 95.375 -37.5751953125 c 4
 95.375 -29.1337890625 97.51171875 -19.1015625 101.849609375 -7.1826171875 c 6
 381.041015625 759.888671875 l 6
 391.016601562 787.295898438 404.01953125 799.864257812 422.400390625 799.864257812 c 4
EndSplineSet
Refer: 1 79 N 1 0 0 1 0 0 2
Validated: 5
EndChar

StartChar: oslash
Encoding: 248 248 141
Width: 478
Flags: W
HStem: -10 89.9004<211.694 263.851> 419.033 89.9004<211.694 264.343>
VStem: 30 161<115.02 396.346> 92.6055 85.2256<-58.9408 -29.0078> 287 161<115.838 396.81> 301.169 84.2256<528.826 558.732>
LayerCount: 2
Fore
SplineSet
338.392578125 564.8046875 m 0xd4
 364.252929688 564.8046875 385.39453125 548.08984375 385.39453125 527.64453125 c 0
 385.39453125 520.046875 383.706665189 511.151316949 379.567382812 500.291015625 c 2
 177.831054688 -29.0078125 l 2
 168.248011837 -54.1509951766 156.594726562 -64.9873046875 139.607421875 -64.9873046875 c 0
 113.747070312 -64.9873046875 92.60546875 -48.2724609375 92.60546875 -27.8271484375 c 0
 92.60546875 -20.2294921875 95.0727801034 -11.9126281514 99.4326171875 -0.4736328125 c 2
 301.168945312 528.826171875 l 2
 310.718836755 553.882420903 321.849609375 564.8046875 338.392578125 564.8046875 c 0xd4
EndSplineSet
Refer: 40 111 N 1 0 0 1 0 0 2
Validated: 5
EndChar

StartChar: kgreenlandic
Encoding: 312 312 144
Width: 477
Flags: W
HStem: -10 21G<99.5718 157.66> 488.934 20G<99.5718 157.66>
VStem: 45 168<6.22754 493.032>
LayerCount: 2
Fore
SplineSet
45 66 m 6
 45 427.93359375 l 6
 45 490.481445312 71.1435546875 508.93359375 128 508.93359375 c 4
 187.3203125 508.93359375 213 491.022460938 213 427.93359375 c 6
 213 66 l 6
 213 10.5830078125 187.3203125 -10 128 -10 c 4
 71.1435546875 -10 45 10.9150390625 45 66 c 6
364.412109375 316.1640625 m 1
 413.352539062 419.276367188 l 2
 424.764648438 443.321289062 431.245117188 452.461914062 431.245117188 470 c 0
 431.245117188 495.659179688 417.342773438 508.93359375 389.76171875 508.93359375 c 0
 357.85546875 508.93359375 340.038085938 496.424804688 322.192382812 455.96875 c 2
 225.16015625 236 l 1
 282.17578125 67.79296875 l 2
 303.07421875 6.13671875 316.298828125 -10 382.442382812 -10 c 0
 426.583007812 -10 457.100585938 8.4404296875 457.100585938 54 c 0
 457.100585938 70.4423828125 453.087890625 85.2607421875 442.858398438 111.897460938 c 2
 364.412109375 316.1640625 l 1
EndSplineSet
Validated: 9
EndChar

StartChar: dotlessi
Encoding: 305 305 145
Width: 258
HStem: -10 21G<99.5717 157.66> 488.934 20G<99.5717 157.66>
VStem: 45 168<6.22752 493.032>
LayerCount: 2
Fore
SplineSet
45 66 m 6
 45 427.93359375 l 6
 45 490.481445312 71.1433975395 508.93359375 128 508.93359375 c 4
 187.320740432 508.93359375 213 491.022460938 213 427.93359375 c 6
 213 66 l 6
 213 10.5830078125 187.320740432 -10 128 -10 c 4
 71.1433975395 -10 45 10.9149983724 45 66 c 6
EndSplineSet
Validated: 1
EndChar

StartChar: uni0237
Encoding: 567 567 146
Width: 258
HStem: -193.994 21G<-15.4561 55.0016> 488.934 20G<99.5717 157.66>
VStem: 45 168<-64.9051 492.857>
LayerCount: 2
Fore
SplineSet
213 36 m 2
 213 -131.230128306 108.003197927 -193.994140625 2 -193.994140625 c 0
 -32.912109375 -193.994140625 -48 -179.445312499 -48 -156.994140625 c 0
 -48 -98.4614911828 45 -116.201449051 45 21 c 2
 45 427.93359375 l 2
 45 490 71.1433975395 508.93359375 128 508.93359375 c 0
 187.320740432 508.93359375 213 491 213 427.93359375 c 2
 213 36 l 2
EndSplineSet
Validated: 1
EndChar

StartChar: Eng
Encoding: 330 330 147
Width: 516
Flags: W
HStem: -193.994 21G<260.544 328.992> -10 21G<108.202 169.056> 710.934 20G<94.61 227.795>
VStem: 45 190<10.9678 602.934> 368 113<-39.5492 504.135>
LayerCount: 2
Back
SplineSet
45 66 m 6xb0
 45 669.93359375 l 6
 45 717 71.2199177775 730.93359375 118 730.93359375 c 4
 337.590380323 730.93359375 481 645.144509248 481 385 c 6
 481 54 l 6
 481 8 463.477681706 -10 423 -10 c 4
 385.323938129 -10 368 8 368 54 c 6
 368 381 l 6
 368 601.714464621 235 602.93359375 235 602.93359375 c 5
 235 66 l 6
 235 11 200.112304688 -10 138 -10 c 4
 78.4033203125 -10 45 11 45 66 c 6xb0
EndSplineSet
Fore
SplineSet
45 66 m 2
 45 669.93359375 l 2
 45 717 71.2199177775 730.93359375 118 730.93359375 c 0
 337.590380323 730.93359375 481 645.144509248 481 385 c 2
 481 94 l 6
 481 -115.896538815 379.984119333 -193.994140625 278 -193.994140625 c 4
 243.087890625 -193.994140625 228 -179.445312499 228 -156.994140625 c 4
 228 -74.1268920577 368 -168.426868409 368 95 c 6
 368 381 l 2
 368 601.714464621 235 602.93359375 235 602.93359375 c 1
 235 66 l 2
 235 11 200.112304688 -10 138 -10 c 0
 78.4033203125 -10 45 11 45 66 c 2
EndSplineSet
Validated: 1
EndChar

StartChar: eng
Encoding: 331 331 148
Width: 454
Flags: W
HStem: -193.994 21G<218.544 281.968> -10 21G<99.5717 157.66> 488.934 20G<94.61 209.042>
VStem: 45 168<6.25996 410.934> 306 113<-66.1756 351.102>
LayerCount: 2
Fore
SplineSet
419 54 m 2
 419 -126.832739924 327.936422847 -193.994140625 236 -193.994140625 c 0
 201.087890625 -193.994140625 186 -179.445312499 186 -156.994140625 c 0
 186 -87.2807294226 306 -166.252997574 306 55 c 2
 306 231 l 2
 306 410 213 410.93359375 213 410.93359375 c 1
 213 66 l 2
 213 11.0043726739 187.320740432 -10 128 -10 c 0
 71.1433975395 -10 45 11.0036903313 45 66 c 2
 45 447.93359375 l 2
 45 494.996841989 71.2199177775 508.93359375 118 508.93359375 c 0
 300.084585337 508.93359375 419 441 419 235 c 2
 419 54 l 2
EndSplineSet
Validated: 1
EndChar

StartChar: OE
Encoding: 338 338 149
Width: 737
Flags: W
HStem: 0 98<495 690.72> 0 117.051<246.126 316> 304 90<363.659 669.803> 626.543 104.457<238.176 316> 633 98<495 710.72>
VStem: 30 130<237.09 534.031> 305 190<98 304 394 633> 316 150<117.051 626.543>
LayerCount: 2
Fore
SplineSet
316 117.05078125 m 5x75
 316 626.54296875 l 5
 218.897959184 626.54296875 160 557 160 397.700195312 c 0
 160 217.218552793 215.678621005 117.05078125 316 117.05078125 c 5x75
466 0 m 5
 343 0 l 6
 138.499011663 0 30 158.569909794 30 408 c 0
 30 619.8359375 138.499011663 731 343 731 c 6
 466 731 l 5x6d
 466 0 l 5
EndSplineSet
Refer: 13 69 S 1 0 0 1 260 0 2
EndChar

StartChar: longs
Encoding: 383 383 151
Width: 316
Flags: W
HStem: -10 21G<99.5718 157.66> 679.725 75.2773<231.282 297.934>
VStem: 45 168<5.73852 657.948>
LayerCount: 2
Fore
SplineSet
213 581.001953125 m 2
 213 71 l 2
 213 8.001953125 187.3203125 -10 128 -10 c 0
 71.1435546875 -10 45 8.001953125 45 71 c 2
 45 548.001953125 l 2
 45 698.001953125 130.388671875 755.001953125 254 755.001953125 c 0
 288.912109375 755.001953125 304 740.845703125 304 719.001953125 c 0
 304 698.297851562 286.431113354 690.834972579 257 679.724609375 c 0
 218 665.001953125 213 636.001953125 213 581.001953125 c 2
EndSplineSet
Validated: 1
EndChar

StartChar: uni018F
Encoding: 399 399 152
Width: 508
Flags: W
HStem: -10 100.537<166.25 243.476> 295.632 91.3018<127 317> 663.771 75.2295<78.2824 163.967>
VStem: 20 107<157.651 295.632>
LayerCount: 2
Fore
SplineSet
289 332 m 0
 289 569.648626904 219.148566939 631.43393285 112.333984375 663.770507812 c 0
 90.8171509418 670.284418934 75 676.082067981 75 702 c 0
 75 724.450897217 90.087890625 739 125 739 c 0
 307.571965888 739 478 610.391812865 478 316 c 0
 478 97.3046683047 369.152783687 -10 229 -10 c 4
 98.1569824219 -10 20 107.913130376 20 322.93359375 c 0
 20 373.413085938 50 386.93359375 108 386.93359375 c 2
 324 386.93359375 l 1
 317 295.631835938 l 1
 127 295.631835938 l 1
 127 143.880092537 163.083642186 90.537109375 208.881835938 90.537109375 c 0
 256.089719609 90.537109375 289 185.019226837 289 332 c 0
EndSplineSet
Validated: 5
EndChar

StartChar: florin
Encoding: 402 402 154
Width: 316
Flags: W
HStem: -193.994 21G<-15.4561 55.0016> 419.474 79.5371<119.535 293.975> 679.725 75.2773<231.282 297.934>
VStem: 45 168<-64.8102 419.474 499.011 657.947> 110.115 102.885<429.587 485.064>
LayerCount: 2
Fore
SplineSet
149 419.473632812 m 2xe8
 119.53515625 419.473632812 110.115234375 429.586914062 110.115234375 453.939453125 c 0
 110.115234375 485.064453125 119.357421875 499.010742188 149 499.010742188 c 2
 244.4453125 499.010742188 l 2
 286.432617188 499.010742188 296.586914062 486.334960938 296.586914062 457.474609375 c 0
 296.586914062 430.856445312 286.073242188 419.473632812 244.4453125 419.473632812 c 2
 149 419.473632812 l 2xe8
213 36 m 6xf0
 213 -131 108.003197927 -193.994140625 2 -193.994140625 c 0
 -32.912109375 -193.994140625 -48 -179.445312499 -48 -156.994140625 c 0
 -48 -98.4614911828 45 -116 45 21 c 2
 45 548.001953125 l 2
 45 698 130.388671875 755.001953125 254 755.001953125 c 0
 288.912109375 755.001953125 304 740.845703125 304 719.001953125 c 0
 304 698.297851562 286.431113354 690.834972579 257 679.724609375 c 0
 218 665.001953125 213 636 213 581.001953125 c 2
 213 36 l 6xf0
EndSplineSet
Validated: 5
EndChar

StartChar: uni01B7
Encoding: 439 439 155
Width: 474
Flags: W
HStem: -183.994 81.2773<57.138 158.075> 633.008 98<36.2731 245.006>
VStem: 245 186<-10.0061 157.372>
LayerCount: 2
Fore
SplineSet
105 306.9921875 m 0
 105 330 109.795578202 346.803016266 125.456054688 379.952148438 c 2
 245.005859375 633.0078125 l 1
 76 633.0078125 l 2
 42.4580078125 633.0078125 30 652.7890625 30 688.0078125 c 0
 30 715.563476562 42.6591796875 731.0078125 76 731.0078125 c 2
 382 731.0078125 l 2
 429.103515625 731.0078125 442 718.126953125 442 688.0078125 c 0
 442 670.607421875 438.560422875 656.526335323 424.83203125 626.677734375 c 2
 287 327 l 1
 287 327 431 266.639054527 431 99 c 0
 431 -84.0940430885 282.941812346 -183.994140625 101 -183.994140625 c 0
 66.087890625 -183.994140625 51 -168.658203125 51 -144.994140625 c 0
 51 -122.708984375 66.9402107663 -108.955702828 98 -102.716796875 c 0
 178.207474274 -87.7017045241 245 -33.3417299228 245 75.7001953125 c 0
 245 211.683133174 105 225.996214695 105 306.9921875 c 0
EndSplineSet
Validated: 1
EndChar

StartChar: uni0292
Encoding: 658 658 156
Width: 380
Flags: W
HStem: -183.994 81.2773<29.1375 119.667> 407.011 92<20.3286 158.006>
VStem: 16 326<411.499 493.671> 167 170<-58.1699 81.5748>
LayerCount: 2
Fore
SplineSet
228.928710938 199.010742188 m 5xe0
 228.928710938 199.010742188 337 153.473223805 337 27.0029296875 c 0
 337 -109.50981435 218.553449876 -183.994140625 73 -183.994140625 c 0
 38.087890625 -183.994140625 23 -168.658203125 23 -144.994140625 c 0
 23 -122.708984375 38.938470428 -108.947032454 70 -102.716796875 c 0
 123.832562495 -91.9192105745 167 -57.4484635418 167 13.703125 c 0xd0
 167 113.239146992 68 125.030208855 68 183.002929688 c 4
 68 206.021089246 73.097495376 219.454271527 84.939453125 245.612304688 c 6
 158.005859375 407.010742188 l 1
 62 407.010742188 l 2
 28.4580078125 407.010742188 16 420.791992188 16 456.010742188 c 0
 16 483.56640625 28.6591796875 499.010742188 62 499.010742188 c 2
 282 499.010742188 l 2
 329.103515625 499.010742188 342 486.129882812 342 456.010742188 c 0
 342 438.610351562 338.005281587 428.744232719 321.83203125 394.680664062 c 6
 228.928710938 199.010742188 l 5xe0
EndSplineSet
Validated: 1
EndChar

StartChar: lira
Encoding: 8356 8356 157
Width: 495
Flags: W
HStem: 0 90<213.824 480.782> 256 90<41.2175 96 98.4707 403.782> 396 90<41.2175 403.782> 719 20G<316.443 398.456>
VStem: 107 192<349.273 608.113>
LayerCount: 2
Fore
SplineSet
96 256 m 6
 48 256 37 270.342773438 37 303 c 4
 37 333.119140625 49 346 96 346 c 6
 349 346 l 6
 396 346 408 333.119140625 408 303 c 4
 408 270.342773438 397 256 349 256 c 6
 96 256 l 6
96 396 m 6
 48 396 37 410.342773438 37 443 c 4
 37 473.119140625 49 486 96 486 c 6
 349 486 l 6
 396 486 408 473.119140625 408 443 c 4
 408 410.342773438 397 396 349 396 c 6
 96 396 l 6
213.82421875 90 m 1
 426 90 l 2
 473 90 485 77.119140625 485 47 c 0
 485 14.3427734375 474 -5.87811049835e-15 426 0 c 2
 83 0 l 2
 23.6103515625 0 10 15.8681640625 10 52 c 0
 10 122 87.2841409958 136.307228122 98.470703125 279.568359375 c 0
 102.298103878 328.584111963 107 411.042982942 107 489.010742188 c 0
 107 709.833281112 251.88671875 739 381 739 c 0
 415.912109375 739 431 724.451171875 431 702 c 0
 431 630 299 702 299 508.93359375 c 0
 299 418.570481918 297.062778672 370.156234709 291.772460938 273.7421875 c 0
 284.451171875 140.314453125 213.82421875 90 213.82421875 90 c 1
EndSplineSet
Validated: 5
EndChar

StartChar: Euro
Encoding: 8364 8364 158
Width: 483
Flags: W
HStem: -10 81.2773<356.526 436.385> 256 90<41.2175 383.782> 396 90<41.2175 403.782> 663.771 75.2295<375.675 459.864>
VStem: 90 189<245.876 528.776>
LayerCount: 2
Fore
SplineSet
96 256 m 2
 48 256 37 270.342773438 37 303 c 0
 37 333.119140625 49 346 96 346 c 2
 329 346 l 2
 376 346 388 333.119140625 388 303 c 0
 388 270.342773438 377 256 329 256 c 2
 96 256 l 2
96 396 m 2
 48 396 37 410.342773438 37 443 c 0
 37 473.119140625 49 486 96 486 c 2
 349 486 l 2
 396 486 408 473.119140625 408 443 c 0
 408 410.342773438 397 396 349 396 c 2
 96 396 l 2
EndSplineSet
Refer: 6 67 N 1 0 0 1 60 0 2
Validated: 5
EndChar

StartChar: uni20B5
Encoding: 8373 8373 159
Width: 423
Flags: W
HStem: -114 186<211.92 300.333> -10 81.2773<296.526 376.385> 662 173<227.667 316.08> 663.771 75.2295<315.675 399.864>
VStem: 30 189<245.876 528.776> 205 103<-107.355 72> 220 103<662 828.355>
LayerCount: 2
Fore
SplineSet
308 -53 m 6x84
 308 -100 289.323242188 -114 256 -114 c 4
 223.342773438 -114 205 -101 205 -53 c 6
 205 72 l 5
 308 72 l 5
 308 -53 l 6x84
220 662 m 5x22
 220 774 l 6
 220 821 238.676757812 835 272 835 c 4
 304.657226562 835 323 822 323 774 c 6
 323 662 l 5
 220 662 l 5x22
EndSplineSet
Refer: 6 67 N 1 0 0 1 0 0 2
Validated: 5
EndChar

StartChar: uni20B2
Encoding: 8370 8370 160
Width: 523
Flags: W
HStem: -114 186<261.92 350.333> -10 369<352.453 465.51> 662 173<267.667 356.08> 663 76<346.73 489.919>
VStem: 30 189<254.262 522.899> 255 103<-107.355 72 662 824.609> 338 150<81.4863 347.024>
LayerCount: 2
Fore
SplineSet
358 -53 m 2x8c
 358 -100 339.323242188 -114 306 -114 c 0
 273.342773438 -114 255 -101 255 -53 c 2
 255 72 l 1
 358 72 l 1
 358 -53 l 2x8c
260 662 m 5x28
 260 774 l 6
 260 821 278.676757812 835 312 835 c 4
 344.657226562 835 363 822 363 774 c 6
 363 662 l 5
 260 662 l 5x28
EndSplineSet
Refer: 9 71 N 1 0 0 1 0 0 2
EndChar

StartChar: uni20BF
Encoding: 8383 8383 161
Width: 474
Flags: W
HStem: -114 186<125.221 199.68 245.221 319.68> -10 21G<94.6099 218.116 94.6099 218.116> 323.249 71.7764<211.912 298.757> 662 173<140.32 214.779 260.32 334.779> 719 20G<94.6099 219.629>
VStem: 45 190<92 323.249 395.025 637> 121 83<-110.49 72> 136 83<662 831.49> 200.583 34.417<330.975 384.845> 241 83<-110.49 72> 256 83<662 831.49> 341 108<137.136 286.636 437.905 594.889>
LayerCount: 2
Fore
SplineSet
324 -63 m 6xa050
 324 -102.295081967 308.914926383 -114 282 -114 c 4
 255.746151195 -114 241 -103.131147541 241 -63 c 6
 241 72 l 5
 324 72 l 5
 324 -63 l 6xa050
256 662 m 5x3030
 256 784 l 6
 256 823.295081967 271.085073617 835 298 835 c 4
 324.253848805 835 339 824.131147541 339 784 c 6
 339 662 l 5
 256 662 l 5x3030
204 -63 m 6xa210
 204 -102.295081967 188.914926383 -114 162 -114 c 4
 135.746151195 -114 121 -103.131147541 121 -63 c 6
 121 72 l 5
 204 72 l 5
 204 -63 l 6xa210
136 662 m 5x3110
 136 784 l 6
 136 823.295081967 151.085073617 835 178 835 c 4
 204.253848805 835 219 824.131147541 219 784 c 6
 219 662 l 5
 136 662 l 5x3110
EndSplineSet
Refer: 21 66 N 1 0 0 1 0 0 2
Validated: 5
EndChar

StartChar: uni2117
Encoding: 8471 8471 162
Width: 758
Flags: W
HStem: -9.99805 83.9004<269.581 486.055> 309.15 55.0801<373.821 430.194> 655.092 83.9004<262.265 493.455>
VStem: 30 91<239.804 508.888> 261.7 126<151.815 309.15 364.23 518.4> 355.049 32.6514<314.304 356.023> 455.5 79.7998<388.437 501.911> 637 91<239.102 509.641>
LayerCount: 2
Fore
SplineSet
387.700195312 518.400390625 m 13xfb
 387.700195312 209.400390625 l 6
 387.700195312 158.649963379 364.609506106 139.799804688 323.5 139.799804688 c 4
 283.897170272 139.799804688 261.700195312 158.953701288 261.700195312 209.400390625 c 6
 261.700195312 552.599609375 l 6xfb
 261.700195312 580.862171204 277.431961099 589.200195312 305.5 589.200195312 c 4
 444.513598139 589.200195312 535.299804688 542.119012531 535.299804688 452.400390625 c 4
 535.299804688 372.292515166 474.120299258 309.150390625 381.700195312 309.150390625 c 4
 373.821284167 309.150390625 355.048828125 314.304085848 355.048828125 333 c 4xf7
 355.048828125 356.023192913 363.268624177 364.23046875 379.299804688 364.23046875 c 4
 398.799854669 364.23046875 455.5 374.386030294 455.5 452.219726562 c 4
 455.5 517.993665266 387.700195312 518.400390625 387.700195312 518.400390625 c 13xfb
121 393.233398438 m 0
 121 182.470703125 213.093646798 73.90234375 377.400390625 73.90234375 c 0
 543.629155106 73.90234375 637 180.973632812 637 393.233398438 c 0
 637 547.901367188 543.629155106 655.091796875 377.400390625 655.091796875 c 0
 213.093646798 655.091796875 121 546.279296875 121 393.233398438 c 0
30 397.93359375 m 0
 30 607.809570312 154.634264288 738.9921875 377 738.9921875 c 0
 601.757081356 738.9921875 728 609.963867188 728 397.93359375 c 0
 728 126.171875 601.757081356 -9.998046875 377 -9.998046875 c 0
 154.634264288 -9.998046875 30 128.05078125 30 397.93359375 c 0
EndSplineSet
Validated: 5
EndChar

StartChar: uni203D
Encoding: 8253 8253 163
Width: 650
Flags: W
HStem: -10 179<217.369 341.94> 718.992 20G<124.258 181.982 332.801 410.91>
VStem: 45 214.713<282.842 662.692> 192.508 174<15.0177 144.453> 429.458 179.942<456.682 603.314>
LayerCount: 2
Fore
SplineSet
151.376953125 265.836914062 m 0xe8
 102.024414063 408.437952824 45 620.146900471 45 662.692382812 c 0
 45 710.58203125 88.0087890625 738.9921875 160.5078125 738.9921875 c 0
 203.456054688 738.9921875 226.781061999 718.588040187 234.323242188 672.491210938 c 0
 246.701171875 596.838906566 259.712890625 397.155854594 259.712890625 282.841796875 c 0
 259.712890625 230.01171875 243.583984375 208.916992188 203.19140625 208.916992188 c 0
 179.749023438 208.916992188 166.100901697 223.292996345 151.376953125 265.836914062 c 0xe8
409.5078125 316 m 1
 400.022460938 261.404296875 l 2
 393.289942109 222.653324196 377.438476562 208.916992188 353.19140625 208.916992188 c 0
 328.671875 208.916992188 296.387695312 216.580078125 296.387695312 256.93359375 c 0
 296.387695312 263.4765625 296.936667659 269.924104591 298.587890625 279.290039062 c 2
 309.870117188 343.284179688 l 2
 322.407269763 414.396410994 429.458007812 408 429.458007812 537 c 0
 429.458007812 596.0078125 407.453141447 624.620443371 340.642578125 664.048828125 c 0
 320.591796875 675.881835938 305.780273438 681.360351562 305.780273438 700.610351562 c 0
 305.780273438 722.920898438 319.986328125 738.9921875 345.616210938 738.9921875 c 0
 476.204101562 738.9921875 609.400390625 647.825195312 609.400390625 518.452148438 c 0
 609.400390625 388.605067419 505.5078125 331.861834152 409.5078125 316 c 1
EndSplineSet
Refer: 38 46 N 1 0 0 1 159.508 0 2
Validated: 1
EndChar

StartChar: fraction
Encoding: 8260 8260 164
Width: 326
Flags: W
HStem: -9.99805 21G<-96.0845 -74.0293> 718.992 20G<400.029 422.084>
LayerCount: 2
Fore
SplineSet
408.5 738.9921875 m 4
 435.668945312 738.9921875 464.500976562 709.05078125 464.500976562 686.3359375 c 4
 464.500976562 675.236328125 458.458007812 661.166992188 446.794921875 646.090820312 c 6
 -32.59375 26.4033203125 l 6
 -50.4267578125 3.3515625 -65.55859375 -9.998046875 -82.5 -9.998046875 c 4
 -109.668945312 -9.998046875 -138.500976562 19.943359375 -138.500976562 42.658203125 c 4
 -138.500976562 53.7578125 -132.458007812 67.8271484375 -120.794921875 82.9033203125 c 6
 358.59375 702.590820312 l 6
 376.426757812 725.643554688 391.55859375 738.9921875 408.5 738.9921875 c 4
EndSplineSet
EndChar

StartChar: perthousand
Encoding: 8240 8240 165
Width: 1149
Flags: W
HStem: -10 79.9004<636.294 691.558 916.598 971.825> -9.99805 21G<175.416 197.471> 299.033 79.9004<635.939 691.941 916.243 972.208> 350.059 79.9004<177.066 230.688> 659.092 79.9004<176.711 233.524> 718.992 20G<671.529 693.584>
VStem: 30 133<439.2 650.356> 247 133<442.181 647.666> 489 133<79.1412 290.297> 706 196<104.107 263.15> 779 50<50.1729 319.929> 986 133<82.1224 287.608>
LayerCount: 2
Fore
SplineSet
902 193.233398438 m 0xa3d0
 902 104.107421875 916.510742188 69.900390625 942.400390625 69.900390625 c 0
 970.318359375 69.900390625 986 103.529296875 986 193.233398438 c 0
 986 263.8046875 970.318359375 299.033203125 942.400390625 299.033203125 c 0
 916.510742188 299.033203125 902 263.150390625 902 193.233398438 c 0xa3d0
779 197.93359375 m 0xa3b0
 779 319.928710938 839.341828893 378.93359375 947 378.93359375 c 0
 1057.1371992 378.93359375 1119 321.072265625 1119 197.93359375 c 0
 1119 49.21484375 1057.1371992 -10 947 -10 c 0
 839.341828893 -10 779 50.1728515625 779 197.93359375 c 0xa3b0
622 193.233398438 m 0
 622 104.107421875 636.510742188 69.900390625 662.400390625 69.900390625 c 0
 690.318359375 69.900390625 706 103.529296875 706 193.233398438 c 0xa3d0
 706 263.8046875 690.318359375 299.033203125 662.400390625 299.033203125 c 0
 636.510742188 299.033203125 622 263.150390625 622 193.233398438 c 0
489 197.93359375 m 0
 489 319.928710938 549.341828893 378.93359375 657 378.93359375 c 0
 767.137199198 378.93359375 829 321.072265625 829 197.93359375 c 0xa3b0
 829 49.21484375 767.137199198 -10 657 -10 c 0
 549.341828893 -10 489 50.1728515625 489 197.93359375 c 0
163 553.291992188 m 0
 163 464.166015625 177.510742188 429.958984375 203.400390625 429.958984375 c 0
 231.318359375 429.958984375 247 463.587890625 247 553.291992188 c 0
 247 623.86328125 231.318359375 659.091796875 203.400390625 659.091796875 c 0x1b90
 177.510742188 659.091796875 163 623.208984375 163 553.291992188 c 0
30 557.9921875 m 0
 30 679.987304688 92.1377166581 738.9921875 203 738.9921875 c 0
 316.338861965 738.9921875 380 681.130859375 380 557.9921875 c 0
 380 409.2734375 316.338861965 350.05859375 203 350.05859375 c 0
 92.1377166581 350.05859375 30 410.231445312 30 557.9921875 c 0
EndSplineSet
Refer: 164 8260 S 1 0 0 1 271.5 0 2
EndChar

StartChar: uni2031
Encoding: 8241 8241 166
Width: 1419
Flags: W
HStem: -10 79.9004<636.294 691.558 916.791 971.278 1186.6 1241.83> -9.99805 21G<175.416 197.471> 299.033 79.9004<635.939 691.941 916.436 971.661 1186.24 1242.21> 350.059 79.9004<177.066 230.688> 659.092 79.9004<176.711 233.524> 718.992 20G<671.529 693.584>
VStem: 30 133<439.2 650.356> 247 133<442.181 647.666> 489 133<79.1412 290.297> 706 196<104.107 263.15> 779 50<50.1729 319.929> 986 186<104.107 263.15> 1049 60<50.1729 319.929> 1256 133<82.1224 287.608>
LayerCount: 2
Fore
SplineSet
1172 193.233398438 m 0xa394
 1172 104.107421875 1186.51074219 69.900390625 1212.40039062 69.900390625 c 0
 1240.31835938 69.900390625 1256 103.529296875 1256 193.233398438 c 0
 1256 263.8046875 1240.31835938 299.033203125 1212.40039062 299.033203125 c 0
 1186.51074219 299.033203125 1172 263.150390625 1172 193.233398438 c 0xa394
1049 197.93359375 m 0xa38c
 1049 319.928710938 1109.34182889 378.93359375 1217 378.93359375 c 0
 1327.1371992 378.93359375 1389 321.072265625 1389 197.93359375 c 0
 1389 49.21484375 1327.1371992 -10 1217 -10 c 0
 1109.34182889 -10 1049 50.1728515625 1049 197.93359375 c 0xa38c
902 193.233398438 m 0xa3d4
 902 104.107421875 916.510742188 69.900390625 942.400390625 69.900390625 c 0
 970.318359375 69.900390625 986 103.529296875 986 193.233398438 c 0
 986 263.8046875 970.318359375 299.033203125 942.400390625 299.033203125 c 0
 916.510742188 299.033203125 902 263.150390625 902 193.233398438 c 0xa3d4
779 197.93359375 m 0xa3ac
 779 319.928710938 837.545941129 378.93359375 942 378.93359375 c 0
 1048.93553643 378.93359375 1109 321.072265625 1109 197.93359375 c 0
 1109 49.21484375 1048.93553643 -10 942 -10 c 0
 837.545941129 -10 779 50.1728515625 779 197.93359375 c 0xa3ac
622 193.233398438 m 0
 622 104.107421875 636.510742188 69.900390625 662.400390625 69.900390625 c 0
 690.318359375 69.900390625 706 103.529296875 706 193.233398438 c 0xa3c4
 706 263.8046875 690.318359375 299.033203125 662.400390625 299.033203125 c 0
 636.510742188 299.033203125 622 263.150390625 622 193.233398438 c 0
489 197.93359375 m 0
 489 319.928710938 549.341828893 378.93359375 657 378.93359375 c 0
 767.137199198 378.93359375 829 321.072265625 829 197.93359375 c 0xa3a4
 829 49.21484375 767.137199198 -10 657 -10 c 0
 549.341828893 -10 489 50.1728515625 489 197.93359375 c 0
163 553.291992188 m 0
 163 464.166015625 177.510742188 429.958984375 203.400390625 429.958984375 c 0
 231.318359375 429.958984375 247 463.587890625 247 553.291992188 c 0
 247 623.86328125 231.318359375 659.091796875 203.400390625 659.091796875 c 0x1b84
 177.510742188 659.091796875 163 623.208984375 163 553.291992188 c 0
30 557.9921875 m 0
 30 679.987304688 92.1377166581 738.9921875 203 738.9921875 c 0
 316.338861965 738.9921875 380 681.130859375 380 557.9921875 c 0
 380 409.2734375 316.338861965 350.05859375 203 350.05859375 c 0
 92.1377166581 350.05859375 30 410.231445312 30 557.9921875 c 0
EndSplineSet
Refer: 164 8260 S 1 0 0 1 271.5 0 2
EndChar

StartChar: emdash
Encoding: 8212 8212 167
Width: 701
Flags: W
HStem: 229.011 90<14.2175 686.782>
LayerCount: 2
Fore
SplineSet
69 229.010742188 m 2
 21 229.010742188 10 243.353515625 10 276.010742188 c 0
 10 306.129882812 22 319.010742188 69 319.010742188 c 2
 632 319.010742188 l 6
 679 319.010742187 691 306.129882812 691 276.010742188 c 4
 691 243.353515625 680 229.010742187 632 229.010742188 c 6
 69 229.010742188 l 2
EndSplineSet
Validated: 1
EndChar

StartChar: endash
Encoding: 8211 8211 169
Width: 441
Flags: W
HStem: 229.011 90<14.2175 426.782>
LayerCount: 2
Fore
SplineSet
69 229.010742188 m 6
 21 229.010742188 10 243.353515625 10 276.010742188 c 0
 10 306.129882812 22 319.010742188 69 319.010742188 c 6
 372 319.010742188 l 6
 419 319.010742187 431 306.129882812 431 276.010742188 c 0
 431 243.353515625 420 229.010742187 372 229.010742188 c 6
 69 229.010742188 l 6
EndSplineSet
Validated: 1
EndChar

StartChar: uni2E3A
Encoding: 11834 11834 170
Width: 901
Flags: W
HStem: 229.011 90<14.2175 886.782>
LayerCount: 2
Fore
SplineSet
69 229.010742188 m 2
 21 229.010742188 10 243.353515625 10 276.010742188 c 0
 10 306.129882812 22 319.010742188 69 319.010742188 c 2
 832 319.010742188 l 6
 879 319.010742187 891 306.129882812 891 276.010742188 c 4
 891 243.353515625 880 229.010742187 832 229.010742188 c 6
 69 229.010742188 l 2
EndSplineSet
Validated: 1
EndChar

StartChar: uni2E3B
Encoding: 11835 11835 171
Width: 1101
Flags: W
HStem: 229.011 90<14.2175 1086.78>
LayerCount: 2
Fore
SplineSet
69 229.010742188 m 2
 21 229.010742188 10 243.353515625 10 276.010742188 c 0
 10 306.129882812 22 319.010742188 69 319.010742188 c 2
 1032 319.010742188 l 6
 1079 319.010742187 1091 306.129882812 1091 276.010742188 c 4
 1091 243.353515625 1080 229.010742187 1032 229.010742188 c 6
 69 229.010742188 l 2
EndSplineSet
Validated: 1
EndChar

StartChar: minute
Encoding: 8242 8242 173
Width: 242
Flags: W
HStem: 474.701 280.301<70.2749 114.661>
VStem: 23 186.195<589.936 697.385>
LayerCount: 2
Fore
SplineSet
130 755.001953125 m 0
 177.904296875 755.001953125 209.1953125 720.265625 209.1953125 664 c 0
 209.1953125 611.703125 173 561 137.1953125 519 c 0
 106.456658471 482.942613122 86.1962890625 474.701171875 62.7021484375 474.701171875 c 0
 33.82421875 474.701171875 23 494.475585938 23 539 c 4
 23 654 34.3951830602 755.001953125 130 755.001953125 c 0
EndSplineSet
Validated: 1
EndChar

StartChar: bullet
Encoding: 8226 8226 176
Width: 320
Flags: W
HStem: 250 259<80.8232 237.62>
VStem: 33 254<299.194 459.9>
LayerCount: 2
Fore
SplineSet
33 378 m 0
 33 465.032956302 77.8974609375 509 158 509 c 0
 240.603822858 509 287 465.327253444 287 376 c 0
 287 297.527570858 240.603822858 250 158 250 c 4
 77.8974609375 250 33 298.769886364 33 378 c 0
EndSplineSet
Validated: 1
EndChar

StartChar: dagger
Encoding: 8224 8224 177
Width: 421
Flags: W
HStem: -194 21G<193.671 226.662> 409.011 90<14.2175 406.782> 735 20G<194.338 227.329>
VStem: 159 103<-187.355 748.355>
LayerCount: 2
Fore
SplineSet
262 -133 m 2
 262 -180 243.323242188 -194 210 -194 c 0
 177.342773438 -194 159 -181 159 -133 c 2
 159 694 l 2
 159 741 177.676757812 755 211 755 c 0
 243.657226562 755 262 742 262 694 c 2
 262 -133 l 2
69 409.010742188 m 6
 21 409.010742188 10 423.353515625 10 456.010742188 c 4
 10 486.129882812 22 499.010742188 69 499.010742188 c 6
 352 499.010742188 l 6
 399 499.010742188 411 486.129882812 411 456.010742188 c 4
 411 423.353515625 400 409.010742188 352 409.010742188 c 6
 69 409.010742188 l 6
EndSplineSet
Validated: 5
EndChar

StartChar: daggerdbl
Encoding: 8225 8225 178
Width: 421
Flags: W
HStem: -194 21G<193.671 226.662> 169.011 90<14.2175 406.782> 459.011 90<14.2175 406.782> 735 20G<194.338 227.329>
VStem: 159 103<-187.355 748.355>
LayerCount: 2
Fore
SplineSet
69 169.010742188 m 6
 21 169.010742188 10 183.353515625 10 216.010742188 c 4
 10 246.129882812 22 259.010742188 69 259.010742188 c 6
 352 259.010742188 l 6
 399 259.010742188 411 246.129882812 411 216.010742188 c 4
 411 183.353515625 400 169.010742188 352 169.010742188 c 6
 69 169.010742188 l 6
262 -133 m 2
 262 -180 243.323242188 -194 210 -194 c 0
 177.342773438 -194 159 -181 159 -133 c 2
 159 694 l 2
 159 741 177.676757812 755 211 755 c 0
 243.657226562 755 262 742 262 694 c 2
 262 -133 l 2
69 459.010742188 m 2
 21 459.010742188 10 473.353515625 10 506.010742188 c 0
 10 536.129882812 22 549.010742188 69 549.010742188 c 2
 352 549.010742188 l 2
 399 549.010742188 411 536.129882812 411 506.010742188 c 0
 411 473.353515625 400 459.010742188 352 459.010742188 c 2
 69 459.010742188 l 2
EndSplineSet
Validated: 5
EndChar

StartChar: zero.superior
Encoding: 8304 8304 182
Width: 374
HStem: 338 73<167.593 207.229> 774 73<166.497 208.417>
VStem: 20 131<457.084 754.949> 226 128<457.327 756.721>
LayerCount: 2
Fore
SplineSet
151 624 m 0
 151 470 164 411 187 411 c 0
 212 411 226 469 226 624 c 0
 226 724 212 774 187 774 c 0
 164 774 151 723 151 624 c 0
20 629 m 0
 20 776 80 847 187 847 c 0
 294 847 354 778 354 632 c 4
 354 422 294 338 187 338 c 0
 80 338 20 422 20 629 c 0
EndSplineSet
Validated: 1
EndChar

StartChar: one.superior
Encoding: 185 185 183
Width: 273
VStem: 100 143<353.155 746>
LayerCount: 2
Fore
SplineSet
100 746 m 1
 74 735 l 2
 64 731 49 724 39 724 c 0
 22 724 13 740 13 756 c 0
 13 775 25 787 53 798 c 2
 94 814 l 2
 140 832 157 838 197 838 c 0
 231 838 243 824 243 797 c 6
 243 394 l 2
 243 357 217 343 170 343 c 0
 125 343 100 357 100 394 c 2
 100 746 l 1
EndSplineSet
Validated: 1
EndChar

StartChar: two.superior
Encoding: 178 178 184
Width: 330
HStem: 350 119<142 300.264> 786 57<22.6637 116.991>
VStem: 168 134<598.599 740.992>
LayerCount: 2
Fore
SplineSet
168 666 m 4
 168 753 120 772 53 786 c 4
 33 790 22 795 22 815 c 4
 22 832 33 843 59 843 c 4
 185 843 302 798 302 681 c 4
 302 544 142 469 142 469 c 1
 242 469 l 2
 295 469 310 448 310 411 c 0
 310 372 295 350 242 350 c 2
 70 350 l 2
 34 350 20 366 20 393 c 4
 20 453 168 502 168 666 c 4
EndSplineSet
Validated: 1
EndChar

StartChar: three.superior
Encoding: 179 179 185
Width: 320
HStem: 343 61<50.4879 125.625> 726 111<20.4029 187>
VStem: 151 140<427.214 527.222>
LayerCount: 2
Fore
SplineSet
170 632 m 4
 170 632 291 596 291 496 c 4
 291 397 198 343 84 343 c 4
 59 343 49 354 49 372 c 4
 49 389 59 400 80 404 c 4
 119 411 151 434 151 482 c 4
 151 541 73 549 73 583 c 4
 73 596 77 602 92 619 c 6
 187 726 l 5
 65 726 l 6
 27 726 13 746 13 782 c 4
 13 817 28 837 67 837 c 6
 261 837 l 6
 294 837 303 828 303 808 c 4
 303 796 298 785 283 767 c 6
 170 632 l 4
EndSplineSet
Validated: 1
EndChar

StartChar: four.superior
Encoding: 8308 8308 186
Width: 379
HStem: 446 97<83 362.563>
VStem: 170 143<347.258 718>
LayerCount: 2
Fore
SplineSet
83 543 m 1
 324 543 l 2
 357 543 366 528 366 495 c 0
 366 461 358 446 325 446 c 2
 51 446 l 2
 17 446 6 459 6 481 c 0
 6 506 13 521 44 577 c 2
 164 794 l 6
 189 839 201 848 252 848 c 0
 299 848 313 833 313 794 c 2
 313 389 l 2
 313 351 287 337 240 337 c 0
 195 337 170 351 170 389 c 2
 170 718 l 1
 83 543 l 1
EndSplineSet
Validated: 5
EndChar

StartChar: five.superior
Encoding: 8309 8309 187
Width: 356
HStem: 339 62<65.7436 153.516> 742 99<270 320.631>
VStem: 187 143<430.878 532.758>
LayerCount: 2
Fore
SplineSet
123 742 m 5
 270 742 l 2
 312 742 327 760 327 792 c 0
 327 823 312 841 270 841 c 2
 111 841 l 6
 74 841 66 832 63 801 c 6
 34 679 l 6
 28 655 24 638 24 623 c 4
 24 602 32 592 61 582 c 4
 109 565 187 548 187 484 c 4
 187 433 147 408 99 401 c 4
 76 397 64 386 64 369 c 4
 64 351 76 339 102 339 c 4
 228 339 330 394 330 504 c 4
 330 662 118 682 118 682 c 4
 123 742 l 5
EndSplineSet
Validated: 9
EndChar

StartChar: six.superior
Encoding: 8310 8310 188
Width: 357
HStem: 339 65<163.818 225.579> 582 63<120 217.099>
VStem: 20 133<425.909 576.858> 107 46<467.5 688.5> 239 98<413.81 559.262>
LayerCount: 2
Fore
SplineSet
194 404 m 0xe8
 223 404 239 435 239 486 c 0
 239 571 198 582 142 582 c 0
 119 582 107 588 107 607 c 0xd8
 107 637 120 645 146 645 c 0
 290 645 337 577 337 491 c 0
 337 406 288 339 189 339 c 0
 84 339 20 407 20 538 c 0
 20 720 135 847 209 847 c 0
 240 847 259 825 259 806 c 4
 259 741 153 740 153 505 c 0
 153 430 163 404 194 404 c 0xe8
EndSplineSet
Validated: 5
EndChar

StartChar: seven.superior
Encoding: 8311 8311 189
Width: 308
HStem: 739 99<19.3687 70>
VStem: 13 278<747.267 830.67>
LayerCount: 2
Fore
SplineSet
166 408 m 6
 266 713 l 6
 282 762 291 787 291 804 c 4
 291 827 278 838 230 838 c 6
 70 838 l 2
 29 838 13 820 13 789 c 0
 13 757 28 739 70 739 c 2
 219 739 l 5
 101 423 l 6
 93 401 87 393 87 376 c 4
 87 360 102 350 119 350 c 4
 144 350 152 366 166 408 c 6
EndSplineSet
Validated: 9
EndChar

StartChar: eight.superior
Encoding: 8312 8312 190
Width: 339
HStem: 339 63<104.851 194.806> 778 68<158.825 247.853>
VStem: 20 132<682.597 770.196> 29 67<410.981 508.861> 202 118<411.073 494.904> 256 61<672.461 769.195>
LayerCount: 2
Fore
SplineSet
204 778 m 0xe4
 173 778 152 761 152 733 c 0xe4
 152 708 169 683 222 630 c 0
 304 548 320 514 320 460 c 0
 320 385 260 339 165 339 c 0
 75 339 29 376 29 449 c 0
 29 522 105 581 105 581 c 1
 164 558 l 1
 164 558 96 505 96 451 c 0
 96 421 118 402 149 402 c 0
 180 402 202 420 202 450 c 0xd8
 202 479 183 493 122 554 c 0
 38 638 20 668 20 722 c 0
 20 802 78 846 183 846 c 0
 264 846 317 801 317 732 c 0
 317 661 230 582 230 582 c 1
 181 609 l 1
 181 609 256 675 256 731 c 0
 256 758 236 778 204 778 c 0xe4
EndSplineSet
Validated: 5
EndChar

StartChar: nine.superior
Encoding: 8313 8313 191
Width: 363
HStem: 540 63<146.901 244> 781 65<136.161 199.92>
VStem: 27 98<625.738 771.609> 211 133<608.142 759.091> 211 46<496.5 717.5>
LayerCount: 2
Fore
SplineSet
169 781 m 0xf0
 140 781 125 750 125 699 c 0
 125 614 166 603 222 603 c 0
 245 603 257 597 257 578 c 0xe8
 257 548 244 540 218 540 c 0
 74 540 27 608 27 694 c 0
 27 779 76 846 175 846 c 0
 280 846 344 778 344 647 c 0
 344 465 229 338 155 338 c 0
 124 338 105 360 105 379 c 4
 105 444 211 445 211 680 c 0
 211 755 200 781 169 781 c 0xf0
EndSplineSet
Validated: 5
EndChar

StartChar: zero.inferior
Encoding: 8320 8320 192
Width: 374
HStem: -362 73<167.593 207.229> 74 73<166.497 208.417>
VStem: 20 131<-242.916 54.9491> 226 128<-242.673 56.7208>
LayerCount: 2
Fore
SplineSet
151 -76 m 0
 151 -230 164 -289 187 -289 c 0
 212 -289 226 -231 226 -76 c 0
 226 24 212 74 187 74 c 0
 164 74 151 23 151 -76 c 0
20 -71 m 0
 20 76 80 147 187 147 c 0
 294 147 354 78 354 -68 c 4
 354 -278 294 -362 187 -362 c 0
 80 -362 20 -278 20 -71 c 0
EndSplineSet
Validated: 1
EndChar

StartChar: one.inferior
Encoding: 8321 8321 193
Width: 273
VStem: 100 143<-346.845 46>
LayerCount: 2
Fore
SplineSet
100 46 m 1
 74 35 l 2
 64 31 49 24 39 24 c 0
 22 24 13 40 13 56 c 0
 13 75 25 87 53 98 c 2
 94 114 l 2
 140 132 157 138 197 138 c 0
 231 138 243 124 243 97 c 6
 243 -306 l 2
 243 -343 217 -357 170 -357 c 0
 125 -357 100 -343 100 -306 c 2
 100 46 l 1
EndSplineSet
Validated: 1
EndChar

StartChar: two.inferior
Encoding: 8322 8322 194
Width: 330
HStem: -350 119<142 300.264> 86 57<22.6637 116.991>
VStem: 168 134<-101.401 40.992>
LayerCount: 2
Fore
SplineSet
168 -34 m 4
 168 53 120 72 53 86 c 4
 33 90 22 95 22 115 c 4
 22 132 33 143 59 143 c 4
 185 143 302 98 302 -19 c 4
 302 -156 142 -231 142 -231 c 1
 242 -231 l 2
 295 -231 310 -252 310 -289 c 0
 310 -328 295 -350 242 -350 c 2
 70 -350 l 2
 34 -350 20 -334 20 -307 c 4
 20 -247 168 -198 168 -34 c 4
EndSplineSet
Validated: 1
EndChar

StartChar: three.inferior
Encoding: 8323 8323 195
Width: 320
HStem: -357 61<50.4879 125.625> 26 111<20.4029 187>
VStem: 151 140<-272.786 -172.778>
LayerCount: 2
Fore
SplineSet
170 -68 m 4
 170 -68 291 -104 291 -204 c 4
 291 -303 198 -357 84 -357 c 4
 59 -357 49 -346 49 -328 c 4
 49 -311 59 -300 80 -296 c 4
 119 -289 151 -266 151 -218 c 4
 151 -159 73 -151 73 -117 c 4
 73 -104 77 -98 92 -81 c 6
 187 26 l 5
 65 26 l 6
 27 26 13 46 13 82 c 4
 13 117 28 137 67 137 c 6
 261 137 l 6
 294 137 303 128 303 108 c 4
 303 96 298 85 283 67 c 6
 170 -68 l 4
EndSplineSet
Validated: 1
EndChar

StartChar: four.inferior
Encoding: 8324 8324 196
Width: 379
HStem: -254 97<83 362.563>
VStem: 170 143<-352.742 18>
LayerCount: 2
Fore
SplineSet
83 -157 m 1
 324 -157 l 2
 357 -157 366 -172 366 -205 c 0
 366 -239 358 -254 325 -254 c 2
 51 -254 l 2
 17 -254 6 -241 6 -219 c 0
 6 -194 13 -179 44 -123 c 2
 164 94 l 6
 189 139 201 148 252 148 c 0
 299 148 313 133 313 94 c 2
 313 -311 l 2
 313 -349 287 -363 240 -363 c 0
 195 -363 170 -349 170 -311 c 2
 170 18 l 1
 83 -157 l 1
EndSplineSet
Validated: 5
EndChar

StartChar: five.inferior
Encoding: 8325 8325 197
Width: 356
HStem: -361 62<65.7436 153.516> 42 99<270 320.631>
VStem: 187 143<-269.122 -167.242>
LayerCount: 2
Fore
SplineSet
123 42 m 5
 270 42 l 2
 312 42 327 60 327 92 c 0
 327 123 312 141 270 141 c 2
 111 141 l 6
 74 141 66 132 63 101 c 6
 34 -21 l 6
 28 -45 24 -62 24 -77 c 4
 24 -98 32 -108 61 -118 c 4
 109 -135 187 -152 187 -216 c 4
 187 -267 147 -292 99 -299 c 4
 76 -303 64 -314 64 -331 c 4
 64 -349 76 -361 102 -361 c 4
 228 -361 330 -306 330 -196 c 4
 330 -38 118 -18 118 -18 c 4
 123 42 l 5
EndSplineSet
Validated: 9
EndChar

StartChar: six.inferior
Encoding: 8326 8326 198
Width: 357
HStem: -361 65<163.818 225.579> -118 63<120 217.099>
VStem: 20 133<-274.091 -123.142> 107 46<-232.5 -11.5> 239 98<-286.19 -140.738>
LayerCount: 2
Fore
SplineSet
194 -296 m 0xe8
 223 -296 239 -265 239 -214 c 0
 239 -129 198 -118 142 -118 c 0
 119 -118 107 -112 107 -93 c 0xd8
 107 -63 120 -55 146 -55 c 0
 290 -55 337 -123 337 -209 c 0
 337 -294 288 -361 189 -361 c 0
 84 -361 20 -293 20 -162 c 0
 20 20 135 147 209 147 c 0
 240 147 259 125 259 106 c 4
 259 41 153 40 153 -195 c 0
 153 -270 163 -296 194 -296 c 0xe8
EndSplineSet
Validated: 5
EndChar

StartChar: seven.inferior
Encoding: 8327 8327 199
Width: 308
HStem: 39 99<19.3687 70>
VStem: 13 278<47.2667 130.67>
LayerCount: 2
Fore
SplineSet
166 -292 m 6
 266 13 l 6
 282 62 291 87 291 104 c 4
 291 127 278 138 230 138 c 6
 70 138 l 2
 29 138 13 120 13 89 c 0
 13 57 28 39 70 39 c 2
 219 39 l 5
 101 -277 l 6
 93 -299 87 -307 87 -324 c 4
 87 -340 102 -350 119 -350 c 4
 144 -350 152 -334 166 -292 c 6
EndSplineSet
Validated: 9
EndChar

StartChar: eight.inferior
Encoding: 8328 8328 200
Width: 339
HStem: -361 63<104.851 194.806> 78 68<158.825 247.853>
VStem: 20 132<-17.4026 70.1964> 29 67<-289.019 -191.139> 202 118<-288.927 -205.096> 256 61<-27.5385 69.1954>
LayerCount: 2
Fore
SplineSet
204 78 m 0xe4
 173 78 152 61 152 33 c 0xe4
 152 8 169 -17 222 -70 c 0
 304 -152 320 -186 320 -240 c 0
 320 -315 260 -361 165 -361 c 0
 75 -361 29 -324 29 -251 c 0
 29 -178 105 -119 105 -119 c 1
 164 -142 l 1
 164 -142 96 -195 96 -249 c 0
 96 -279 118 -298 149 -298 c 0
 180 -298 202 -280 202 -250 c 0xd8
 202 -221 183 -207 122 -146 c 0
 38 -62 20 -32 20 22 c 0
 20 102 78 146 183 146 c 0
 264 146 317 101 317 32 c 0
 317 -39 230 -118 230 -118 c 1
 181 -91 l 1
 181 -91 256 -25 256 31 c 0
 256 58 236 78 204 78 c 0xe4
EndSplineSet
Validated: 5
EndChar

StartChar: nine.inferior
Encoding: 8329 8329 201
Width: 363
HStem: -160 63<146.901 244> 81 65<136.161 199.92>
VStem: 27 98<-74.2623 71.6091> 211 133<-91.8581 59.0913> 211 46<-203.5 17.5>
LayerCount: 2
Fore
SplineSet
169 81 m 0xf0
 140 81 125 50 125 -1 c 0
 125 -86 166 -97 222 -97 c 0
 245 -97 257 -103 257 -122 c 0xe8
 257 -152 244 -160 218 -160 c 0
 74 -160 27 -92 27 -6 c 0
 27 79 76 146 175 146 c 0
 280 146 344 78 344 -53 c 0
 344 -235 229 -362 155 -362 c 0
 124 -362 105 -340 105 -321 c 4
 105 -256 211 -255 211 -20 c 0
 211 55 200 81 169 81 c 0xf0
EndSplineSet
Validated: 5
EndChar

StartChar: ordfeminine
Encoding: 170 170 202
Width: 411
Flags: W
HStem: 80 90<14.2175 396.782> 220.002 21G<207.532 319.298> 473.132 65.8018<148.384 254.297> 662.934 76<72.7824 163.654>
VStem: 18.5 100<337.685 445.876> 214.5 54.417<481.029 531.208> 214.5 168<310.002 473.132 503.183 610.535>
LayerCount: 2
Fore
SplineSet
69 80 m 2xf8
 21 80 10 94.342773437 10 127 c 0
 10 157.119140624 22 170 69 170 c 2
 342 170 l 2
 389 170 401 157.119140624 401 127 c 0
 401 94.342773437 390 80 342 80 c 2
 69 80 l 2xf8
EndSplineSet
Refer: 51 97 S 1 0 0 1 -1.5 230 2
Validated: 5
EndChar

StartChar: ordmasculine
Encoding: 186 186 203
Width: 461
Flags: W
HStem: 80 90<14.2175 446.782> 220 89.9004<203.194 255.351> 649.033 89.9004<203.194 255.843>
VStem: 21.5 161<345.02 626.346> 278.5 161<345.838 626.81>
LayerCount: 2
Fore
SplineSet
69 80 m 6
 21 80 10 94.342773437 10 127 c 4
 10 157.119140624 22 170 69 170 c 6
 392 170 l 6
 439 170 451 157.119140624 451 127 c 4
 451 94.342773437 440 80 392 80 c 6
 69 80 l 6
EndSplineSet
Refer: 40 111 S 1 0 0 1 -8.5 230 2
Validated: 1
EndChar

StartChar: zero.numr
Encoding: 65536 -1 204
Width: 374
Flags: W
HStem: 238 73<167.593 207.229> 674 73<166.497 208.417>
VStem: 20 131<357.084 654.949> 226 128<357.327 656.721>
LayerCount: 2
Fore
SplineSet
151 524 m 0
 151 370 164 311 187 311 c 0
 212 311 226 369 226 524 c 0
 226 624 212 674 187 674 c 0
 164 674 151 623 151 524 c 0
20 529 m 0
 20 676 80 747 187 747 c 0
 294 747 354 678 354 532 c 4
 354 322 294 238 187 238 c 0
 80 238 20 322 20 529 c 0
EndSplineSet
EndChar

StartChar: one.numr
Encoding: 65537 -1 205
Width: 273
Flags: W
VStem: 100 143<253.155 646>
LayerCount: 2
Fore
SplineSet
100 646 m 1
 74 635 l 2
 64 631 49 624 39 624 c 0
 22 624 13 640 13 656 c 0
 13 675 25 687 53 698 c 2
 94 714 l 2
 140 732 157 738 197 738 c 0
 231 738 243 724 243 697 c 6
 243 294 l 2
 243 257 217 243 170 243 c 0
 125 243 100 257 100 294 c 2
 100 646 l 1
EndSplineSet
EndChar

StartChar: two.numr
Encoding: 65538 -1 206
Width: 330
Flags: W
HStem: 250 119<142 300.264> 686 57<22.6637 116.991>
VStem: 168 134<498.599 640.992>
LayerCount: 2
Fore
SplineSet
168 566 m 4
 168 653 120 672 53 686 c 4
 33 690 22 695 22 715 c 4
 22 732 33 743 59 743 c 4
 185 743 302 698 302 581 c 4
 302 444 142 369 142 369 c 1
 242 369 l 2
 295 369 310 348 310 311 c 0
 310 272 295 250 242 250 c 2
 70 250 l 2
 34 250 20 266 20 293 c 4
 20 353 168 402 168 566 c 4
EndSplineSet
EndChar

StartChar: three.numr
Encoding: 65539 -1 207
Width: 320
Flags: W
HStem: 243 61<50.4879 125.625> 626 111<20.4029 187>
VStem: 151 140<327.214 427.222>
LayerCount: 2
Fore
SplineSet
170 532 m 4
 170 532 291 496 291 396 c 4
 291 297 198 243 84 243 c 4
 59 243 49 254 49 272 c 4
 49 289 59 300 80 304 c 4
 119 311 151 334 151 382 c 4
 151 441 73 449 73 483 c 4
 73 496 77 502 92 519 c 6
 187 626 l 5
 65 626 l 6
 27 626 13 646 13 682 c 4
 13 717 28 737 67 737 c 6
 261 737 l 6
 294 737 303 728 303 708 c 4
 303 696 298 685 283 667 c 6
 170 532 l 4
EndSplineSet
EndChar

StartChar: four.numr
Encoding: 65540 -1 208
Width: 379
Flags: W
HStem: 346 97<83 362.563>
VStem: 170 143<247.258 618>
LayerCount: 2
Fore
SplineSet
83 443 m 1
 324 443 l 2
 357 443 366 428 366 395 c 0
 366 361 358 346 325 346 c 2
 51 346 l 2
 17 346 6 359 6 381 c 0
 6 406 13 421 44 477 c 2
 164 694 l 6
 189 739 201 748 252 748 c 0
 299 748 313 733 313 694 c 2
 313 289 l 2
 313 251 287 237 240 237 c 0
 195 237 170 251 170 289 c 2
 170 618 l 1
 83 443 l 1
EndSplineSet
EndChar

StartChar: five.numr
Encoding: 65541 -1 209
Width: 356
Flags: W
HStem: 239 62<65.7436 153.516> 642 99<270 320.631>
VStem: 187 143<330.878 432.758>
LayerCount: 2
Fore
SplineSet
123 642 m 5
 270 642 l 2
 312 642 327 660 327 692 c 0
 327 723 312 741 270 741 c 2
 111 741 l 6
 74 741 66 732 63 701 c 6
 34 579 l 6
 28 555 24 538 24 523 c 4
 24 502 32 492 61 482 c 4
 109 465 187 448 187 384 c 4
 187 333 147 308 99 301 c 4
 76 297 64 286 64 269 c 4
 64 251 76 239 102 239 c 4
 228 239 330 294 330 404 c 4
 330 562 118 582 118 582 c 4
 123 642 l 5
EndSplineSet
EndChar

StartChar: six.numr
Encoding: 65542 -1 210
Width: 357
Flags: W
HStem: 239 65<163.818 225.579> 482 63<120 217.099>
VStem: 20 133<325.909 476.858> 107 46<367.5 588.5> 239 98<313.81 459.262>
LayerCount: 2
Fore
SplineSet
194 304 m 0xe8
 223 304 239 335 239 386 c 0
 239 471 198 482 142 482 c 0
 119 482 107 488 107 507 c 0xd8
 107 537 120 545 146 545 c 0
 290 545 337 477 337 391 c 0
 337 306 288 239 189 239 c 0
 84 239 20 307 20 438 c 0
 20 620 135 747 209 747 c 0
 240 747 259 725 259 706 c 4
 259 641 153 640 153 405 c 0
 153 330 163 304 194 304 c 0xe8
EndSplineSet
EndChar

StartChar: seven.numr
Encoding: 65543 -1 211
Width: 308
Flags: W
HStem: 639 99<19.3687 70>
VStem: 13 278<647.267 730.67>
LayerCount: 2
Fore
SplineSet
166 308 m 6
 266 613 l 6
 282 662 291 687 291 704 c 4
 291 727 278 738 230 738 c 6
 70 738 l 2
 29 738 13 720 13 689 c 0
 13 657 28 639 70 639 c 2
 219 639 l 5
 101 323 l 6
 93 301 87 293 87 276 c 4
 87 260 102 250 119 250 c 4
 144 250 152 266 166 308 c 6
EndSplineSet
EndChar

StartChar: eight.numr
Encoding: 65544 -1 212
Width: 339
Flags: W
HStem: 239 63<104.851 194.806> 678 68<158.825 247.853>
VStem: 20 132<582.597 670.196> 29 67<310.981 408.861> 202 118<311.073 394.904> 256 61<572.461 669.195>
LayerCount: 2
Fore
SplineSet
204 678 m 0xe4
 173 678 152 661 152 633 c 0xe4
 152 608 169 583 222 530 c 0
 304 448 320 414 320 360 c 0
 320 285 260 239 165 239 c 0
 75 239 29 276 29 349 c 0
 29 422 105 481 105 481 c 1
 164 458 l 1
 164 458 96 405 96 351 c 0
 96 321 118 302 149 302 c 0
 180 302 202 320 202 350 c 0xd8
 202 379 183 393 122 454 c 0
 38 538 20 568 20 622 c 0
 20 702 78 746 183 746 c 0
 264 746 317 701 317 632 c 0
 317 561 230 482 230 482 c 1
 181 509 l 1
 181 509 256 575 256 631 c 0
 256 658 236 678 204 678 c 0xe4
EndSplineSet
EndChar

StartChar: nine.numr
Encoding: 65545 -1 213
Width: 363
HStem: 440 63<146.901 244> 681 65<136.161 199.92>
VStem: 27 98<525.738 671.609> 211 133<508.142 659.091> 211 46<396.5 617.5>
LayerCount: 2
Fore
SplineSet
169 681 m 0xf0
 140 681 125 650 125 599 c 0
 125 514 166 503 222 503 c 0
 245 503 257 497 257 478 c 0xe8
 257 448 244 440 218 440 c 0
 74 440 27 508 27 594 c 0
 27 679 76 746 175 746 c 0
 280 746 344 678 344 547 c 0
 344 365 229 238 155 238 c 0
 124 238 105 260 105 279 c 4
 105 344 211 345 211 580 c 0
 211 655 200 681 169 681 c 0xf0
EndSplineSet
EndChar

StartChar: zero.dnom
Encoding: 65546 -1 214
Width: 374
HStem: -12 73<167.593 207.229> 424 73<166.497 208.417>
VStem: 20 131<107.084 404.949> 226 128<107.327 406.721>
LayerCount: 2
Fore
SplineSet
151 274 m 0
 151 120 164 61 187 61 c 0
 212 61 226 119 226 274 c 0
 226 374 212 424 187 424 c 0
 164 424 151 373 151 274 c 0
20 279 m 0
 20 426 80 497 187 497 c 0
 294 497 354 428 354 282 c 4
 354 72 294 -12 187 -12 c 0
 80 -12 20 72 20 279 c 0
EndSplineSet
Validated: 1
EndChar

StartChar: one.dnom
Encoding: 65547 -1 215
Width: 273
VStem: 100 143<3.15549 396>
LayerCount: 2
Fore
SplineSet
100 396 m 1
 74 385 l 2
 64 381 49 374 39 374 c 0
 22 374 13 390 13 406 c 0
 13 425 25 437 53 448 c 2
 94 464 l 2
 140 482 157 488 197 488 c 0
 231 488 243 474 243 447 c 6
 243 44 l 2
 243 7 217 -7 170 -7 c 0
 125 -7 100 7 100 44 c 2
 100 396 l 1
EndSplineSet
Validated: 1
EndChar

StartChar: two.dnom
Encoding: 65548 -1 216
Width: 330
HStem: 0 119<142 300.264> 436 57<22.6637 116.991>
VStem: 168 134<248.599 390.992>
LayerCount: 2
Fore
SplineSet
168 316 m 4
 168 403 120 422 53 436 c 4
 33 440 22 445 22 465 c 4
 22 482 33 493 59 493 c 4
 185 493 302 448 302 331 c 4
 302 194 142 119 142 119 c 1
 242 119 l 2
 295 119 310 98 310 61 c 0
 310 22 295 0 242 0 c 2
 70 0 l 2
 34 0 20 16 20 43 c 4
 20 103 168 152 168 316 c 4
EndSplineSet
Validated: 1
EndChar

StartChar: three.dnom
Encoding: 65549 -1 217
Width: 320
HStem: -7 61<50.4879 125.625> 376 111<20.4029 187>
VStem: 151 140<77.2141 177.222>
LayerCount: 2
Fore
SplineSet
170 282 m 4
 170 282 291 246 291 146 c 4
 291 47 198 -7 84 -7 c 4
 59 -7 49 4 49 22 c 4
 49 39 59 50 80 54 c 4
 119 61 151 84 151 132 c 4
 151 191 73 199 73 233 c 4
 73 246 77 252 92 269 c 6
 187 376 l 5
 65 376 l 6
 27 376 13 396 13 432 c 4
 13 467 28 487 67 487 c 6
 261 487 l 6
 294 487 303 478 303 458 c 4
 303 446 298 435 283 417 c 6
 170 282 l 4
EndSplineSet
Validated: 1
EndChar

StartChar: four.dnom
Encoding: 65550 -1 218
Width: 379
HStem: 96 97<83 362.563>
VStem: 170 143<-2.74152 368>
LayerCount: 2
Fore
SplineSet
83 193 m 1
 324 193 l 2
 357 193 366 178 366 145 c 0
 366 111 358 96 325 96 c 2
 51 96 l 2
 17 96 6 109 6 131 c 0
 6 156 13 171 44 227 c 2
 164 444 l 6
 189 489 201 498 252 498 c 0
 299 498 313 483 313 444 c 2
 313 39 l 2
 313 1 287 -13 240 -13 c 0
 195 -13 170 1 170 39 c 2
 170 368 l 1
 83 193 l 1
EndSplineSet
Validated: 5
EndChar

StartChar: five.dnom
Encoding: 65551 -1 219
Width: 356
HStem: -11 62<65.7436 153.516> 392 99<270 320.631>
VStem: 187 143<80.8776 182.758>
LayerCount: 2
Fore
SplineSet
123 392 m 5
 270 392 l 2
 312 392 327 410 327 442 c 0
 327 473 312 491 270 491 c 2
 111 491 l 6
 74 491 66 482 63 451 c 6
 34 329 l 6
 28 305 24 288 24 273 c 4
 24 252 32 242 61 232 c 4
 109 215 187 198 187 134 c 4
 187 83 147 58 99 51 c 4
 76 47 64 36 64 19 c 4
 64 1 76 -11 102 -11 c 4
 228 -11 330 44 330 154 c 4
 330 312 118 332 118 332 c 4
 123 392 l 5
EndSplineSet
Validated: 9
EndChar

StartChar: six.dnom
Encoding: 65552 -1 220
Width: 357
HStem: -11 65<163.818 225.579> 232 63<120 217.099>
VStem: 20 133<75.9087 226.858> 107 46<117.5 338.5> 239 98<63.8097 209.262>
LayerCount: 2
Fore
SplineSet
194 54 m 0xe8
 223 54 239 85 239 136 c 0
 239 221 198 232 142 232 c 0
 119 232 107 238 107 257 c 0xd8
 107 287 120 295 146 295 c 0
 290 295 337 227 337 141 c 0
 337 56 288 -11 189 -11 c 0
 84 -11 20 57 20 188 c 0
 20 370 135 497 209 497 c 0
 240 497 259 475 259 456 c 4
 259 391 153 390 153 155 c 0
 153 80 163 54 194 54 c 0xe8
EndSplineSet
Validated: 5
EndChar

StartChar: seven.dnom
Encoding: 65553 -1 221
Width: 308
HStem: 389 99<19.3687 70>
VStem: 13 278<397.267 480.67>
LayerCount: 2
Fore
SplineSet
166 58 m 6
 266 363 l 6
 282 412 291 437 291 454 c 4
 291 477 278 488 230 488 c 6
 70 488 l 2
 29 488 13 470 13 439 c 0
 13 407 28 389 70 389 c 2
 219 389 l 5
 101 73 l 6
 93 51 87 43 87 26 c 4
 87 10 102 0 119 -0 c 4
 144 0 152 16 166 58 c 6
EndSplineSet
Validated: 9
EndChar

StartChar: eight.dnom
Encoding: 65554 -1 222
Width: 339
HStem: -11 63<104.851 194.806> 428 68<158.825 247.853>
VStem: 20 132<332.597 420.196> 29 67<60.9808 158.861> 202 118<61.0728 144.904> 256 61<322.461 419.195>
LayerCount: 2
Fore
SplineSet
204 428 m 0xe4
 173 428 152 411 152 383 c 0xe4
 152 358 169 333 222 280 c 0
 304 198 320 164 320 110 c 0
 320 35 260 -11 165 -11 c 0
 75 -11 29 26 29 99 c 0
 29 172 105 231 105 231 c 1
 164 208 l 1
 164 208 96 155 96 101 c 0
 96 71 118 52 149 52 c 0
 180 52 202 70 202 100 c 0xd8
 202 129 183 143 122 204 c 0
 38 288 20 318 20 372 c 0
 20 452 78 496 183 496 c 0
 264 496 317 451 317 382 c 0
 317 311 230 232 230 232 c 1
 181 259 l 1
 181 259 256 325 256 381 c 0
 256 408 236 428 204 428 c 0xe4
EndSplineSet
Validated: 5
EndChar

StartChar: nine.dnom
Encoding: 65555 -1 223
Width: 363
HStem: 190 63<146.901 244> 431 65<136.161 199.92>
VStem: 27 98<275.738 421.609> 211 133<258.142 409.091> 211 46<146.5 367.5>
LayerCount: 2
Fore
SplineSet
169 431 m 0xf0
 140 431 125 400 125 349 c 0
 125 264 166 253 222 253 c 0
 245 253 257 247 257 228 c 0xe8
 257 198 244 190 218 190 c 0
 74 190 27 258 27 344 c 0
 27 429 76 496 175 496 c 0
 280 496 344 428 344 297 c 0
 344 115 229 -12 155 -12 c 0
 124 -12 105 10 105 29 c 4
 105 94 211 95 211 330 c 0
 211 405 200 431 169 431 c 0xf0
EndSplineSet
Validated: 5
EndChar

StartChar: .notdef
Encoding: 65556 -1 224
Width: 758
Flags: W
HStem: -9.99805 72.9459<276.331 490.828> 208.982 29.714<315.09 373.061> 673.637 65.3555<316.126 440.254>
VStem: 30 276.563<246.428 502.872> 560.103 167.897<262.053 533.974>
LayerCount: 2
Fore
SplineSet
255.785926039 129.0813312 m 0
 255.785926039 88.7304854108 285.063347638 62.9478051355 330.883592525 62.9478051355 c 0
 372.273312252 62.9478051355 397.87231186 92.9632656265 397.87231186 141.4937362 c 0
 397.87231186 151.708384518 394.585930359 208.982149177 320.882724132 208.982149177 c 0
 257.161901581 208.982149177 255.785926039 135.432501622 255.785926039 129.0813312 c 0
395.430664062 309.130859375 m 1
 397.838104169 309.7900338 560.103402255 356.694906876 560.103402255 496.709315507 c 0
 560.103402255 604.299585619 442.215461172 673.636719591 346.437119275 673.636719591 c 0
 325.868758171 673.636719591 314.17119943 662.365534307 314.17119943 642.546885468 c 0
 314.17119943 626.954345541 325.150774926 620.533029846 342.409179688 612.93359375 c 0
 385.30283558 594.044575663 414.34957016 558.681188085 414.34957016 505.208191588 c 0
 414.34957016 375.666352355 325.604700444 393.582169778 313.971679688 327.606445312 c 2
 308.345703125 295.69921875 l 2
 307.145389065 288.893273128 306.562948529 282.887946705 306.562948529 277.587848458 c 0
 306.562948529 252.252754709 322.600355278 238.696186064 352.571745095 238.696186064 c 0
 372.213566897 238.696186064 384.965771468 249.778747033 390.5078125 281.2109375 c 2
 395.430664062 309.130859375 l 1
30 397.93359375 m 0
 30 607.809570312 154.634264288 738.9921875 377 738.9921875 c 0
 601.757081356 738.9921875 728 609.963867188 728 397.93359375 c 0
 728 126.171875 601.757081356 -9.998046875 377 -9.998046875 c 0
 154.634264288 -9.998046875 30 128.05078125 30 397.93359375 c 0
EndSplineSet
Validated: 1
EndChar

StartChar: uni1E9E
Encoding: 7838 7838 225
Width: 622
Flags: W
HStem: -10 81.2773<283.107 360.447> 621 110<235 398.006>
VStem: 45 190<10.9332 620.024> 404 186<116.056 266.585>
LayerCount: 2
Fore
SplineSet
445.928710938 403.0078125 m 1
 445.928710938 403.0078125 590 352.704956317 590 213 c 0
 590 68.7214947328 472.002111051 -10 327 -10 c 0
 292.087890625 -10 277 5.3359375 277 29 c 0
 277 51.28515625 292.817378123 65.6846210139 324 71.27734375 c 0
 367.650326135 81.7484350057 404 119.657509516 404 195.700195312 c 0
 404 306.994768612 279 320.178751382 279 385 c 0
 279 405.383076303 289.300817577 420.545426833 301.456054688 442.959960938 c 10
 398.005859375 621 l 1
 235 621 l 1
 235 66 l 2
 235 10.5825602214 200.112304688 -10 138 -10 c 0
 78.4033203125 -10 45 10.9149983724 45 66 c 2
 45 607 l 2
 45 702.751585705 92.7703398017 731 178 731 c 2
 537 731 l 2
 584.103515625 731 597 718.119140625 597 688 c 0
 597 670.599609375 585.898518107 649.699090894 572.83203125 626.669921875 c 10
 445.928710938 403.0078125 l 1
EndSplineSet
EndChar

StartChar: uni2116
Encoding: 8470 8470 226
Width: 931
Flags: W
HStem: -10 21G<79.6714 112.662 79.6714 112.662 403.5 439.662 403.5 439.662> 0 90<524.218 916.782> 140 89.9004<695.223 743.223> 649.033 89.9004<694.25 744.263> 719 20G<83.3384 120 397.338 430.329>
VStem: 45 103<-3.35547 310.795> 362 103<402.205 732.355> 521.5 151<291.239 618.069> 768.5 151<290.674 618.594>
LayerCount: 2
Fore
SplineSet
672.5 473.233398438 m 4x3780
 672.5 297.390423724 689.166015625 229.900390625 718.900390625 229.900390625 c 4
 750.661132812 229.900390625 768.5 296.249798225 768.5 473.233398438 c 4
 768.5 590.496812496 750.661132812 649.033203125 718.900390625 649.033203125 c 4
 689.166015625 649.033203125 672.5 589.409213807 672.5 473.233398438 c 4x3780
521.5 477.93359375 m 4
 521.5 653.849268996 592.257840806 738.93359375 718.5 738.93359375 c 4
 847.207017365 738.93359375 919.5 655.49807524 919.5 477.93359375 c 4
 919.5 236.236102935 847.207017365 140 718.5 140 c 4
 592.257840806 140 521.5 237.792760401 521.5 477.93359375 c 4
579 0 m 6x6780
 531 0 520 14.342773437 520 47 c 4
 520 77.119140624 532 90 579 90 c 6
 862 90 l 6
 909 90 921 77.119140624 921 47 c 4
 921 14.342773437 910 0 862 0 c 6
 579 0 l 6x6780
EndSplineSet
Refer: 11 78 N 1 0 0 1 0 0 2
EndChar

StartChar: approxequal
Encoding: 8776 8776 227
Width: 400
Flags: W
HStem: 231.85 89<220.412 324.054> 287.85 89<82.2728 188.18> 381.85 89<220.412 324.054> 437.85 89<82.2728 188.18> 484.85 20G<339.44 361.492>
LayerCount: 2
Fore
SplineSet
270.30078125 231.849609375 m 0x80
 206.163297397 231.849609375 185.48671335 287.849609375 133 287.849609375 c 0
 78.2355371536 287.849609375 77.4432592148 243.849609375 47 243.849609375 c 0
 30.6167124155 243.849609375 20 252.90234375 20 273.849609375 c 0
 20 325.575430768 57.4795191122 376.849609375 131 376.849609375 c 0x40
 209.572254335 376.849609375 221.537572254 320.849609375 269 320.849609375 c 0
 313.796673447 320.849609375 325.578998411 354.849609375 353.30078125 354.849609375 c 0
 369.684068834 354.849609375 380.30078125 345.796875 380.30078125 324.849609375 c 0
 380.30078125 278.127820715 328.643270156 231.849609375 270.30078125 231.849609375 c 0x80
270.30078125 381.849609375 m 4x28
 206.163297397 381.849609375 185.48671335 437.849609375 133 437.849609375 c 4
 78.2355371536 437.849609375 77.4432592148 393.849609375 47 393.849609375 c 4
 30.6167124155 393.849609375 20 402.90234375 20 423.849609375 c 4
 20 475.575430768 57.4795191122 526.849609375 131 526.849609375 c 4x10
 209.572254335 526.849609375 221.537572254 470.849609375 269 470.849609375 c 4
 313.796673447 470.849609375 325.578998411 504.849609375 353.30078125 504.849609375 c 4
 369.684068834 504.849609375 380.30078125 495.796875 380.30078125 474.849609375 c 4
 380.30078125 428.127820715 328.643270156 381.849609375 270.30078125 381.849609375 c 4x28
EndSplineSet
EndChar

StartChar: uni20B9
Encoding: 8377 8377 228
Width: 451
Flags: W
HStem: -10 374.051<116 298.147> 451.008 90<14.2175 436.782> 641.008 90<14.6968 166.06 315.612 436.782>
VStem: 223 153<408.439 582.69>
LayerCount: 2
Fore
SplineSet
69 451.0078125 m 2
 21 451.0078125 10 465.350585938 10 498.0078125 c 0
 10 528.126953125 22 541.0078125 69 541.0078125 c 2
 382 541.0078125 l 2
 429 541.0078125 441 528.126953125 441 498.0078125 c 0
 441 465.350585938 430 451.0078125 382 451.0078125 c 2
 69 451.0078125 l 2
315.612304688 641.0078125 m 1
 315.612304688 641.0078125 376 593.373046875 376 489 c 0
 376 409.700195312 328.625 341.387695312 249.04296875 303.627929688 c 1
 356.505859375 111.897460938 l 2
 371.1484375 85.7724609375 376 66.8251953125 376 49 c 0
 376 7.169921875 338.288085938 -10 298.147460938 -10 c 0
 226.216796875 -10 213.790039062 9.2138671875 174.951171875 86 c 2
 109.235351562 215.924804688 l 2
 79.458984375 274.795898438 65.5830078125 297 65.5830078125 322 c 0
 65.5830078125 353 82.671875 364.05078125 116 364.05078125 c 0
 187.055664062 364.05078125 223 417.688476562 223 487 c 0
 223 586.44921875 179.876953125 641.0078125 79 641.0078125 c 0
 22.8642578125 641.0078125 10 655.350585938 10 688.0078125 c 0
 10 718.126953125 22 731.0078125 69 731.0078125 c 2
 382 731.0078125 l 2
 429 731.0078125 441 718.126953125 441 688.0078125 c 0
 441 655.350585938 430 641.0078125 382 641.0078125 c 2
 315.612304688 641.0078125 l 1
EndSplineSet
EndChar

StartChar: uni20B8
Encoding: 8376 8376 229
Width: 475
Flags: W
HStem: -10 21G<205.702 266.556> 493.008 98<16.2731 142.5 332.5 458.72> 493.008 75.9922<175.903 297.612> 633.008 98<16.2731 458.72>
VStem: 142.5 190<10.9332 552.826>
LayerCount: 2
Fore
SplineSet
56 591.0078125 m 6xd8
 404 591.0078125 l 6
 451.103515625 591.0078125 465 574.126953125 465 544.0078125 c 4
 465 511.350585938 451.510742188 493.0078125 404 493.0078125 c 6
 56 493.0078125 l 6
 22.4580078125 493.0078125 10 512.7890625 10 548.0078125 c 4
 10 575.563476562 22.6591796875 591.0078125 56 591.0078125 c 6xd8
56 731.0078125 m 2
 404 731.0078125 l 2
 451.103515625 731.0078125 465 714.126953125 465 684.0078125 c 0
 465 651.350585938 451.510742188 633.0078125 404 633.0078125 c 2
 56 633.0078125 l 2
 22.4580078125 633.0078125 10 652.7890625 10 688.0078125 c 0
 10 715.563476562 22.6591796875 731.0078125 56 731.0078125 c 2
142.5 66 m 2
 142.5 498 l 6
 142.5 552.825504718 175.903320312 569 235.5 569 c 4xb8
 297.612304688 569 332.5 553.29987237 332.5 498 c 6
 332.5 66 l 2
 332.5 10.5825602214 297.612304688 -10 235.5 -10 c 0
 175.903320312 -10 142.5 10.9149983724 142.5 66 c 2
EndSplineSet
EndChar

StartChar: partialdiff
Encoding: 8706 8706 230
Width: 496
Flags: W
HStem: -10 86<177.953 258.489> 353.949 82.8018<224.055 362.506>
VStem: 30 130<93.0938 288.923> 289 177<183.862 490.906> 289 91.417<222.042 511.613>
LayerCount: 2
Fore
SplineSet
217 76 m 0xf0
 180.271679687 76 160 112.95393063 160 174.299804688 c 0
 160 333.21345448 232.624457465 353.94921875 330 353.94921875 c 4
 363.328125 353.94921875 380.416992188 362.634835114 380.416992188 387 c 4xe8
 380.416992188 426 362.505859375 436.750976562 326 436.750976562 c 4
 103.387100564 436.750976562 30 324.461059181 30 182 c 0
 30 74.6631493507 94.0091528799 -10 224 -10 c 0
 374.117254849 -10 466 117.909053465 466 364 c 0
 466 585.3837676 336.632183083 739 253 739 c 0
 210.225287357 739 184 707.088400554 184 679 c 0
 184 599.337016168 289 597.225058005 289 308 c 0
 289 136.083848111 270.352934966 76 217 76 c 0xf0
EndSplineSet
EndChar

StartChar: Delta
Encoding: 8710 8710 231
Width: 513
Flags: W
HStem: 0 100<134.937 306.941> 719 20G<225.111 281.532>
LayerCount: 2
Fore
SplineSet
250.772460938 739 m 0
 312.291992188 739 330.555742389 704.661109639 346.772460938 643 c 2
 485.419921875 115.818359375 l 2
 490.672106868 95.847885463 493.64453125 76.6005859375 493.64453125 61.181640625 c 0
 493.64453125 14.0732421875 456.258789062 0 413.772460938 0 c 2
 66.865234375 0 l 2
 35 0 20 15.9501953125 20 50.4609375 c 0
 20 61.5537109375 21.9587171653 75.1454682718 25.5654296875 89.578125 c 2
 163.865234375 643 l 2
 178.998401768 703.557033268 199.450195312 739 250.772460938 739 c 0
134.937432692 100 m 1
 306.941211672 100 l 1
 217.45703125 442.950195312 l 1
 134.937432692 100 l 1
EndSplineSet
EndChar

StartChar: integral
Encoding: 8747 8747 232
Width: 364
Flags: W
HStem: -193.994 21G<-15.4561 55.0016> 679.725 75.2773<281.438 347.934>
LayerCount: 2
Fore
SplineSet
213 36 m 6
 197.897807997 -128.614482763 108.003197927 -193.994140625 2 -193.994140625 c 0
 -32.912109375 -193.994140625 -48 -179.445312499 -48 -156.994140625 c 0
 -48 -98.4614911828 32.2119339691 -113.786715499 45 21 c 6
 95 548.001953125 l 6
 109.198330838 697.65291478 180.388671875 755.001953125 304 755.001953125 c 4
 338.912109375 755.001953125 354 740.845703125 354 719.001953125 c 4
 354 698.297851562 336.431113354 690.834972579 307 679.724609375 c 4
 268 665.001953125 268.094537685 636.532612897 263 581.001953125 c 6
 213 36 l 6
EndSplineSet
EndChar

StartChar: summation
Encoding: 8721 8721 233
Width: 487
Flags: W
HStem: -184 98<215 440.72> 633 98<215 460.72>
LayerCount: 2
Back
SplineSet
215 98 m 5
 366 98 l 6
 413.103602645 98 427 81.1187521001 427 51 c 4
 427 18.3430150612 413.511157952 -5.81826253843e-15 366 0 c 6
 118 0 l 6
 58.4033582373 0 25 18.1630249023 25 66 c 4
 25 91.8974395887 38.4587518589 114.66743705 62 158 c 6
 175 366 l 5
 54 578 l 6
 37.9298339163 606.155993469 25 626.107662661 25 665 c 4
 25 712.836975098 58.4033203125 731 118 731 c 6
 386 731 l 6
 433.510742188 731 447 712.657226562 447 680 c 4
 447 649.880859375 433.103515625 633 386 633 c 6
 215 633 l 5
 324.2890625 448.370117188 l 6
 339.840525209 422.097911425 358.143554688 392.728613286 358.143554688 366.951171875 c 4
 358.143554688 339.71206701 342.860105111 312.849816644 328.61328125 288.91015625 c 6
 215 98 l 5
EndSplineSet
Fore
SplineSet
215 -86 m 1
 386 -86 l 2
 433.103602645 -86 447 -102.8812479 447 -133 c 0
 447 -165.656984939 433.511157952 -184 386 -184 c 2
 118 -184 l 2
 58.4033582373 -184 25 -165.836975098 25 -118 c 0
 25 -92.1025604113 36.6871568512 -70.4527437025 57 -26 c 2
 195 276 l 1
 51 578 l 2
 36.5898837494 608.221216026 25 626.107662661 25 665 c 0
 25 712.836975098 58.4033203125 731 118 731 c 2
 406 731 l 2
 453.510742188 731 467 712.657226562 467 680 c 0
 467 649.880859375 453.103515625 633 406 633 c 2
 215 633 l 1
 338.896484375 374.067382812 l 2
 358.896349358 332.269446337 375.143554688 307.698406783 375.143554688 276.951171875 c 0
 375.143554688 243.612462665 362.012343063 222.567835374 342.415039062 181.434570312 c 2
 215 -86 l 1
EndSplineSet
EndChar

StartChar: infinity
Encoding: 8734 8734 235
Width: 599
Flags: W
HStem: 184.761 134.367<124.03 203.827> 187.824 71.2314<371.07 469.883> 369.781 134.367<396.817 475.87> 429.854 71.2314<130.018 227.976>
VStem: 30 87.4326<324.716 418.509> 482.468 87.4326<270.4 364.194>
LayerCount: 2
Fore
SplineSet
340.443359375 290.643554688 m 0x6c
 259.40234375 200.836914062 230.7421875 184.760742188 169.287109375 184.760742188 c 0
 83.611328125 184.760742188 30 243.557617188 30 348.490234375 c 0
 30 441.028320312 84.3720703125 501.084960938 168.154296875 501.084960938 c 0
 275.252929688 501.084960938 309.594726562 405.470703125 309.594726562 405.470703125 c 1
 258.90625 353.465820312 l 1
 258.90625 353.465820312 242.633789062 429.853515625 173.55078125 429.853515625 c 0
 140.947265625 429.853515625 117.432617188 406.1796875 117.432617188 368.352539062 c 0
 117.432617188 339.252929688 133.528320312 319.127929688 160.822265625 319.127929688 c 0x9c
 184.465820312 319.127929688 208.404296875 339.841796875 259.45703125 396.265625 c 0
 340.498046875 486.072265625 369.158203125 504.1484375 430.61328125 504.1484375 c 0
 516.2890625 504.1484375 569.900390625 445.3515625 569.900390625 340.418945312 c 0
 569.900390625 247.880859375 515.528320312 187.82421875 431.74609375 187.82421875 c 0
 324.647460938 187.82421875 290.305664062 281.438476562 290.305664062 281.438476562 c 1
 340.994140625 333.443359375 l 5
 340.994140625 333.443359375 357.266601562 259.055664062 426.349609375 259.055664062 c 0
 458.953125 259.055664062 482.467773438 282.729492188 482.467773438 320.556640625 c 0
 482.467773438 349.65625 466.372070312 369.78125 439.078125 369.78125 c 0
 415.434570312 369.78125 391.49609375 347.067382812 340.443359375 290.643554688 c 0x6c
EndSplineSet
EndChar

StartChar: lessequal
Encoding: 8804 8804 237
Width: 400
Flags: W
HStem: 121.011 90<14.2175 385.782>
LayerCount: 2
Fore
SplineSet
387.7578125 292.682617188 m 4
 387.7578125 265.125976562 368.854915627 239.995117188 348.127929688 239.995117188 c 4
 338.754882812 239.995117188 327.614157311 243.967069238 313.028320312 248.919921875 c 6
 64.6787109375 333.250976562 l 6
 28.3687282105 345.580607951 12.2421875 361.458007812 12.2421875 396.010742188 c 4
 12.2421875 426.866210938 29.1326170565 446.700267015 64.6787109375 458.770507812 c 6
 313.028320312 543.1015625 l 6
 328.356105395 548.306355394 339.858398438 552.470703125 349.368164062 552.470703125 c 4
 369.627064189 552.470703125 387.163085938 528.114257812 387.163085938 499.975585938 c 4
 387.163085938 482.426757812 375.281774207 467.896849996 342.809570312 458.529296875 c 6
 126.091796875 396.010742188 l 5
 342.809570312 333.4921875 l 6
 375.773062526 323.982907952 387.7578125 309.642578125 387.7578125 292.682617188 c 4
EndSplineSet
Refer: 113 8722 S 1 0 0 1 0 -183 2
EndChar

StartChar: greaterequal
Encoding: 8805 8805 238
Width: 400
Flags: W
HStem: 121.011 90<14.2175 385.782>
LayerCount: 2
Fore
SplineSet
12.2421875 292.682617188 m 4
 12.2421875 309.642578125 24.2269374741 323.982907952 57.1904296875 333.4921875 c 6
 273.908203125 396.010742188 l 5
 57.1904296875 458.529296875 l 6
 24.7182257927 467.896849996 12.8369140625 482.426757812 12.8369140625 499.975585938 c 4
 12.8369140625 528.114257812 30.3729358115 552.470703125 50.6318359375 552.470703125 c 4
 60.1416015625 552.470703125 71.6438946049 548.306355394 86.9716796875 543.1015625 c 6
 335.321289062 458.770507812 l 6
 370.867382944 446.700267015 387.7578125 426.866210938 387.7578125 396.010742188 c 4
 387.7578125 361.458007812 371.631271789 345.580607951 335.321289062 333.250976562 c 6
 86.9716796875 248.919921875 l 6
 72.3858426887 243.967069238 61.2451171875 239.995117188 51.8720703125 239.995117188 c 4
 31.1450843733 239.995117188 12.2421875 265.125976562 12.2421875 292.682617188 c 4
EndSplineSet
Refer: 113 8722 N 1 0 0 1 0 -183 2
EndChar

StartChar: product
Encoding: 8719 8719 239
Width: 610
Flags: W
HStem: -194 21G<108.202 169.056 438.202 499.056> 641 90<235 375>
VStem: 45 190<-173.067 641> 375 190<-173.067 641>
LayerCount: 2
Fore
SplineSet
45 -118 m 2
 45 650 l 2
 45 712.547406791 78.4033203125 731 138 731 c 2
 468 731 l 6
 530.112304688 731 565 713.088586788 565 650 c 6
 565 -118 l 6
 565 -173.417439779 530.112304688 -194 468 -194 c 4
 408.403320312 -194 375 -173.085001628 375 -118 c 6
 375 641 l 5
 235 641 l 1
 235 -118 l 2
 235 -173.417439779 200.112304688 -194 138 -194 c 0
 78.4033203125 -194 45 -173.085001628 45 -118 c 2
EndSplineSet
EndChar

StartChar: notequal
Encoding: 8800 8800 240
Width: 400
Flags: W
HStem: 224.011 90<14.2175 385.782> 384.011 90<14.2175 385.782>
LayerCount: 2
Fore
SplineSet
271.918945312 570.834960938 m 4
 301.96875 570.834960938 326.53515625 552.666992188 326.53515625 530.443359375 c 4
 326.53515625 521.776367188 325.438798735 511.565284609 319.888671875 499.240234375 c 6
 170.544921875 167.595703125 l 6
 158.267715796 140.331969255 146.953125 126.552734375 128.08203125 126.552734375 c 4
 98.0322265625 126.552734375 73.46484375 144.720703125 73.46484375 166.944335938 c 4
 73.46484375 175.611328125 74.5621778274 185.822410703 80.1123046875 198.147460938 c 6
 229.456054688 529.791992188 l 6
 241.732895149 557.054914137 253.046875 570.834960938 271.918945312 570.834960938 c 4
EndSplineSet
Refer: 75 61 N 1 0 0 1 0 0 2
EndChar

StartChar: emptyset
Encoding: 8709 8709 241
Width: 610
Flags: W
HStem: -10 94.9004<248.745 382.138> 644.1 94.9004<226.244 364.878>
VStem: 30 109<210.993 533.656> 474 106<210.275 534.433>
LayerCount: 2
Fore
SplineSet
139 393.299804688 m 4
 139 170.436764965 198.048657446 84.900390625 303.400390625 84.900390625 c 4
 412.640940728 84.900390625 474 168.991473946 474 393.299804688 c 4
 474 560.591022736 412.640940728 644.099609375 303.400390625 644.099609375 c 4
 198.048657446 644.099609375 139 559.03810237 139 393.299804688 c 4
30 398 m 4
 30 627.83627294 128.055019341 739 303 739 c 4
 480.372225468 739 580 629.990215439 580 398 c 4
 580 106.189714884 480.372225468 -10 303 -10 c 4
 128.055019341 -10 30 108.068943299 30 398 c 4
442.400390625 799.864257812 m 0
 471.134765625 799.864257812 494.625 781.291992188 494.625 758.575195312 c 0
 494.625 750.133789062 492.489257812 740.1015625 488.150390625 728.182617188 c 2
 208.958984375 -38.8876953125 l 2
 198.983398438 -66.2958984375 185.98046875 -78.8642578125 167.599609375 -78.8642578125 c 0
 138.866210938 -78.8642578125 115.375 -60.2919921875 115.375 -37.5751953125 c 0
 115.375 -29.1337890625 117.51171875 -19.1015625 121.849609375 -7.1826171875 c 2
 401.041015625 759.888671875 l 2
 411.016601562 787.295898438 424.01953125 799.864257812 442.400390625 799.864257812 c 0
EndSplineSet
EndChar
